<svg width="118" height="19" viewBox="0 0 118 19" fill="none" xmlns="http://www.w3.org/2000/svg">
<path d="M0.190234 17.6612V0.25737H3.89319V17.6612H0.190234ZM35.4743 12.292C35.4743 10.5816 35.9768 9.28552 36.9819 8.40386C37.987 7.50457 39.3536 7.05493 41.0816 7.05493H44.573C44.9962 7.05493 45.3488 6.90505 45.6309 6.60529C45.9307 6.30552 46.0806 5.94404 46.0806 5.52085C46.0806 5.09766 45.9307 4.73618 45.6309 4.43641C45.3488 4.11902 45.005 3.96032 44.5994 3.96032H35.4743V0.25737H44.1498C45.1372 0.25737 45.9836 0.398435 46.6889 0.680564C47.4119 0.962694 48.0026 1.34181 48.4611 1.8179C48.9195 2.29399 49.2545 2.85825 49.4661 3.51068C49.6777 4.14547 49.7835 4.80671 49.7835 5.4944C49.7835 6.16446 49.6777 6.80807 49.4661 7.42523C49.2722 8.04238 48.946 8.59783 48.4875 9.09155C48.0467 9.58528 47.4648 9.99084 46.7418 10.3082C46.0365 10.608 45.1725 10.7579 44.1498 10.7579H40.5791C40.1735 10.7579 39.8385 10.9166 39.574 11.234C39.3095 11.5514 39.1772 11.9217 39.1772 12.3449V17.6612H35.4743V12.292ZM57.2706 17.6612V10.0437L50.7905 0.25737H55.2605L59.1221 6.94913L62.9838 0.25737H67.4538L60.9736 9.83214V17.6612H57.2706ZM90.348 10.7579C89.9424 10.7579 89.5898 10.9166 89.29 11.234C89.0079 11.5337 88.8668 11.9129 88.8668 12.3713C88.8668 12.8121 89.0079 13.1913 89.29 13.5086C89.5898 13.8084 89.9513 13.9583 90.3745 13.9583H99.4731V17.6612H90.7977C89.7573 17.6612 88.8756 17.5025 88.1527 17.1851C87.4474 16.8854 86.8655 16.4886 86.407 15.9949C85.9662 15.4836 85.6488 14.9105 85.4548 14.2757C85.2609 13.6409 85.1639 13.0061 85.1639 12.3713C85.1639 11.7189 85.2961 11.0929 85.5606 10.4934C85.8251 9.87623 86.31 9.34723 87.0153 8.90641C86.2395 8.44795 85.7369 7.91895 85.5077 7.31943C85.2785 6.70227 85.1639 5.95286 85.1639 5.07121C85.1639 4.18955 85.3843 3.36961 85.8251 2.61139C86.2836 1.85317 86.8743 1.27127 87.5972 0.865712C88.3202 0.460151 89.387 0.25737 90.7977 0.25737H99.4731V3.96032H90.348C89.9424 3.96032 89.5898 4.11902 89.29 4.43641C89.0079 4.73618 88.8668 5.09766 88.8668 5.52085C88.8668 5.94404 88.9991 6.30552 89.2636 6.60529C89.5457 6.90505 89.916 7.05493 90.3745 7.05493H99.4731V10.7579H90.348ZM111.616 8.74771L117.356 17.6612H112.912L109.077 11.1811L105.242 17.6612H100.798L106.511 8.74771L100.772 0.25737H105.215L109.077 6.68464L112.938 0.25737H117.382L111.616 8.74771Z" fill="white"/>
<path d="M5.49256 17.6612L10.5973 3.40488C11.0382 2.27636 11.6377 1.46524 12.3959 0.971511C13.1541 0.46015 13.9565 0.20447 14.8028 0.20447C15.4553 0.20447 16.0636 0.310269 16.6279 0.521866C17.2098 0.733464 17.7123 1.03323 18.1355 1.42115C18.5587 1.80908 18.8849 2.28518 19.1141 2.84944C19.361 3.39606 19.4844 4.0044 19.4844 4.67446V12.7152C19.4844 13.4205 19.7666 13.7731 20.3308 13.7731C20.6658 13.7731 20.8686 13.5527 20.9392 13.1119L24.1396 3.59003C24.598 2.33808 25.2064 1.46524 25.9646 0.971511C26.7405 0.46015 27.5516 0.20447 28.398 0.20447C29.0504 0.20447 29.6587 0.310269 30.223 0.521866C30.8049 0.733464 31.3074 1.03323 31.7306 1.42115C32.1538 1.80908 32.48 2.28518 32.7093 2.84944C32.9561 3.39606 33.0796 4.0044 33.0796 4.67446V17.6612H29.1915V4.99186C29.1915 4.28653 28.9093 3.93387 28.3451 3.93387C28.01 3.93387 27.8073 4.15429 27.7367 4.59511L24.5099 14.117H24.5363C24.2013 15.175 23.637 16.0037 22.8435 16.6033C22.0677 17.2028 21.2125 17.5025 20.2779 17.5025C19.6255 17.5025 19.0083 17.3967 18.4264 17.1851C17.8622 16.9736 17.3685 16.6738 16.9453 16.2859C16.5221 15.8979 16.187 15.4307 15.9402 14.884C15.7109 14.3198 15.5963 13.7026 15.5963 13.0326V4.99186C15.5963 4.28653 15.3142 3.93387 14.7499 3.93387C14.4149 3.93387 14.2121 4.15429 14.1416 4.59511L9.61871 17.6612H5.49256ZM68.743 12.292C68.743 10.5816 69.2455 9.28552 70.2506 8.40386C71.2557 7.50457 72.6223 7.05493 74.3503 7.05493H77.8417C78.2649 7.05493 78.6175 6.90505 78.8996 6.60529C79.1994 6.30552 79.3493 5.94404 79.3493 5.52085C79.3493 5.09766 79.1994 4.73618 78.8996 4.43641C78.6175 4.11902 78.2737 3.96032 77.8681 3.96032H68.743V0.25737H77.4185C78.4059 0.25737 79.2523 0.398435 79.9576 0.680564C80.6806 0.962694 81.2713 1.34181 81.7298 1.8179C82.1882 2.29399 82.5232 2.85825 82.7348 3.51068C82.9464 4.14547 83.0522 4.80671 83.0522 5.4944C83.0522 6.16446 82.9464 6.80807 82.7348 7.42523C82.5409 8.04238 82.2147 8.59783 81.7562 9.09155C81.3154 9.58528 80.7335 9.99084 80.0105 10.3082C79.3052 10.608 78.4412 10.7579 77.4185 10.7579H75.6463L83.449 14.0376V18.1373L72.4459 13.2177V17.6612H68.743V12.292Z" fill="#F0AC52"/>
</svg>
