<svg width="32" height="32" viewBox="0 0 32 32" fill="none" xmlns="http://www.w3.org/2000/svg">
    <path d="M5.86428 0H6.7414C9.16561 0.607731 11.3665 3.83462 12.5288 5.91866C14.1485 8.82286 11.3234 9.19664 10.1961 10.9123C9.37278 12.1708 9.47233 13.3118 10.4947 14.3355C12.8678 16.7126 15.2445 19.0897 17.6248 21.4669C19.6454 23.4891 21.4185 21.6766 22.7341 20.0417C23.6624 18.8881 24.6983 18.6945 25.9951 19.4178C27.7117 20.3751 29.2193 21.5108 30.518 22.8249C31.9278 24.2501 32.5601 25.6699 31.387 27.4366C30.9763 28.0551 29.8866 29.0779 28.118 30.5049C27.1422 31.2919 25.8113 31.7903 24.1252 32H22.8875C19.2741 31.5079 16.3171 29.3298 13.8095 26.8155C10.9683 23.9668 8.12615 21.1182 5.28312 18.2696C1.6078 14.5855 -2.04599 9.33916 1.34681 4.09815C2.50376 2.31081 4.00958 0.944762 5.86428 0Z" fill="white"/>
    </svg>
    