<svg width="32" height="32" viewBox="0 0 32 32" fill="none" xmlns="http://www.w3.org/2000/svg">
    <path d="M32 15.3548V16.6206C31.6036 21.7529 29.4995 25.7818 25.6877 28.7073C20.6269 32.5891 14.1788 33.0084 8.4448 30.1255C8.36419 30.0852 8.2728 30.0746 8.18688 30.0956L0.166817 31.993C0.147527 31.9974 0.127397 31.9968 0.108409 31.9912C0.0894209 31.9857 0.0722298 31.9754 0.0585292 31.9614C0.0448285 31.9474 0.0350909 31.9301 0.0302756 31.9113C0.0254602 31.8925 0.0257331 31.8728 0.0310676 31.8541L2.10803 24.1612C2.12794 24.0831 2.11979 24.0087 2.0836 23.9379C-0.32007 19.3392 -0.644058 14.765 1.11163 10.2153C5.74882 -1.79788 21.7889 -3.60543 29.1601 6.8751C30.8832 9.32509 31.8299 12.1517 32 15.3548ZM17.8034 19.9907C15.3029 19.106 13.4702 17.391 12.0774 15.118C12.0132 15.0133 11.9867 14.8896 12.0026 14.7677C12.0184 14.6458 12.0755 14.533 12.1643 14.4483C12.6639 13.9764 13.0585 13.4329 13.3481 12.8177C13.3897 12.7288 13.3924 12.6389 13.3562 12.5482C12.9073 11.4085 12.4349 10.2797 11.939 9.16176C11.5073 8.18448 9.81587 8.51387 9.21586 9.1427C7.70633 10.7252 7.40949 12.531 8.32534 14.5599C9.63396 17.4563 12.3544 20.4889 15.1345 22.0487C16.559 22.8472 18.0649 23.3744 19.6523 23.6303C21.9383 24.0033 24.3247 22.4979 24.1103 19.9608C24.1044 19.8861 24.0787 19.8141 24.0358 19.752C23.993 19.6899 23.9344 19.6399 23.8659 19.6069L20.388 17.9355C20.2914 17.889 20.182 17.8766 20.0775 17.9003C19.9731 17.924 19.8796 17.9825 19.8124 18.0661L18.4006 19.8192C18.3309 19.9065 18.2358 19.97 18.1288 20.0007C18.0218 20.0314 17.908 20.0279 17.8034 19.9907Z" fill="white"/>
    </svg>
    