<svg width="44" height="44" viewBox="0 0 44 44" fill="none" xmlns="http://www.w3.org/2000/svg">
<path d="M40.2156 5.03577L41.4719 7.54841L43.7781 6.3953L40.6234 0.0859375L34.3141 3.24062L35.4672 5.54684L37.7242 4.41848C34.6195 11.9452 24.2705 31.0234 0 31.0234V33.6016C25.8108 33.6016 36.9866 12.7736 40.2156 5.03577Z" fill="#F0AC52"/>
<path d="M7.82031 38.7578H18.1328V44H7.82031V38.7578Z" fill="#F0AC52"/>
<path d="M20.7109 38.7578H31.0234V44H20.7109V38.7578Z" fill="#F0AC52"/>
<path d="M33.6016 38.7578H44V44H33.6016V38.7578Z" fill="#F0AC52"/>
<path d="M20.7109 31.0234H31.0234V36.1797H20.7109V31.0234Z" fill="#F0AC52"/>
<path d="M33.6016 31.0234H44V36.1797H33.6016V31.0234Z" fill="#F0AC52"/>
<path d="M33.6016 23.2891H44V28.4453H33.6016V23.2891Z" fill="#F0AC52"/>
<path d="M9.10938 20.7109C9.10938 20.4673 9.10938 16.8388 9.10938 16.6063C7.61217 16.0724 6.53125 14.6549 6.53125 12.9766H9.10938C9.10938 13.6878 9.68722 14.2656 10.3984 14.2656C11.1097 14.2656 11.6875 13.6878 11.6875 12.9766C11.6875 12.2653 11.1097 11.6875 10.3984 11.6875C8.26598 11.6875 6.53125 9.95277 6.53125 7.82031C6.53125 6.14195 7.61217 4.7245 9.10938 4.19057C9.10938 3.94659 9.10938 0.230656 9.10938 0C4.02927 0.640922 0 5.14448 0 10.3984C0 15.6522 4.02927 20.07 9.10938 20.7109Z" fill="#F0AC52"/>
<path d="M11.6875 16.6063V20.7109C16.7676 20.07 20.7109 15.6522 20.7109 10.3984C20.7109 5.14448 16.7676 0.640922 11.6875 0V4.19057C13.1847 4.7245 14.2656 6.14195 14.2656 7.82031H11.6875C11.6875 7.10909 11.1097 6.53125 10.3984 6.53125C9.68722 6.53125 9.10938 7.10909 9.10938 7.82031C9.10938 8.53153 9.68722 9.10938 10.3984 9.10938C12.5309 9.10938 14.2656 10.8441 14.2656 12.9766C14.2656 14.6549 13.1847 16.0724 11.6875 16.6063Z" fill="#F0AC52"/>
</svg>
