<svg width="53" height="72" viewBox="0 0 53 72" fill="none" xmlns="http://www.w3.org/2000/svg">
<path d="M49.1195 0V12.3574H19.8112L17.0539 27.8808C20.3899 24.5447 24.781 22.8766 30.2274 22.8766C37.1034 22.8766 42.6179 25.0213 46.7707 29.3106C50.9236 33.6 53 39.2511 53 46.2638C53 53.7532 50.4811 59.9149 45.4432 64.7489C40.4053 69.583 33.9377 72 26.0405 72C18.5517 72 12.4245 70.0936 7.65896 66.2809C2.96146 62.4 0.408478 56.8851 0 49.7362H14.2967C14.6371 52.8681 15.8626 55.4213 17.973 57.3957C20.1516 59.3021 22.8407 60.2553 26.0405 60.2553C29.6487 60.2553 32.6101 58.9957 34.9249 56.4766C37.2396 53.8894 38.3969 50.5872 38.3969 46.5702C38.3969 42.5532 37.2736 39.3532 35.027 36.9702C32.7803 34.5872 29.7508 33.3957 25.9383 33.3957C21.377 33.3957 17.8028 35.3702 15.2158 39.3191H2.24663L9.19075 0H49.1195Z" fill="url(#paint0_linear_32_1244)"/>
<defs>
<linearGradient id="paint0_linear_32_1244" x1="-40.1515" y1="36.0187" x2="53" y2="36" gradientUnits="userSpaceOnUse">
<stop stop-color="#F0AC52"/>
<stop offset="1" stop-color="#F0AC52" stop-opacity="0"/>
</linearGradient>
</defs>
</svg>
