<svg width="50" height="70" viewBox="0 0 50 70" fill="none" xmlns="http://www.w3.org/2000/svg">
<path d="M48.7316 18.2566H35.5741C34.2746 13.1148 31.2207 10.5439 26.4125 10.5439C18.8104 10.5439 14.4895 17.3129 13.4499 30.8508C17.2185 25.709 22.2866 23.1381 28.6542 23.1381C34.8918 23.1381 39.9924 25.2534 43.9559 29.484C47.9844 33.7146 49.9986 39.1167 49.9986 45.6904C50.0636 52.7847 47.7895 58.61 43.1762 63.166C38.6279 67.722 32.8126 70 25.7303 70C17.6733 70 11.3707 67.0386 6.82243 61.1158C2.27414 55.1278 0 46.7968 0 36.1227C0 24.8629 2.37161 16.0437 7.11482 9.66528C11.858 3.22176 18.3556 0 26.6075 0C32.7801 0 37.7833 1.59461 41.6168 4.78382C45.5153 7.97304 47.8869 12.464 48.7316 18.2566ZM25.4379 33.4868C22.3191 33.4868 19.7526 34.6908 17.7383 37.099C15.7241 39.5072 14.717 42.5337 14.717 46.1785C14.717 49.8884 15.7241 52.9149 17.7383 55.258C19.7526 57.6011 22.3516 58.7727 25.5354 58.7727C28.7192 58.7727 31.3507 57.5686 33.4299 55.1604C35.5091 52.7522 36.5487 49.7257 36.5487 46.0809C36.5487 42.4361 35.5091 39.4421 33.4299 37.099C31.3507 34.6908 28.6867 33.4868 25.4379 33.4868Z" fill="url(#paint0_linear_32_1268)"/>
<defs>
<linearGradient id="paint0_linear_32_1268" x1="-37.8788" y1="35.0182" x2="50" y2="35.0011" gradientUnits="userSpaceOnUse">
<stop stop-color="#F0AC52"/>
<stop offset="1" stop-color="#F0AC52" stop-opacity="0"/>
</linearGradient>
</defs>
</svg>
