<svg width="162" height="162" viewBox="0 0 162 162" fill="none" xmlns="http://www.w3.org/2000/svg">
<g opacity="0.953">
<path fill-rule="evenodd" clip-rule="evenodd" d="M73.7227 0C78.4688 0 83.2148 0 87.9609 0C94.1714 0.683741 100.288 2.0021 106.312 3.95508C108.724 6.17233 108.829 8.49263 106.629 10.916C105.826 11.4974 104.929 11.7611 103.939 11.707C75.2199 3.69955 50.1184 9.92222 28.6348 30.375C9.76177 51.3432 4.06645 75.4955 11.5488 102.832C19.1516 125.411 34.0754 140.968 56.3203 149.502C81.8163 157.768 105.23 153.866 126.562 137.795C146.485 120.875 155.398 99.3073 153.299 73.0898C152.62 68.0099 151.618 63.0003 150.293 58.0605C151.027 54.1599 153.242 52.9996 156.938 54.5801C157.307 54.9493 157.676 55.3183 158.045 55.6875C159.998 61.7125 161.317 67.8299 162 74.0391C162 78.6798 162 83.3202 162 87.9609C158.49 116.982 144.041 138.656 118.652 152.982C108.942 157.891 98.7118 160.896 87.9609 162C83.3202 162 78.6798 162 74.0391 162C45.0195 158.491 23.3458 144.041 9.01758 118.652C4.17577 109.035 1.16991 98.9099 0 88.2773C0 83.4259 0 78.5741 0 73.7227C3.60213 44.8332 18.0514 23.2649 43.3477 9.01758C52.9651 4.17577 63.0901 1.16991 73.7227 0Z" fill="#171717"/>
<path fill-rule="evenodd" clip-rule="evenodd" d="M132.574 7.91014C134.696 7.64758 136.331 8.38585 137.479 10.125C137.937 14.7428 138.096 19.3834 137.953 24.0469C142.617 23.9045 147.257 24.0627 151.875 24.5215C154.157 26.1418 154.632 28.1985 153.299 30.6914C144.809 39.1815 136.318 47.672 127.828 56.1621C122.259 56.5712 116.669 56.7819 111.059 56.7949C101.883 65.9707 92.707 75.1465 83.5312 84.3222C79.9027 85.7768 77.6879 84.5637 76.8867 80.6836C77.1019 79.9277 77.3658 79.1895 77.6777 78.4687C86.8535 69.2929 96.0293 60.1172 105.205 50.9414C105.218 45.3309 105.429 39.7409 105.838 34.1719C114.62 25.2308 123.532 16.4768 132.574 7.91014ZM129.094 22.4648C129.356 24.5175 129.514 26.6268 129.568 28.7929C129.977 30.9949 131.296 32.2079 133.523 32.4316C135.527 32.537 137.531 32.6427 139.535 32.748C134.367 37.9159 129.199 43.0841 124.031 48.2519C120.552 48.4101 117.072 48.463 113.59 48.4101C113.537 44.9281 113.59 41.4476 113.748 37.9687C118.927 32.8426 124.042 27.6745 129.094 22.4648Z" fill="#171717"/>
<path fill-rule="evenodd" clip-rule="evenodd" d="M77.5196 24.0469C79.6316 23.9943 81.7411 24.047 83.8477 24.2051C88.3252 24.5598 89.8544 26.8274 88.4356 31.0078C87.9474 31.6021 87.3674 32.0766 86.6954 32.4317C67.411 31.3603 52.1707 38.5848 40.9747 54.1055C30.4928 71.379 30.2819 88.7814 40.3419 106.313C51.5505 122.7 67.1073 130.136 87.0118 128.619C108.672 124.994 122.435 112.602 128.303 91.4414C128.742 89.5632 129.058 87.6648 129.252 85.7461C129.265 82.0242 129.476 78.3327 129.885 74.6719C132.297 72.1435 134.723 72.1435 137.162 74.6719C139.177 96.2141 131.636 113.564 114.539 126.721C98.8422 137.371 81.8616 140.008 63.5977 134.631C40.8272 126.17 27.9075 109.875 24.8379 85.7461C23.6043 66.0217 30.407 49.7267 45.2461 36.8613C54.708 29.3359 65.4658 25.0644 77.5196 24.0469Z" fill="#171717"/>
<path fill-rule="evenodd" clip-rule="evenodd" d="M76.8868 48.4101C79.138 48.2757 81.3528 48.4339 83.5313 48.8848C85.5629 50.6307 85.9319 52.6873 84.6387 55.0547C84.091 55.7245 83.4054 56.1991 82.5821 56.4785C70.3356 56.9262 62.1615 62.8851 58.0606 74.3555C55.6195 87.455 60.3128 97 72.1407 102.99C84.4118 106.985 94.2733 103.769 101.725 93.3398C104.269 89.0639 105.534 84.4232 105.522 79.418C106.828 76.7361 108.885 75.9451 111.691 77.0449C112.39 77.6375 112.97 78.3232 113.432 79.1016C113.663 94.3628 106.807 105.015 92.8653 111.059C76.8554 115.998 63.8828 111.779 53.9473 98.4023C46.7576 85.9641 47.074 73.7299 54.8965 61.6992C60.4314 54.3168 67.7616 49.8871 76.8868 48.4101Z" fill="#171717"/>
</g>
</svg>
