<svg width="296" height="162" viewBox="0 0 296 162" fill="none" xmlns="http://www.w3.org/2000/svg">
<g opacity="0.976">
<path fill-rule="evenodd" clip-rule="evenodd" d="M0 83.7336C0 81.6233 0 79.5135 0 77.4032C24.9043 47.544 55.1595 24.62 90.7656 8.63233C100.236 4.40709 110.064 1.52965 120.25 0C83.8287 14.5524 64.5575 41.4081 62.4375 80.5684C63.7938 113.595 78.6325 138.533 106.953 155.382C111.049 157.316 115.191 159.139 119.383 160.849C120.11 161.05 120.303 161.434 119.961 162C98.0691 156.809 77.7382 148.081 58.9688 135.815C41.171 124.44 24.8872 111.108 10.1172 95.8188C6.38753 92.0172 3.01516 87.9887 0 83.7336Z" fill="#171717"/>
<path fill-rule="evenodd" clip-rule="evenodd" d="M296 77.4032C296 79.5135 296 81.6233 296 83.7336C288.469 93.4398 279.989 102.36 270.562 110.494C251.52 127.461 230.322 141.273 206.969 151.929C196.762 156.376 186.356 159.541 175.75 161.425C212.124 146.671 231.395 119.719 233.562 80.5684C231.443 41.4081 212.171 14.5524 175.75 0C185.936 1.52965 195.764 4.40709 205.234 8.63233C240.841 24.62 271.096 47.544 296 77.4032Z" fill="#171717"/>
<path fill-rule="evenodd" clip-rule="evenodd" d="M144.531 12.373C175.027 12.6291 197.092 26.2486 210.726 53.2327C221.406 81.3159 216.684 106.446 196.562 128.622C179.021 145.364 158.208 151.599 134.125 147.325C110.855 142.001 94.3788 128.477 84.6952 106.753C74.1485 76.3334 80.6044 50.1486 104.062 28.1989C115.985 18.9048 129.474 13.6293 144.531 12.373ZM146.266 31.3641C152.421 31.4412 158.395 32.4961 164.187 34.5293C165.883 35.8322 167.136 37.4631 167.945 39.421C166.855 47.1141 169.264 53.3484 175.172 58.1243C178.734 60.0735 182.492 60.7451 186.445 60.1385C189.879 60.3837 192.577 61.918 194.539 64.7424C201.559 92.6772 192.213 113.107 166.5 126.032C140.489 134.156 119.965 126.962 104.93 104.451C95.3911 84.93 97.1255 66.5144 110.133 49.2043C119.801 38.3972 131.845 32.4506 146.266 31.3641Z" fill="#171717"/>
<path fill-rule="evenodd" clip-rule="evenodd" d="M143.953 48.6288C146.458 48.6288 148.964 48.6288 151.469 48.6288C153.294 62.0578 160.616 71.1695 173.438 75.9645C175.379 76.4082 177.306 76.8881 179.219 77.4032C180.48 93.0191 173.928 104.049 159.563 110.494C142.789 115.48 129.589 110.781 119.961 96.3943C112.35 79.2229 115.915 64.9318 130.656 53.5204C134.917 51.1983 139.35 49.568 143.953 48.6288Z" fill="#171717"/>
</g>
</svg>
