<svg width="10" height="16" viewBox="0 0 10 16" fill="none" xmlns="http://www.w3.org/2000/svg">
<path d="M5.48571 0V1.2973C6.75556 1.32132 7.75873 1.63363 8.49524 2.23423C9.24444 2.83484 9.61905 3.63363 9.61905 4.63063V4.9009H7.5619V4.77478C7.5619 4.15015 7.38413 3.69369 7.02857 3.40541C6.68571 3.10511 6.17143 2.91892 5.48571 2.84685V6.81081C8.49524 7.27928 10 8.55255 10 10.6306C10 11.7598 9.58095 12.6787 8.74286 13.3874C7.91746 14.0961 6.83175 14.4504 5.48571 14.4504V16H4.53333V14.4504C3.2 14.4504 2.10794 14.1021 1.25714 13.4054C0.419048 12.7087 0 11.7177 0 10.4324V10.2703H2.17143C2.15873 10.3303 2.15238 10.3964 2.15238 10.4685C2.15238 11.9459 2.94603 12.7508 4.53333 12.8829V8.48649C3.31429 8.31832 2.30476 7.95195 1.50476 7.38739C0.71746 6.81081 0.32381 5.99399 0.32381 4.93694C0.32381 3.80781 0.711111 2.94895 1.48571 2.36036C2.27302 1.75976 3.28889 1.40541 4.53333 1.2973V0H5.48571ZM4.53333 6.61261V2.86487C3.86032 2.91291 3.33333 3.10511 2.95238 3.44144C2.57143 3.76577 2.38095 4.1982 2.38095 4.73874C2.38095 5.3033 2.56508 5.71772 2.93333 5.98198C3.31429 6.24625 3.84762 6.45646 4.53333 6.61261ZM5.48571 8.68468V12.9009C6.19683 12.8769 6.76825 12.6667 7.2 12.2703C7.63175 11.8739 7.84762 11.3634 7.84762 10.7387C7.84762 9.66967 7.06032 8.98499 5.48571 8.68468Z" fill="white"/>
</svg>
