<svg width="10" height="14" viewBox="0 0 10 14" fill="none" xmlns="http://www.w3.org/2000/svg">
<path d="M6.76692 0C7.39348 0 7.96366 0.0640146 8.47744 0.192044C9.00376 0.320073 9.51128 0.512117 10 0.768176L9.09774 2.93827C8.67168 2.74623 8.27694 2.59899 7.91353 2.49657C7.55013 2.38134 7.16792 2.32373 6.76692 2.32373C6.39098 2.32373 6.04637 2.38134 5.73308 2.49657C5.43233 2.59899 5.16291 2.75903 4.92481 2.97668C4.68672 3.19433 4.48622 3.46319 4.32331 3.78327C4.17293 4.10334 4.06015 4.47462 3.98496 4.89712H7.68797V6.5487H3.85338C3.85338 6.59991 3.84712 6.67033 3.83459 6.75995C3.83459 6.83676 3.83459 6.93279 3.83459 7.04801C3.83459 7.13763 3.83459 7.23365 3.83459 7.33608C3.83459 7.4257 3.84085 7.52172 3.85338 7.62414H7.10526V9.29492H4.00376C4.10401 9.79424 4.27945 10.2167 4.53008 10.5624C4.79323 10.8953 5.12531 11.1513 5.52632 11.3306C5.93985 11.497 6.41604 11.5802 6.95489 11.5802C7.43108 11.5802 7.87594 11.5354 8.28947 11.4458C8.71554 11.3434 9.11028 11.209 9.47368 11.0425V13.4431C9.12281 13.6223 8.72807 13.7567 8.28947 13.8464C7.86341 13.9488 7.36215 14 6.78571 14C5.80827 14 4.93734 13.8208 4.17293 13.4623C3.40852 13.091 2.77569 12.5533 2.27444 11.8491C1.77318 11.1449 1.43484 10.2936 1.2594 9.29492H0V7.62414H1.09023C1.07769 7.56013 1.06516 7.47051 1.05263 7.35528C1.05263 7.24006 1.05263 7.13763 1.05263 7.04801C1.05263 6.94559 1.05263 6.84957 1.05263 6.75995C1.05263 6.67033 1.0589 6.59991 1.07143 6.5487H0V4.89712H1.2218C1.38471 3.87289 1.71679 2.99589 2.21804 2.26612C2.7193 1.53635 3.3584 0.979424 4.13534 0.595336C4.91228 0.198445 5.78947 0 6.76692 0Z" fill="white"/>
</svg>
