<svg width="10" height="12" viewBox="0 0 10 12" fill="none" xmlns="http://www.w3.org/2000/svg">
<path d="M1.39616 12V0H5.37522C6.9808 0 8.15009 0.313725 8.88307 0.941176C9.62769 1.56863 10 2.43137 10 3.52941C10 4.17927 9.84875 4.78992 9.54625 5.36134C9.24375 5.93277 8.73764 6.39216 8.02792 6.7395C7.32984 7.08683 6.3758 7.2605 5.16579 7.2605H4.03141V12H1.39616ZM0 10.2017V8.57143H6.71902V10.2017H0ZM0 7.2605V5.17647H5.11344V7.2605H0ZM4.90401 5.17647C5.40431 5.17647 5.83479 5.12605 6.19546 5.02521C6.55614 4.91317 6.83537 4.7395 7.03316 4.5042C7.23095 4.26891 7.32984 3.97199 7.32984 3.61345C7.32984 3.09804 7.16114 2.71709 6.82374 2.47059C6.48633 2.21289 5.95695 2.08403 5.2356 2.08403H4.03141V5.17647H4.90401Z" fill="white"/>
</svg>
