<svg width="14" height="16" viewBox="0 0 14 16" fill="none" xmlns="http://www.w3.org/2000/svg">
<path d="M2.57883 0H2.93109C3.39876 0.181854 3.63259 0.532503 3.63259 1.05195C3.63259 3.86971 3.63259 6.68699 3.63259 9.50379C3.63259 10.6167 1.84421 10.6718 1.83819 9.37756C1.82615 6.65169 1.82314 3.9263 1.82916 1.2014C1.83066 0.591992 1.97217 0.190076 2.57883 0Z" fill="white"/>
<path d="M14 7.96286V8.04411C13.9107 9.05592 13.4505 9.75721 12.6196 10.148C11.9391 10.4687 10.5964 10.3816 10.0108 10.3598C9.07442 10.325 8.75679 9.10767 9.52152 8.6274C10.1192 8.2516 11.7796 8.74348 12.0596 8.28642C12.2794 7.92949 12.1138 7.77569 11.9376 7.46228C11.3766 6.46208 10.8156 5.46189 10.2546 4.46169C10.075 4.14054 9.9932 3.88034 10.0093 3.68107C10.083 2.73795 11.2407 2.51595 11.7299 3.37492C12.3862 4.52795 13.0356 5.68485 13.6778 6.84562C13.8781 7.20691 13.9398 7.5711 14 7.96286Z" fill="white"/>
<path d="M5.46591 9.41949C5.46402 9.94116 5.86688 10.3654 6.36571 10.3671C6.86454 10.3688 7.27046 9.94724 7.27235 9.42557C7.27424 8.9039 6.87139 8.47964 6.37255 8.47796C5.87372 8.47628 5.4678 8.89782 5.46591 9.41949Z" fill="white"/>
<path d="M0 15.1698V14.9855C0.105376 14.4758 0.405949 14.1875 0.901718 14.1208C0.952901 14.114 0.974979 14.0855 0.967954 14.0352C0.841503 13.1462 1.10193 12.4154 1.74924 11.8428C2.70967 10.9925 4.49805 11.2029 5.05203 12.3622C5.11325 12.4899 5.12228 12.6548 5.07913 12.857C4.96923 13.3706 4.55977 13.7101 3.99074 13.6042C3.58881 13.5288 3.39612 12.9818 2.95806 13.2647C2.45526 13.5912 2.79849 14.1338 3.35246 14.1295C3.77848 14.1266 4.29182 14.0656 4.63655 14.3137C5.14386 14.6765 5.1273 15.5601 4.56278 15.8735C4.41225 15.9567 4.17339 15.9988 3.84623 15.9998C2.91691 16.0007 1.9886 15.9988 1.06129 15.994C0.44559 15.9896 0.123441 15.7241 0 15.1698Z" fill="white"/>
</svg>
