<svg width="17" height="12" viewBox="0 0 17 12" fill="none" xmlns="http://www.w3.org/2000/svg">
<path d="M16.9384 6.75825C16.8109 5.24288 16.6009 4.94775 16.5215 4.83675C16.3391 4.58025 16.0472 4.41262 15.7383 4.23675C15.7209 4.22697 15.7058 4.21303 15.6943 4.19603C15.6828 4.17902 15.6752 4.15942 15.672 4.13876C15.6689 4.11811 15.6704 4.09697 15.6763 4.07701C15.6822 4.05705 15.6924 4.03882 15.7061 4.02375C15.7633 3.96234 15.8073 3.88854 15.835 3.80743C15.8627 3.72632 15.8735 3.63982 15.8666 3.55388C15.8533 3.40148 15.7863 3.25995 15.679 3.15736C15.5718 3.05476 15.432 2.9986 15.2874 3H14.7348C14.7112 3.00015 14.6875 3.00178 14.664 3.00488C14.6479 2.99747 14.6312 2.99157 14.6141 2.98725C14.2868 2.25488 13.8387 1.25212 12.9099 0.76275C11.5324 0.0374999 8.99473 0 8.49883 0C8.00292 0 5.4653 0.0374999 4.08951 0.761625C3.16075 1.251 2.71266 2.25375 2.38536 2.98613L2.38253 2.99212C2.36621 2.99456 2.35018 2.99883 2.33471 3.00488C2.31121 3.00178 2.28755 3.00015 2.26387 3H1.71022C1.56566 2.9986 1.42588 3.05476 1.31861 3.15736C1.21133 3.25995 1.1444 3.40148 1.13108 3.55388C1.12478 3.63962 1.13605 3.72579 1.16411 3.80649C1.19217 3.8872 1.23636 3.96054 1.29366 4.0215C1.30737 4.03657 1.31758 4.0548 1.3235 4.07476C1.32941 4.09472 1.33086 4.11586 1.32773 4.13651C1.32461 4.15717 1.31699 4.17677 1.30548 4.19378C1.29398 4.21078 1.2789 4.22472 1.26143 4.2345C0.952549 4.4115 0.659256 4.57912 0.47825 4.8345C0.398905 4.947 0.189208 5.24063 0.0613346 6.756C-0.00950914 7.60875 -0.0201357 8.4915 0.0354767 9.06C0.152015 10.2413 0.370568 10.9552 0.379777 10.9849C0.413314 11.0927 0.475048 11.1882 0.557811 11.2604C0.640574 11.3325 0.740971 11.3783 0.847346 11.3925V11.4C0.847346 11.5591 0.907057 11.7117 1.01334 11.8243C1.11963 11.9368 1.26378 12 1.4141 12H3.39772C3.54803 12 3.69219 11.9368 3.79847 11.8243C3.90476 11.7117 3.96447 11.5591 3.96447 11.4C4.26945 11.4 4.48163 11.3423 4.70656 11.2808C5.0313 11.1881 5.36323 11.1265 5.69837 11.0966C6.77909 10.9875 7.85379 10.95 8.49883 10.95C9.13075 10.95 10.2529 10.9875 11.3354 11.0966C11.6719 11.1266 12.0051 11.1884 12.3311 11.2815C12.5465 11.34 12.7509 11.394 13.0339 11.3996C13.0339 11.5588 13.0936 11.7114 13.1999 11.8239C13.3062 11.9364 13.4503 11.9996 13.6006 11.9996H15.5843C15.7346 11.9996 15.8787 11.9364 15.985 11.8239C16.0913 11.7114 16.151 11.5588 16.151 11.3996V11.3951C16.2576 11.3812 16.3583 11.3355 16.4414 11.2634C16.5244 11.1912 16.5864 11.0955 16.62 10.9875C16.6292 10.9579 16.8478 10.2439 16.9643 9.06263C17.0199 8.49375 17.01 7.6125 16.9384 6.75825ZM3.40977 3.49913C3.69314 2.86162 4.01725 2.14013 4.59427 1.836C5.4281 1.3965 7.15634 1.1985 8.49883 1.1985C9.84132 1.1985 11.5695 1.395 12.4034 1.836C12.9804 2.14013 13.3031 2.862 13.5879 3.49913L13.6233 3.5805C13.644 3.62683 13.6532 3.678 13.6499 3.72913C13.6466 3.78027 13.631 3.82967 13.6046 3.87261C13.5782 3.91556 13.5418 3.95062 13.4989 3.97445C13.4561 3.99828 13.4082 4.01009 13.3598 4.00875C12.1827 3.975 9.70317 3.867 8.49883 3.867C7.29448 3.867 4.81495 3.97763 3.63611 4.01138C3.58771 4.01272 3.5398 4.00091 3.49694 3.97707C3.45408 3.95324 3.4177 3.91818 3.39127 3.87524C3.36484 3.83229 3.34925 3.7829 3.34597 3.73176C3.3427 3.68062 3.35186 3.62945 3.37257 3.58313C3.38497 3.55538 3.39808 3.52725 3.40977 3.49913ZM3.83235 6.48525C3.22302 6.56289 2.6098 6.60121 1.99608 6.6C1.62061 6.6 1.23344 6.4875 1.16154 6.1335C1.1123 5.89538 1.11761 5.7615 1.14418 5.62688C1.1665 5.5125 1.20192 5.42925 1.37903 5.4C1.83951 5.325 2.09703 5.41913 2.85081 5.65425C3.35061 5.80988 3.71121 6.01725 3.91665 6.1815C4.01973 6.2625 3.96483 6.474 3.83235 6.48525ZM11.674 9.56025C11.2079 9.6165 10.2756 9.59588 8.50945 9.59588C6.74332 9.59588 5.81137 9.6165 5.34522 9.56025C4.86419 9.50363 4.25103 9.02213 4.66972 8.59313C4.94849 8.31038 5.59884 8.09888 6.4649 7.98C7.33097 7.86112 7.69758 7.8 8.50591 7.8C9.31424 7.8 9.64366 7.8375 10.5469 7.98038C11.4502 8.12325 12.1328 8.33738 12.3421 8.5935C12.7239 9.0525 12.1547 9.50063 11.674 9.5625V9.56025ZM15.8361 6.13312C15.7653 6.48862 15.3756 6.59963 15.0016 6.59963C14.3761 6.59978 13.7512 6.56147 13.1299 6.48488C13.0215 6.474 12.9712 6.27262 13.081 6.18112C13.2833 6.01275 13.6478 5.8095 14.1468 5.65388C14.9006 5.41875 15.3352 5.32463 15.7086 5.403C15.7996 5.42213 15.8478 5.52563 15.8535 5.5905C15.8785 5.77114 15.8726 5.95506 15.8361 6.1335V6.13312Z" fill="white"/>
</svg>
