<svg width="17" height="17" viewBox="0 0 17 17" fill="none" xmlns="http://www.w3.org/2000/svg">
<path d="M17 8.15724V8.82971C16.7894 11.5562 15.6716 13.6966 13.6466 15.2507C10.9581 17.313 7.53251 17.5357 4.4863 16.0042C4.44347 15.9828 4.39493 15.9771 4.34928 15.9883L0.0886214 16.9963C0.0783739 16.9986 0.0676798 16.9983 0.0575923 16.9953C0.0475049 16.9924 0.0383721 16.9869 0.0310936 16.9795C0.0238152 16.9721 0.0186421 16.9629 0.0160839 16.9529C0.0135257 16.9429 0.0136707 16.9324 0.0165046 16.9225L1.11989 12.8356C1.13047 12.7942 1.12614 12.7546 1.10691 12.717C-0.170037 10.274 -0.342156 7.8439 0.590554 5.42685C3.05406 -0.955121 11.5754 -1.91538 15.4913 3.6524C16.4067 4.95396 16.9096 6.45557 17 8.15724ZM9.45803 10.6201C8.12964 10.1501 7.15606 9.23898 6.41614 8.03142C6.382 7.9758 6.36796 7.9101 6.37636 7.84534C6.38476 7.78057 6.4151 7.72067 6.4623 7.67566C6.72769 7.42499 6.93731 7.13624 7.09116 6.8094C7.11327 6.76216 7.11472 6.71443 7.09548 6.66623C6.85702 6.06076 6.60605 5.46108 6.34259 4.86718C6.11325 4.34801 5.21468 4.52299 4.89592 4.85706C4.09399 5.69777 3.93629 6.65707 4.42284 7.73495C5.11804 9.27368 6.56326 10.8847 8.04021 11.7134C8.79696 12.1376 9.59697 12.4177 10.4403 12.5536C11.6547 12.7517 12.9225 11.952 12.8086 10.6042C12.8055 10.5645 12.7918 10.5262 12.769 10.4933C12.7463 10.4603 12.7151 10.4337 12.6788 10.4162L10.8311 9.52821C10.7798 9.50352 10.7217 9.49695 10.6662 9.50955C10.6107 9.52215 10.5611 9.55319 10.5254 9.59763L9.77534 10.529C9.73827 10.5753 9.68779 10.609 9.63093 10.6254C9.57407 10.6417 9.51364 10.6398 9.45803 10.6201Z" fill="#C7C7C7"/>
</svg>
