<svg width="14" height="16" viewBox="0 0 14 16" fill="none" xmlns="http://www.w3.org/2000/svg">
<path opacity="0.972" fill-rule="evenodd" clip-rule="evenodd" d="M10.6586 0C10.9247 0 11.1908 0 11.457 0C12.7559 0.252832 13.579 1.05492 13.9261 2.40625C14.1447 3.82366 13.6962 4.93303 12.5806 5.73438C11.5754 6.29688 10.57 6.29688 9.56449 5.73438C9.34038 5.58097 9.13339 5.40391 8.94352 5.20312C7.86743 5.8215 6.798 6.46212 5.73516 7.125C5.92083 7.89234 5.85675 8.63713 5.54296 9.35938C6.55984 9.99316 7.58001 10.6233 8.60346 11.25C9.48412 9.98487 10.6423 9.57344 12.0779 10.0156C13.2961 10.5537 13.9367 11.5224 14 12.9219C13.8812 14.6253 13.0335 15.6514 11.457 16C11.1908 16 10.9247 16 10.6586 16C9.484 15.7747 8.69054 15.0664 8.27819 13.875C8.16417 13.452 8.11981 13.0249 8.14512 12.5938C7.01765 11.9177 5.89398 11.2354 4.77413 10.5469C4.71899 10.5062 4.65985 10.4958 4.59671 10.5156C3.46483 11.2855 2.33131 11.2855 1.19615 10.5156C0.0681449 9.52369 -0.262055 8.28931 0.205557 6.8125C0.80826 5.50684 1.79886 4.87663 3.17735 4.92188C3.92098 5.00494 4.54689 5.33306 5.05505 5.90625C6.0877 5.26419 7.12759 4.63397 8.17469 4.01562C8.21875 3.99234 8.24832 3.95587 8.2634 3.90625C7.95221 2.46018 8.36619 1.30914 9.50535 0.453125C9.86743 0.230188 10.2518 0.0791466 10.6586 0ZM10.836 1.25C11.8726 1.2115 12.5182 1.72192 12.7728 2.78125C12.8452 3.93569 12.3474 4.63881 11.2796 4.89062C10.4296 4.93953 9.82337 4.55931 9.46099 3.75C9.18374 2.79558 9.43509 2.04037 10.215 1.48438C10.416 1.37722 10.6229 1.29909 10.836 1.25ZM2.88165 6.15625C3.6495 6.19459 4.19654 6.58003 4.52279 7.3125C4.82387 8.35816 4.52323 9.14462 3.6209 9.67188C2.84634 9.98159 2.17115 9.82012 1.59535 9.1875C1.181 8.63122 1.08244 8.01666 1.29965 7.34375C1.609 6.62066 2.13633 6.22481 2.88165 6.15625ZM10.8656 11.0938C11.8809 11.0804 12.5167 11.5908 12.7728 12.625C12.8622 13.4725 12.5616 14.1132 11.871 14.5469C11.0074 14.9319 10.273 14.7497 9.66798 14C9.18924 13.1993 9.22866 12.4285 9.78626 11.6875C10.0848 11.3605 10.4446 11.1626 10.8656 11.0938Z" fill="white"/>
</svg>
