<svg width="26" height="18" viewBox="0 0 26 18" fill="none" xmlns="http://www.w3.org/2000/svg">
<g clip-path="url(#clip0_0_768)">
<rect width="26" height="18" rx="2" fill="white"/>
<path fill-rule="evenodd" clip-rule="evenodd" d="M0 -0.749756V18.7502H26V-0.749756H0Z" fill="#F7FCFF"/>
<mask id="mask0_0_768" style="mask-type:luminance" maskUnits="userSpaceOnUse" x="0" y="-1" width="26" height="20">
<path fill-rule="evenodd" clip-rule="evenodd" d="M0 -0.749756V18.7502H26V-0.749756H0Z" fill="white"/>
</mask>
<g mask="url(#mask0_0_768)">
<path fill-rule="evenodd" clip-rule="evenodd" d="M12.8276 14.3393C15.6033 14.3393 17.8534 12.035 17.8534 9.19255C17.8534 6.35007 15.6033 4.04578 12.8276 4.04578C10.0519 4.04578 7.80176 6.35007 7.80176 9.19255C7.80176 12.035 10.0519 14.3393 12.8276 14.3393Z" fill="#3D58DB"/>
<mask id="mask1_0_768" style="mask-type:luminance" maskUnits="userSpaceOnUse" x="7" y="4" width="11" height="11">
<path fill-rule="evenodd" clip-rule="evenodd" d="M12.8276 14.3393C15.6033 14.3393 17.8534 12.035 17.8534 9.19255C17.8534 6.35007 15.6033 4.04578 12.8276 4.04578C10.0519 4.04578 7.80176 6.35007 7.80176 9.19255C7.80176 12.035 10.0519 14.3393 12.8276 14.3393Z" fill="white"/>
</mask>
<g mask="url(#mask1_0_768)">
<path fill-rule="evenodd" clip-rule="evenodd" d="M18.0294 9.58675C18.0294 9.58675 17.7473 7.15988 15.658 7.02813C13.5688 6.89638 13.0055 8.80786 12.8849 9.31427C12.7643 9.82069 12.4592 11.1716 10.2595 11.1716C8.05975 11.1716 7.86133 7.73648 7.86133 7.73648V3.68591H18.0294V9.58675Z" fill="#E31D1C"/>
</g>
<path fill-rule="evenodd" clip-rule="evenodd" d="M5.93154 0.917603L6.67494 1.58997L3.22973 5.61339L2.48633 4.94102L5.93154 0.917603ZM7.15777 2.00574L7.90118 2.6781L4.57947 6.64324L3.83606 5.97087L7.15777 2.00574ZM9.12122 3.77942L8.37782 3.10706L5.04687 7.10228L5.79028 7.77465L9.12122 3.77942Z" fill="#272727"/>
<path d="M6.67494 1.58997L6.76752 1.66924L6.84466 1.57914L6.75669 1.49958L6.67494 1.58997ZM5.93154 0.917603L6.01329 0.827213L5.92041 0.743213L5.83896 0.838333L5.93154 0.917603ZM3.22973 5.61339L3.14798 5.70378L3.24086 5.78778L3.32231 5.69266L3.22973 5.61339ZM2.48633 4.94102L2.39375 4.86175L2.31661 4.95185L2.40458 5.03141L2.48633 4.94102ZM7.90118 2.6781L7.9946 2.75637L8.06995 2.66642L7.98293 2.58771L7.90118 2.6781ZM7.15777 2.00574L7.23952 1.91535L7.14564 1.83043L7.06435 1.92747L7.15777 2.00574ZM4.57947 6.64324L4.49771 6.73363L4.5916 6.81854L4.67289 6.7215L4.57947 6.64324ZM3.83606 5.97087L3.74263 5.89261L3.66728 5.98255L3.75431 6.06126L3.83606 5.97087ZM8.37782 3.10706L8.45957 3.01667L8.36546 2.93155L8.28421 3.02901L8.37782 3.10706ZM9.12122 3.77942L9.21483 3.85746L9.2898 3.76755L9.20298 3.68903L9.12122 3.77942ZM5.04687 7.10228L4.95327 7.02424L4.8783 7.11415L4.96512 7.19267L5.04687 7.10228ZM5.79028 7.77465L5.70853 7.86503L5.80264 7.95015L5.88389 7.85269L5.79028 7.77465ZM6.75669 1.49958L6.01329 0.827213L5.84978 1.00799L6.59319 1.68036L6.75669 1.49958ZM3.32231 5.69266L6.76752 1.66924L6.58237 1.5107L3.13716 5.53412L3.32231 5.69266ZM2.40458 5.03141L3.14798 5.70378L3.31149 5.523L2.56808 4.85064L2.40458 5.03141ZM5.83896 0.838333L2.39375 4.86175L2.5789 5.02029L6.02411 0.996872L5.83896 0.838333ZM7.98293 2.58771L7.23952 1.91535L7.07602 2.09613L7.81943 2.76849L7.98293 2.58771ZM4.67289 6.7215L7.9946 2.75637L7.80775 2.59984L4.48604 6.56497L4.67289 6.7215ZM3.75431 6.06126L4.49771 6.73363L4.66122 6.55285L3.91781 5.88048L3.75431 6.06126ZM7.06435 1.92747L3.74263 5.89261L3.92948 6.04914L7.2512 2.084L7.06435 1.92747ZM8.29607 3.19744L9.03947 3.86981L9.20298 3.68903L8.45957 3.01667L8.29607 3.19744ZM5.14048 7.18033L8.47143 3.1851L8.28421 3.02901L4.95327 7.02424L5.14048 7.18033ZM5.87203 7.68426L5.12863 7.01189L4.96512 7.19267L5.70853 7.86503L5.87203 7.68426ZM9.02762 3.70138L5.69667 7.6966L5.88389 7.85269L9.21483 3.85746L9.02762 3.70138Z" fill="#272727"/>
<path fill-rule="evenodd" clip-rule="evenodd" d="M19.9767 0.917603L19.2333 1.58997L22.6785 5.61339L23.4219 4.94102L19.9767 0.917603ZM18.7504 2.00574L18.007 2.6781L21.3287 6.64324L22.0721 5.97087L18.7504 2.00574ZM16.7869 3.77942L17.5303 3.10706L20.8613 7.10228L20.1179 7.77465L16.7869 3.77942Z" fill="#272727"/>
<path d="M19.2333 1.58997L19.1407 1.66924L19.0635 1.57914L19.1515 1.49958L19.2333 1.58997ZM19.9767 0.917603L19.8949 0.827213L19.9878 0.743213L20.0692 0.838333L19.9767 0.917603ZM22.6785 5.61339L22.7602 5.70378L22.6673 5.78778L22.5859 5.69266L22.6785 5.61339ZM23.4219 4.94102L23.5144 4.86175L23.5916 4.95185L23.5036 5.03141L23.4219 4.94102ZM18.007 2.6781L17.9135 2.75637L17.8382 2.66642L17.9252 2.58771L18.007 2.6781ZM18.7504 2.00574L18.6686 1.91535L18.7625 1.83043L18.8438 1.92747L18.7504 2.00574ZM21.3287 6.64324L21.4104 6.73363L21.3165 6.81854L21.2352 6.7215L21.3287 6.64324ZM22.0721 5.97087L22.1655 5.89261L22.2409 5.98255L22.1538 6.06126L22.0721 5.97087ZM17.5303 3.10706L17.4486 3.01667L17.5427 2.93155L17.6239 3.02901L17.5303 3.10706ZM16.7869 3.77942L16.6933 3.85746L16.6183 3.76755L16.7052 3.68903L16.7869 3.77942ZM20.8613 7.10228L20.9549 7.02424L21.0298 7.11415L20.943 7.19267L20.8613 7.10228ZM20.1179 7.77465L20.1996 7.86503L20.1055 7.95015L20.0243 7.85269L20.1179 7.77465ZM19.1515 1.49958L19.8949 0.827213L20.0584 1.00799L19.315 1.68036L19.1515 1.49958ZM22.5859 5.69266L19.1407 1.66924L19.3258 1.5107L22.771 5.53412L22.5859 5.69266ZM23.5036 5.03141L22.7602 5.70378L22.5967 5.523L23.3401 4.85064L23.5036 5.03141ZM20.0692 0.838333L23.5144 4.86175L23.3293 5.02029L19.8841 0.996872L20.0692 0.838333ZM17.9252 2.58771L18.6686 1.91535L18.8321 2.09613L18.0887 2.76849L17.9252 2.58771ZM21.2352 6.7215L17.9135 2.75637L18.1004 2.59984L21.4221 6.56497L21.2352 6.7215ZM22.1538 6.06126L21.4104 6.73363L21.2469 6.55285L21.9903 5.88048L22.1538 6.06126ZM18.8438 1.92747L22.1655 5.89261L21.9787 6.04914L18.6569 2.084L18.8438 1.92747ZM17.6121 3.19744L16.8687 3.86981L16.7052 3.68903L17.4486 3.01667L17.6121 3.19744ZM20.7677 7.18033L17.4367 3.1851L17.6239 3.02901L20.9549 7.02424L20.7677 7.18033ZM20.0361 7.68426L20.7795 7.01189L20.943 7.19267L20.1996 7.86503L20.0361 7.68426ZM16.8805 3.70138L20.2115 7.6966L20.0243 7.85269L16.6933 3.85746L16.8805 3.70138Z" fill="#272727"/>
<path fill-rule="evenodd" clip-rule="evenodd" d="M5.93154 17.5247L6.67494 16.8523L3.22973 12.8289L2.48633 13.5012L5.93154 17.5247ZM7.15777 16.4365L7.90118 15.7641L4.57947 11.799L3.83606 12.4713L7.15777 16.4365ZM9.12122 14.6628L8.37782 15.3351L5.04687 11.3399L5.79028 10.6676L9.12122 14.6628Z" fill="#272727"/>
<path d="M6.67494 16.8523L6.76752 16.773L6.84466 16.8631L6.75669 16.9427L6.67494 16.8523ZM5.93154 17.5247L6.01329 17.615L5.92041 17.699L5.83896 17.6039L5.93154 17.5247ZM3.22973 12.8289L3.14798 12.7385L3.24086 12.6545L3.32231 12.7496L3.22973 12.8289ZM2.48633 13.5012L2.39375 13.5805L2.31661 13.4904L2.40458 13.4108L2.48633 13.5012ZM7.90118 15.7641L7.9946 15.6858L8.06995 15.7758L7.98293 15.8545L7.90118 15.7641ZM7.15777 16.4365L7.23952 16.5269L7.14564 16.6118L7.06435 16.5147L7.15777 16.4365ZM4.57947 11.799L4.49771 11.7086L4.5916 11.6237L4.67289 11.7207L4.57947 11.799ZM3.83606 12.4713L3.74263 12.5496L3.66728 12.4596L3.75431 12.3809L3.83606 12.4713ZM8.37782 15.3351L8.45957 15.4255L8.36546 15.5106L8.28421 15.4132L8.37782 15.3351ZM9.12122 14.6628L9.21483 14.5847L9.2898 14.6746L9.20298 14.7532L9.12122 14.6628ZM5.04687 11.3399L4.95327 11.418L4.8783 11.3281L4.96512 11.2495L5.04687 11.3399ZM5.79028 10.6676L5.70853 10.5772L5.80264 10.4921L5.88389 10.5895L5.79028 10.6676ZM6.75669 16.9427L6.01329 17.615L5.84978 17.4343L6.59319 16.7619L6.75669 16.9427ZM3.32231 12.7496L6.76752 16.773L6.58237 16.9316L3.13716 12.9081L3.32231 12.7496ZM2.40458 13.4108L3.14798 12.7385L3.31149 12.9193L2.56808 13.5916L2.40458 13.4108ZM5.83896 17.6039L2.39375 13.5805L2.5789 13.422L6.02411 17.4454L5.83896 17.6039ZM7.98293 15.8545L7.23952 16.5269L7.07602 16.3461L7.81943 15.6737L7.98293 15.8545ZM4.67289 11.7207L7.9946 15.6858L7.80775 15.8424L4.48604 11.8772L4.67289 11.7207ZM3.75431 12.3809L4.49771 11.7086L4.66122 11.8894L3.91781 12.5617L3.75431 12.3809ZM7.06435 16.5147L3.74263 12.5496L3.92948 12.3931L7.2512 16.3582L7.06435 16.5147ZM8.29607 15.2448L9.03947 14.5724L9.20298 14.7532L8.45957 15.4255L8.29607 15.2448ZM5.14048 11.2619L8.47143 15.2571L8.28421 15.4132L4.95327 11.418L5.14048 11.2619ZM5.87203 10.7579L5.12863 11.4303L4.96512 11.2495L5.70853 10.5772L5.87203 10.7579ZM9.02762 14.7408L5.69667 10.7456L5.88389 10.5895L9.21483 14.5847L9.02762 14.7408Z" fill="#272727"/>
<path fill-rule="evenodd" clip-rule="evenodd" d="M19.9767 17.5247L19.2333 16.8523L22.6785 12.8289L23.4219 13.5012L19.9767 17.5247ZM18.7504 16.4365L18.007 15.7641L21.3287 11.799L22.0721 12.4713L18.7504 16.4365ZM16.7869 14.6628L17.5303 15.3351L20.8613 11.3399L20.1179 10.6676L16.7869 14.6628Z" fill="#272727"/>
<path d="M19.2333 16.8523L19.1407 16.773L19.0635 16.8631L19.1515 16.9427L19.2333 16.8523ZM19.9767 17.5247L19.8949 17.615L19.9878 17.699L20.0692 17.6039L19.9767 17.5247ZM22.6785 12.8289L22.7602 12.7385L22.6673 12.6545L22.5859 12.7496L22.6785 12.8289ZM23.4219 13.5012L23.5144 13.5805L23.5916 13.4904L23.5036 13.4108L23.4219 13.5012ZM18.007 15.7641L17.9135 15.6858L17.8382 15.7758L17.9252 15.8545L18.007 15.7641ZM18.7504 16.4365L18.6686 16.5269L18.7625 16.6118L18.8438 16.5147L18.7504 16.4365ZM21.3287 11.799L21.4104 11.7086L21.3165 11.6237L21.2352 11.7207L21.3287 11.799ZM22.0721 12.4713L22.1655 12.5496L22.2409 12.4596L22.1538 12.3809L22.0721 12.4713ZM17.5303 15.3351L17.4486 15.4255L17.5427 15.5106L17.6239 15.4132L17.5303 15.3351ZM16.7869 14.6628L16.6933 14.5847L16.6183 14.6746L16.7052 14.7532L16.7869 14.6628ZM20.8613 11.3399L20.9549 11.418L21.0298 11.3281L20.943 11.2495L20.8613 11.3399ZM20.1179 10.6676L20.1996 10.5772L20.1055 10.4921L20.0243 10.5895L20.1179 10.6676ZM19.1515 16.9427L19.8949 17.615L20.0584 17.4343L19.315 16.7619L19.1515 16.9427ZM22.5859 12.7496L19.1407 16.773L19.3258 16.9316L22.771 12.9081L22.5859 12.7496ZM23.5036 13.4108L22.7602 12.7385L22.5967 12.9193L23.3401 13.5916L23.5036 13.4108ZM20.0692 17.6039L23.5144 13.5805L23.3293 13.422L19.8841 17.4454L20.0692 17.6039ZM17.9252 15.8545L18.6686 16.5269L18.8321 16.3461L18.0887 15.6737L17.9252 15.8545ZM21.2352 11.7207L17.9135 15.6858L18.1004 15.8424L21.4221 11.8772L21.2352 11.7207ZM22.1538 12.3809L21.4104 11.7086L21.2469 11.8894L21.9903 12.5617L22.1538 12.3809ZM18.8438 16.5147L22.1655 12.5496L21.9787 12.3931L18.6569 16.3582L18.8438 16.5147ZM17.6121 15.2448L16.8687 14.5724L16.7052 14.7532L17.4486 15.4255L17.6121 15.2448ZM20.7677 11.2619L17.4367 15.2571L17.6239 15.4132L20.9549 11.418L20.7677 11.2619ZM20.0361 10.7579L20.7795 11.4303L20.943 11.2495L20.1996 10.5772L20.0361 10.7579ZM16.8805 14.7408L20.2115 10.7456L20.0243 10.5895L16.6933 14.5847L16.8805 14.7408Z" fill="#272727"/>
</g>
</g>
<defs>
<clipPath id="clip0_0_768">
<rect width="26" height="18" rx="2" fill="white"/>
</clipPath>
</defs>
</svg>
