<svg width="26" height="18" viewBox="0 0 26 18" fill="none" xmlns="http://www.w3.org/2000/svg">
<g clip-path="url(#clip0_0_732)">
<rect width="26" height="18" rx="2" fill="white"/>
<path fill-rule="evenodd" clip-rule="evenodd" d="M6.5 -0.749756H26V18.7502H6.5V-0.749756Z" fill="#EF0000"/>
<path fill-rule="evenodd" clip-rule="evenodd" d="M0 -0.749756H9.75V18.7502H0V-0.749756Z" fill="#2F8D00"/>
<mask id="mask0_0_732" style="mask-type:luminance" maskUnits="userSpaceOnUse" x="3" y="2" width="13" height="14">
<path fill-rule="evenodd" clip-rule="evenodd" d="M9.67215 15.3437C6.21051 15.3437 3.4043 12.5037 3.4043 9.00036C3.4043 5.49701 6.21051 2.65698 9.67215 2.65698C13.1338 2.65698 15.94 5.49701 15.94 9.00036C15.94 12.5037 13.1338 15.3437 9.67215 15.3437Z" fill="white"/>
</mask>
<g mask="url(#mask0_0_732)">
<path fill-rule="evenodd" clip-rule="evenodd" d="M9.28516 2.50024H10.0977V4.69302H9.28516V2.50024Z" fill="#FFE017"/>
<path fill-rule="evenodd" clip-rule="evenodd" d="M9.28516 13.4639H10.0977V15.5H9.28516V13.4639Z" fill="#FFE017"/>
<path d="M3.50548 9.32815L3.27832 8.74535C5.78503 7.74461 7.67699 7.09923 8.96073 6.80838C10.8442 6.38164 12.9137 6.06592 15.1694 5.86096L15.2247 6.48496C12.9949 6.68756 10.952 6.99924 9.09597 7.41975C7.85044 7.70195 5.98477 8.33836 3.50548 9.32815Z" fill="#FFE017"/>
<path d="M15.5515 5.47701L15.3672 6.07509C13.4727 5.477 11.9294 5.21991 10.7431 5.29954L10.7021 4.67441C11.9758 4.58891 13.5904 4.85787 15.5515 5.47701Z" fill="#FFE017"/>
<path d="M16.2072 8.82132L15.857 9.33795C14.8912 8.66742 13.7013 8.33061 12.2793 8.33061V7.7041C13.8209 7.7041 15.1329 8.07548 16.2072 8.82132Z" fill="#FFE017"/>
<path d="M15.6831 9.00854L15.8431 9.61375C13.761 10.1777 11.8062 10.4977 9.97849 10.5731C8.13821 10.6489 5.99332 10.3278 3.54199 9.61213L3.71358 9.01017C6.10534 9.70846 8.18585 10.0199 9.95329 9.94708C11.7333 9.87369 13.6433 9.56105 15.6831 9.00854Z" fill="#FFE017"/>
<path d="M15.4466 11.9543L14.4681 12.9575C12.6085 11.0997 10.9714 9.77127 9.56675 8.97309C8.13812 8.16128 6.27507 7.33694 3.98047 6.50339L4.45103 5.17664C6.81329 6.03476 8.74488 6.88943 10.2487 7.74395C11.7765 8.61212 13.5057 10.0153 15.4466 11.9543Z" fill="#FFE017"/>
<path d="M4.43386 12.5226L4.06348 12.0206C4.1152 11.9815 4.20749 11.9163 4.33465 11.8337C4.54459 11.6973 4.77773 11.5611 5.02857 11.4339C5.71944 11.0834 6.41245 10.8646 7.07344 10.8445C7.10576 10.8435 7.13795 10.843 7.17 10.843V11.4695C7.14418 11.4695 7.11819 11.4699 7.09203 11.4707C6.53501 11.4877 5.9233 11.6808 5.30597 11.994C5.07587 12.1107 4.86147 12.2359 4.66906 12.3609C4.60208 12.4044 4.54283 12.4447 4.49205 12.4805C4.46244 12.5014 4.4428 12.5158 4.43386 12.5226Z" fill="#FFE017"/>
<path d="M4.72266 12.7399L4.87855 12.1336C6.9424 12.6771 8.5335 12.948 9.64394 12.948C10.7502 12.948 12.3968 12.6285 14.5731 11.9873L14.7461 12.5888C12.5184 13.2452 10.8212 13.5745 9.64394 13.5745C8.47079 13.5745 6.833 13.2957 4.72266 12.7399Z" fill="#FFE017"/>
<path d="M3.91797 7.12692L4.89872 6.12598L6.33467 7.56706L5.35392 8.568L3.91797 7.12692Z" fill="#FFE017"/>
<path d="M12.0537 12.1264L12.7832 10.9255L15.0612 12.3429L14.3317 13.5437L12.0537 12.1264Z" fill="#FFE017"/>
</g>
<path fill-rule="evenodd" clip-rule="evenodd" d="M3.4043 9.00036C3.4043 12.5037 6.21051 15.3437 9.67215 15.3437C13.1338 15.3437 15.94 12.5037 15.94 9.00036C15.94 5.49701 13.1338 2.65698 9.67215 2.65698C6.21051 2.65698 3.4043 5.49701 3.4043 9.00036ZM15.1659 9.07867C15.1659 12.1063 12.7408 14.5606 9.74925 14.5606C6.7577 14.5606 4.33258 12.1063 4.33258 9.07867C4.33258 6.05108 6.7577 3.59674 9.74925 3.59674C12.7408 3.59674 15.1659 6.05108 15.1659 9.07867Z" fill="#F9E813"/>
<path d="M6.21973 5.08813V10.175C6.55459 12.1884 7.68271 13.1951 9.6041 13.1951C11.5255 13.1951 12.6536 12.1884 12.9885 10.175V5.08813H6.21973Z" fill="white"/>
<path d="M4.94336 4.12524H13.9407V10.1562L13.9332 10.198C13.4985 12.6075 11.9577 13.8752 9.44202 13.8752C6.92631 13.8752 5.38552 12.6075 4.95089 10.198L4.94336 10.1562V4.12524Z" fill="#C51918"/>
<path fill-rule="evenodd" clip-rule="evenodd" d="M7.3502 5.67371H5.8877V7.13621H7.3502V5.67371ZM13.0378 5.67374H11.5753V7.13624H13.0378V5.67374Z" fill="#F9E813"/>
<path fill-rule="evenodd" clip-rule="evenodd" d="M5.8877 8.92371H7.3502V10.3862H5.8877V8.92371ZM11.6562 8.94675H13.1187V10.4092H11.6562V8.94675ZM11.6786 11.3152H10.2161V12.7777H11.6786V11.3152Z" fill="#F9E813"/>
<path fill-rule="evenodd" clip-rule="evenodd" d="M7.02637 11.3083H8.48887V12.7708H7.02637V11.3083Z" fill="#F9E813"/>
<path d="M7.19141 6.32751H12.0174V9.93574C12.0174 9.93574 11.6593 11.799 9.60442 11.799C7.54953 11.799 7.19141 9.93574 7.19141 9.93574V6.32751Z" fill="#F7FCFF"/>
<path d="M9.12988 6.729H10.2027V7.5102C10.2027 7.5102 10.123 7.91361 9.66627 7.91361C9.20949 7.91361 9.12988 7.5102 9.12988 7.5102V6.729Z" fill="#013399"/>
<path d="M9.12988 8.4519H10.2027V9.2331C10.2027 9.2331 10.123 9.63651 9.66627 9.63651C9.20949 9.63651 9.12988 9.2331 9.12988 9.2331V8.4519Z" fill="#013399"/>
<path d="M10.5234 8.4519H11.5962V9.2331C11.5962 9.2331 11.5166 9.63651 11.0598 9.63651C10.603 9.63651 10.5234 9.2331 10.5234 9.2331V8.4519Z" fill="#013399"/>
<path d="M7.7373 8.4519H8.81007V9.2331C8.81007 9.2331 8.73047 9.63651 8.27369 9.63651C7.81691 9.63651 7.7373 9.2331 7.7373 9.2331V8.4519Z" fill="#013399"/>
<path d="M9.12988 10.1749H10.2027V10.9561C10.2027 10.9561 10.123 11.3595 9.66627 11.3595C9.20949 11.3595 9.12988 10.9561 9.12988 10.9561V10.1749Z" fill="#013399"/>
</g>
<defs>
<clipPath id="clip0_0_732">
<rect width="26" height="18" rx="2" fill="white"/>
</clipPath>
</defs>
</svg>
