<svg width="26" height="18" viewBox="0 0 26 18" fill="none" xmlns="http://www.w3.org/2000/svg">
<g clip-path="url(#clip0_0_744)">
<rect width="26" height="18" rx="2" fill="white"/>
<path fill-rule="evenodd" clip-rule="evenodd" d="M0 -0.749756H26V18.7502H0V-0.749756Z" fill="#E31D1C"/>
<path fill-rule="evenodd" clip-rule="evenodd" d="M0 0.875244V2.50024H26V0.875244H0ZM0 4.12518V5.75018H26V4.12518H0ZM0 9.00018V7.37518H26V9.00018H0ZM0 10.6252V12.2502H26V10.6252H0ZM0 15.5002V13.8752H26V15.5002H0ZM0 18.7502V17.1252H26V18.7502H0Z" fill="#F7FCFF"/>
<rect y="-0.749756" width="14.625" height="11.375" fill="#2E42A5"/>
<path fill-rule="evenodd" clip-rule="evenodd" d="M1.68896 2.78258L2.55008 2.18275L3.21805 2.66364H2.83984L3.60468 3.34012L3.34635 4.28864H2.94175L2.54887 3.41748L2.21382 4.28864H1.21484L1.97968 4.96512L1.68896 6.03258L2.55008 5.43275L3.21805 5.91364H2.83984L3.60468 6.59012L3.34635 7.53864H2.94175L2.54887 6.66748L2.21382 7.53864H1.21484L1.97968 8.21512L1.68896 9.28258L2.55008 8.68275L3.38327 9.28258L3.12422 8.21512L3.79335 7.53864H3.48472L4.17508 7.05775L4.84305 7.53864H4.46484L5.22968 8.21512L4.93896 9.28258L5.80008 8.68275L6.63327 9.28258L6.37422 8.21512L7.04335 7.53864H6.73472L7.42508 7.05775L8.09305 7.53864H7.71484L8.47968 8.21512L8.18896 9.28258L9.05008 8.68275L9.88327 9.28258L9.62422 8.21512L10.2933 7.53864H9.98472L10.6751 7.05775L11.343 7.53864H10.9648L11.7297 8.21512L11.439 9.28258L12.3001 8.68275L13.1333 9.28258L12.8742 8.21512L13.5433 7.53864H12.6917L12.2989 6.66748L11.9638 7.53864H11.4794L11.2492 6.59012L11.9183 5.91364H11.6097L12.3001 5.43275L13.1333 6.03258L12.8742 4.96512L13.5433 4.28864H12.6917L12.2989 3.41748L11.9638 4.28864H11.4794L11.2492 3.34012L11.9183 2.66364H11.6097L12.3001 2.18275L13.1333 2.78258L12.8742 1.71512L13.5433 1.03864H12.6917L12.2989 0.16748L11.9638 1.03864H10.9648L11.7297 1.71512L11.4714 2.66364H11.0667L10.6739 1.79248L10.3388 2.66364H9.8544L9.62422 1.71512L10.2933 1.03864H9.44175L9.04887 0.16748L8.71382 1.03864H7.71484L8.47968 1.71512L8.22135 2.66364H7.81675L7.42387 1.79248L7.08882 2.66364H6.6044L6.37422 1.71512L7.04335 1.03864H6.19175L5.79887 0.16748L5.46382 1.03864H4.46484L5.22968 1.71512L4.97135 2.66364H4.56675L4.17387 1.79248L3.83882 2.66364H3.3544L3.12422 1.71512L3.79335 1.03864H2.94175L2.54887 0.16748L2.21382 1.03864H1.21484L1.97968 1.71512L1.68896 2.78258ZM11.4714 5.91364L11.7297 4.96512L10.9648 4.28864H11.343L10.6751 3.80775L9.98472 4.28864H10.2933L9.62422 4.96512L9.8544 5.91364H10.3388L10.6739 5.04248L11.0667 5.91364H11.4714ZM9.71805 5.91364L9.05008 5.43275L8.35972 5.91364H8.66835L7.99922 6.59012L8.2294 7.53864H8.71382L9.04887 6.66748L9.44175 7.53864H9.84635L10.1047 6.59012L9.33984 5.91364H9.71805ZM6.85468 6.59012L6.59635 7.53864H6.19175L5.79887 6.66748L5.46382 7.53864H4.9794L4.74922 6.59012L5.41835 5.91364H5.10972L5.80008 5.43275L6.46805 5.91364H6.08984L6.85468 6.59012ZM7.08882 5.91364H6.6044L6.37422 4.96512L7.04335 4.28864H6.73472L7.42508 3.80775L8.09305 4.28864H7.71484L8.47968 4.96512L8.22135 5.91364H7.81675L7.42387 5.04248L7.08882 5.91364ZM4.97135 5.91364L5.22968 4.96512L4.46484 4.28864H4.84305L4.17508 3.80775L3.48472 4.28864H3.79335L3.12422 4.96512L3.3544 5.91364H3.83882L4.17387 5.04248L4.56675 5.91364H4.97135ZM10.1047 3.34012L9.84635 4.28864H9.44175L9.04887 3.41748L8.71382 4.28864H8.2294L7.99922 3.34012L8.66835 2.66364H8.35972L9.05008 2.18275L9.71805 2.66364H9.33984L10.1047 3.34012ZM6.46805 2.66364L5.80008 2.18275L5.10972 2.66364H5.41835L4.74922 3.34012L4.9794 4.28864H5.46382L5.79887 3.41748L6.19175 4.28864H6.59635L6.85468 3.34012L6.08984 2.66364H6.46805Z" fill="#F7FCFF"/>
</g>
<defs>
<clipPath id="clip0_0_744">
<rect width="26" height="18" rx="2" fill="white"/>
</clipPath>
</defs>
</svg>
