<svg width="66" height="44" viewBox="0 0 66 44" fill="none" xmlns="http://www.w3.org/2000/svg">
<path d="M65.761 24.7803C65.2659 19.2239 64.4504 18.1418 64.1424 17.7348C63.4342 16.7943 62.301 16.1796 61.1018 15.5347C61.034 15.4989 60.9755 15.4478 60.9308 15.3854C60.8861 15.3231 60.8565 15.2512 60.8444 15.1755C60.8323 15.0997 60.8379 15.0222 60.8609 14.949C60.8838 14.8758 60.9235 14.809 60.9767 14.7538C61.1988 14.5286 61.3694 14.258 61.477 13.9606C61.5845 13.6632 61.6264 13.346 61.5997 13.0309C61.5479 12.4721 61.2881 11.9531 60.8716 11.577C60.4551 11.2008 59.9124 10.9949 59.3512 11H57.2059C57.1139 11.0005 57.0221 11.0065 56.9308 11.0179C56.8682 10.9907 56.8033 10.9691 56.7369 10.9533C55.4663 8.26788 53.7266 4.59112 50.1208 2.79675C44.7727 0.137499 34.9207 0 32.9954 0C31.0702 0 21.2182 0.1375 15.8769 2.79262C12.2711 4.587 10.5315 8.26375 9.26083 10.9491L9.24982 10.9711C9.18645 10.98 9.12421 10.9957 9.06417 11.0179C8.97292 11.0065 8.88108 11.0005 8.78913 11H6.63969C6.07846 10.9949 5.53579 11.2008 5.11931 11.577C4.70283 11.9531 4.44296 12.4721 4.39123 13.0309C4.36681 13.3453 4.41056 13.6612 4.5195 13.9571C4.62844 14.2531 4.8 14.522 5.02245 14.7455C5.07567 14.8007 5.11532 14.8676 5.13828 14.9408C5.16123 15.014 5.16687 15.0915 5.15473 15.1672C5.1426 15.2429 5.11303 15.3148 5.06835 15.3772C5.02368 15.4395 4.96512 15.4906 4.89731 15.5265C3.69813 16.1755 2.55946 16.7901 1.85674 17.7265C1.54869 18.139 0.734571 19.2156 0.238123 24.772C-0.0369179 27.8988 -0.0781739 31.1355 0.137733 33.22C0.590174 37.5513 1.43867 40.1693 1.47443 40.2779C1.60463 40.6732 1.8443 41.0234 2.16562 41.288C2.48693 41.5525 2.87671 41.7206 3.2897 41.7725V41.8C3.2897 42.3835 3.52152 42.9431 3.93416 43.3556C4.3468 43.7682 4.90646 44 5.49002 44H13.1912C13.7747 44 14.3344 43.7682 14.747 43.3556C15.1597 42.9431 15.3915 42.3835 15.3915 41.8C16.5755 41.8 17.3993 41.5883 18.2725 41.3628C19.5333 41.0231 20.822 40.7971 22.1231 40.6876C26.3188 40.2875 30.4912 40.15 32.9954 40.15C35.4488 40.15 39.8054 40.2875 44.0081 40.6876C45.3143 40.7974 46.6081 41.0243 47.8738 41.3655C48.7099 41.58 49.5034 41.778 50.6022 41.7986C50.6022 42.3821 50.834 42.9417 51.2466 43.3543C51.6593 43.7668 52.2189 43.9986 52.8025 43.9986H60.5036C61.0872 43.9986 61.6468 43.7668 62.0595 43.3543C62.4721 42.9417 62.7039 42.3821 62.7039 41.7986V41.7821C63.1179 41.7312 63.5089 41.5636 63.8312 41.299C64.1536 41.0344 64.3941 40.6836 64.5247 40.2875C64.5605 40.1789 65.409 37.5609 65.8614 33.2296C66.0773 31.1438 66.0388 27.9125 65.761 24.7803ZM13.2379 12.8301C14.3381 10.4926 15.5964 7.84713 17.8366 6.732C21.0738 5.1205 27.7834 4.3945 32.9954 4.3945C38.2075 4.3945 44.9171 5.115 48.1543 6.732C50.3945 7.84713 51.6473 10.494 52.753 12.8301L52.8905 13.1285C52.9709 13.2984 53.0065 13.486 52.9938 13.6735C52.981 13.861 52.9205 14.0421 52.8179 14.1996C52.7153 14.357 52.5741 14.4856 52.4077 14.573C52.2413 14.6604 52.0552 14.7037 51.8673 14.6987C47.2976 14.575 37.6711 14.179 32.9954 14.179C28.3198 14.179 18.6933 14.5846 14.1167 14.7084C13.9288 14.7133 13.7428 14.67 13.5763 14.5826C13.4099 14.4952 13.2687 14.3667 13.1661 14.2092C13.0635 14.0517 13.003 13.8706 12.9903 13.6831C12.9775 13.4956 13.0131 13.308 13.0935 13.1381C13.1416 13.0364 13.1925 12.9332 13.2379 12.8301ZM14.8785 23.7793C12.5129 24.0639 10.1322 24.2044 7.74948 24.2C6.29176 24.2 4.78867 23.7875 4.5095 22.4895C4.31835 21.6164 4.33898 21.1255 4.44212 20.6319C4.52875 20.2125 4.66627 19.9073 5.35388 19.8C7.14164 19.525 8.14141 19.8701 11.0678 20.7323C13.0083 21.3029 14.4082 22.0632 15.2058 22.6655C15.606 22.9625 15.3929 23.738 14.8785 23.7793ZM45.3228 35.0543C43.513 35.2605 39.8935 35.1849 33.0367 35.1849C26.1799 35.1849 22.5618 35.2605 20.752 35.0543C18.8845 34.8466 16.504 33.0811 18.1295 31.5081C19.2118 30.4714 21.7367 29.6959 25.099 29.26C28.4614 28.8241 29.8847 28.6 33.0229 28.6C36.1612 28.6 37.4401 28.7375 40.9469 29.2614C44.4536 29.7852 47.1036 30.5704 47.9164 31.5095C49.3989 33.1925 47.1889 34.8356 45.3228 35.0625V35.0543ZM61.4814 22.4881C61.2063 23.7916 59.6936 24.1986 58.2414 24.1986C55.8131 24.1992 53.3868 24.0587 50.9748 23.7779C50.554 23.738 50.3587 22.9996 50.7851 22.6641C51.5703 22.0467 52.9854 21.3015 54.923 20.7309C57.8495 19.8688 59.5368 19.5236 60.9863 19.811C61.3397 19.8811 61.5268 20.2606 61.5488 20.4985C61.6458 21.1608 61.6229 21.8352 61.4814 22.4895V22.4881Z" fill="#F0AC52"/>
</svg>
