<svg width="20" height="19" viewBox="0 0 20 19" fill="none" xmlns="http://www.w3.org/2000/svg">
<path fill-rule="evenodd" clip-rule="evenodd" d="M10.7526 4.39245C10.3542 4.85109 9.64582 4.85109 9.24741 4.39245L8.49481 3.52609C7.77548 2.69801 6.64957 2.15898 5.5 2.15898C3.48568 2.15898 2 3.67697 2 5.57861C2 6.73435 2.43807 7.98675 3.25572 9.29682C4.0693 10.6004 5.1874 11.8456 6.36222 12.9464C7.53017 14.0407 8.70677 14.9483 9.59543 15.5839C9.73868 15.6863 9.87396 15.7814 10 15.8687C10.126 15.7814 10.2613 15.6863 10.4046 15.5839C11.2932 14.9483 12.4698 14.0407 13.6378 12.9464C14.8126 11.8456 15.9307 10.6004 16.7443 9.29682C17.5619 7.98675 18 6.73435 18 5.57861C18 3.67697 16.5143 2.15898 14.5 2.15898C13.3504 2.15898 12.2245 2.69801 11.5052 3.52609L10.7526 4.39245ZM8.84246 1.17949C7.87446 0.527705 6.70399 0.144531 5.5 0.144531C2.42 0.144531 0 2.52565 0 5.57861C0 12.2312 10 18.2746 10 18.2746C10 18.2746 20 12.2312 20 5.57861C20 2.52565 17.58 0.144531 14.5 0.144531C13.296 0.144531 12.1255 0.527705 11.1575 1.17949C10.7266 1.46966 10.3358 1.81306 10 2.1996C9.66422 1.81306 9.27341 1.46966 8.84246 1.17949Z" fill="#F0AC52"/>
</svg>
