<svg width="18" height="18" viewBox="0 0 18 18" fill="none" xmlns="http://www.w3.org/2000/svg">
<path fill-rule="evenodd" clip-rule="evenodd" d="M8.55938 4.125C6.08438 4.125 4.125 6.08437 4.125 8.55937C4.125 11.0344 6.08438 12.9937 8.55938 12.9937C11.0344 12.9937 12.9937 11.0344 12.9937 8.55937C12.9937 6.08437 11.0344 4.125 8.55938 4.125ZM8.55938 11.4469C7.0125 11.4469 5.67188 10.2094 5.67188 8.55937C5.67188 7.0125 6.90938 5.67188 8.55938 5.67188C10.1063 5.67188 11.4469 6.90937 11.4469 8.55937C11.4469 10.1062 10.1063 11.4469 8.55938 11.4469Z" fill="#C7C7C7"/>
<path d="M14.1281 4.02188C14.1281 4.59142 13.6664 5.05313 13.0969 5.05313C12.5273 5.05313 12.0656 4.59142 12.0656 4.02188C12.0656 3.45233 12.5273 2.99063 13.0969 2.99063C13.6664 2.99063 14.1281 3.45233 14.1281 4.02188Z" fill="#C7C7C7"/>
<path fill-rule="evenodd" clip-rule="evenodd" d="M12.0656 0H5.05313C4.125 0 3.50625 0.206251 2.99063 0.412501C2.475 0.618751 1.95938 0.928126 1.44375 1.44375C0.928126 1.95938 0.721876 2.37188 0.412501 2.99063C0.206251 3.50625 0.103125 4.125 0 5.05313V12.0656C0 12.9938 0.206251 13.6125 0.412501 14.1281C0.618751 14.6438 0.928126 15.1594 1.44375 15.675C1.95938 16.1906 2.37188 16.3969 2.99063 16.7063C3.50625 16.9125 4.125 17.0156 5.05313 17.1187H12.0656C12.9938 17.1187 13.6125 16.9125 14.1281 16.7063C14.6438 16.5 15.1594 16.1906 15.675 15.675C16.1906 15.1594 16.3969 14.7469 16.7063 14.1281C16.9125 13.6125 17.0156 12.9938 17.1187 12.0656V5.05313C17.1187 4.125 16.9125 3.50625 16.7063 2.99063C16.5 2.475 16.1906 1.95938 15.675 1.44375C15.1594 0.928126 14.7469 0.721876 14.1281 0.412501C13.6125 0.206251 12.9938 0.103125 12.0656 0ZM12.0656 1.54688H5.05313C4.22813 1.65 3.81563 1.75312 3.50625 1.85625C3.09375 1.95938 2.78438 2.16563 2.475 2.475C2.2302 2.71981 2.11453 2.96461 1.97473 3.26051C1.93795 3.33835 1.89917 3.4204 1.85625 3.50625C1.84032 3.55405 1.82192 3.6043 1.80221 3.65816C1.69433 3.95291 1.54688 4.35575 1.54688 5.05313V12.0656C1.65 12.8906 1.75312 13.3031 1.85625 13.6125C1.95938 14.025 2.16563 14.3344 2.475 14.6438C2.71981 14.8886 2.96461 15.0042 3.26051 15.144C3.33853 15.1809 3.42019 15.2195 3.50625 15.2625C3.55411 15.2785 3.60444 15.2969 3.65838 15.3166C3.95312 15.4245 4.35575 15.5719 5.05313 15.5719H12.0656C12.8906 15.4688 13.3031 15.3656 13.6125 15.2625C14.025 15.1594 14.3344 14.9531 14.6438 14.6438C14.8886 14.3989 15.0042 14.1541 15.144 13.8582C15.1808 13.7804 15.2196 13.6984 15.2625 13.6125C15.2785 13.5646 15.2969 13.5143 15.3166 13.4604C15.4245 13.1656 15.5719 12.763 15.5719 12.0656V5.05313C15.4688 4.22813 15.3656 3.81563 15.2625 3.50625C15.1594 3.09375 14.9531 2.78438 14.6438 2.475C14.3989 2.2302 14.1541 2.11453 13.8582 1.97473C13.7803 1.93791 13.6984 1.89922 13.6125 1.85625C13.5647 1.8403 13.5144 1.82189 13.4604 1.80216C13.1657 1.69427 12.763 1.54688 12.0656 1.54688Z" fill="#C7C7C7"/>
</svg>
