<svg width="15" height="17" viewBox="0 0 15 17" fill="none" xmlns="http://www.w3.org/2000/svg">
<path fill-rule="evenodd" clip-rule="evenodd" d="M10.6902 0H10.5118L7.88564 0.0135736C7.87978 0.0136471 7.87685 0.0165291 7.87685 0.0222216C7.87571 0.273778 7.87406 0.525008 7.87242 0.775956C7.8696 1.20675 7.86679 1.63671 7.86651 2.06605C7.8654 4.22165 7.86462 6.37728 7.86418 8.53295C7.86414 8.66388 7.86363 8.79542 7.86312 8.92916C7.86221 9.16578 7.86128 9.4093 7.86284 9.66854C7.86807 10.5327 7.85917 11.4513 7.8157 12.3424C7.8028 12.6068 7.68983 12.8192 7.55751 13.0448C7.15911 13.7241 6.42358 14.2094 5.61911 14.248C5.60413 14.2488 5.58899 14.2495 5.57374 14.2503C5.4609 14.2558 5.34245 14.2617 5.24273 14.2567C4.17062 14.2027 3.22694 13.3432 3.02379 12.3142C3.01297 12.2593 3.00652 12.1973 3.00444 12.1285C3.00373 12.1042 3.00297 12.0798 3.0022 12.0555C2.99252 11.7475 2.98277 11.4371 3.08572 11.1377C3.3995 10.2254 4.18118 9.55404 5.16767 9.461C5.53838 9.42597 5.90039 9.46406 6.25368 9.57528L6.25546 9.5754L6.25711 9.57474L6.25826 9.57344L6.25868 9.57178C6.26112 9.17119 6.26748 8.77062 6.27385 8.37005C6.28407 7.72745 6.29429 7.08484 6.28826 6.44216C6.28823 6.43898 6.28707 6.43591 6.28498 6.43347C6.2829 6.43104 6.28 6.42939 6.27681 6.4288C4.59437 6.13259 2.88335 6.68955 1.65346 7.83576C0.743362 8.68379 0.162498 9.84413 0.0175047 11.0674C0.00942418 11.1355 0.00456902 11.2083 0.00293824 11.2858C-0.0032883 11.5824 0.000381439 11.8788 0.0139465 12.1752C0.0179491 12.2632 0.0262146 12.3509 0.038742 12.4381C0.400003 14.9677 2.61572 16.9383 5.21949 17H5.40106C5.48357 16.9964 5.56607 16.9931 5.64857 16.9904C7.22927 16.9375 8.75849 16.1381 9.70173 14.8927C10.3475 14.0401 10.7111 13.0804 10.7925 12.0136C10.7973 11.9504 10.8 11.8775 10.8006 11.7949C10.8128 10.0309 10.8132 8.41232 10.8113 6.03626C10.8113 6.00445 10.8119 5.96857 10.8124 5.93096C10.8134 5.86981 10.8144 5.80411 10.8132 5.74399L10.8142 5.74014L10.816 5.73812L10.8171 5.73737L10.8193 5.73658L10.821 5.73644L10.8249 5.73764C11.0393 5.87768 11.2585 6.01035 11.4825 6.13565C12.5586 6.73782 13.7618 7.03656 14.9957 7.07563C14.9986 7.07571 15 7.07432 15 7.07148V4.22822C15 4.22603 14.9992 4.22391 14.9977 4.22227C14.9962 4.22063 14.9941 4.21959 14.9919 4.21935C14.5003 4.16951 14.0203 4.06551 13.5517 3.90737C12.5786 3.57909 11.743 2.94451 11.2545 2.04679C11.0346 1.64235 10.8789 1.21186 10.7875 0.755312C10.7364 0.49982 10.7039 0.248049 10.6902 0Z" fill="white"/>
</svg>
