<svg width="17" height="14" viewBox="0 0 17 14" fill="none" xmlns="http://www.w3.org/2000/svg">
<path fill-rule="evenodd" clip-rule="evenodd" d="M9.99472 2.07011C8.51694 2.68477 5.56346 3.95696 1.13429 5.88668C0.41506 6.17269 0.038296 6.4525 0.00399727 6.72609C-0.0539679 7.18847 0.525058 7.37054 1.31354 7.61847C1.4208 7.6522 1.53193 7.68714 1.64585 7.72418C2.4216 7.97634 3.46512 8.27135 4.0076 8.28307C4.49968 8.2937 5.0489 8.09083 5.65526 7.67446C9.79358 4.88098 11.9298 3.46902 12.0639 3.43858C12.1585 3.4171 12.2896 3.3901 12.3785 3.46906C12.4673 3.54802 12.4586 3.69756 12.4492 3.73768C12.3918 3.98221 10.1189 6.09529 8.94271 7.18882C8.57602 7.52972 8.31592 7.77154 8.26274 7.82677C8.14363 7.95048 8.02224 8.0675 7.90557 8.17997C7.18489 8.87472 6.64444 9.39572 7.9355 10.2465C8.55593 10.6554 9.0524 10.9935 9.5477 11.3308C10.0886 11.6991 10.6281 12.0665 11.3261 12.5241C11.504 12.6407 11.6738 12.7618 11.8393 12.8797C12.4688 13.3285 13.0343 13.7316 13.733 13.6674C14.139 13.63 14.5584 13.2482 14.7713 12.1097C15.2747 9.41891 16.264 3.58885 16.4927 1.18642C16.5127 0.975931 16.4875 0.706554 16.4673 0.588304C16.447 0.470053 16.4047 0.30157 16.251 0.176848C16.069 0.0291394 15.788 -0.00200902 15.6623 9.75845e-05C15.0908 0.0102717 14.2141 0.31513 9.99472 2.07011Z" fill="#C7C7C7"/>
</svg>
