<svg width="33" height="33" viewBox="0 0 33 33" fill="none" xmlns="http://www.w3.org/2000/svg">
<path fill-rule="evenodd" clip-rule="evenodd" d="M0 5.15625C0 2.30853 2.30853 0 5.15625 0H27.8438C30.6915 0 33 2.30853 33 5.15625V27.8438C33 30.6915 30.6915 33 27.8438 33H5.15625C2.30853 33 0 30.6915 0 27.8438V5.15625ZM16.5 8.25C21.0375 8.25 24.75 11.9625 24.75 16.5C24.75 20.625 21.7594 24.1313 17.6344 24.75V18.8719H19.5938L20.0063 16.5H17.7375V14.9531C17.7375 14.3344 18.0469 13.7156 19.0781 13.7156H20.1094V11.6531C20.1094 11.6531 19.1812 11.4469 18.2531 11.4469C16.3969 11.4469 15.1594 12.5813 15.1594 14.6438V16.5H13.0969V18.8719H15.1594V24.6469C11.2406 24.0281 8.25 20.625 8.25 16.5C8.25 11.9625 11.9625 8.25 16.5 8.25Z" fill="#F0AC52"/>
</svg>
