<svg width="44" height="44" viewBox="0 0 44 44" fill="none" xmlns="http://www.w3.org/2000/svg">
<path fill-rule="evenodd" clip-rule="evenodd" d="M37.124 0H6.87402C3.07707 0 -0.000976562 3.07804 -0.000976562 6.875V37.125C-0.000976562 40.922 3.07707 44 6.87402 44H37.124C40.921 44 43.999 40.922 43.999 37.125V6.875C43.999 3.07804 40.921 0 37.124 0ZM26.2526 10.6667H26.0147L22.5132 10.6848C22.5054 10.6849 22.5015 10.6887 22.5015 10.6963C22.5 11.0317 22.4978 11.3667 22.4956 11.7013C22.4918 12.2757 22.4881 12.8489 22.4877 13.4214C22.4862 16.2955 22.4852 19.1697 22.4846 22.0439C22.4845 22.2185 22.4839 22.3939 22.4832 22.5722C22.482 22.8877 22.4807 23.2124 22.4828 23.5581C22.4898 24.7102 22.4779 25.9351 22.42 27.1231C22.4028 27.4758 22.2521 27.7589 22.0757 28.0597C21.5445 28.9655 20.5638 29.6125 19.4912 29.664C19.4712 29.665 19.451 29.666 19.4307 29.667C19.2802 29.6744 19.1223 29.6823 18.9893 29.6756C17.5598 29.6036 16.3016 28.4576 16.0307 27.0856C16.0163 27.0124 16.0077 26.9298 16.0049 26.8379C16.004 26.8055 16.003 26.7731 16.002 26.7407C15.9891 26.33 15.9761 25.9161 16.1133 25.5169C16.5317 24.3005 17.5739 23.4054 18.8892 23.2813C19.3835 23.2346 19.8662 23.2854 20.3373 23.4337L20.3396 23.4339L20.3418 23.433L20.3434 23.4312L20.3439 23.429C20.3472 22.8949 20.3557 22.3608 20.3642 21.8267C20.3778 20.9699 20.3914 20.1131 20.3834 19.2562C20.3833 19.252 20.3818 19.2479 20.379 19.2446C20.3762 19.2414 20.3724 19.2392 20.3681 19.2384C18.1248 18.8435 15.8435 19.5861 14.2036 21.1143C12.9902 22.2451 12.2157 23.7922 12.0224 25.4232C12.0116 25.514 12.0051 25.611 12.0029 25.7144C11.9946 26.1098 11.9995 26.5051 12.0176 26.9003C12.023 27.0176 12.034 27.1345 12.0507 27.2508C12.5324 30.6235 15.4866 33.251 18.9583 33.3333H19.2004C19.3104 33.3285 19.4205 33.3242 19.5305 33.3205C21.6381 33.25 23.677 32.1841 24.9347 30.5236C25.7957 29.3868 26.2805 28.1072 26.389 26.6848C26.3955 26.6006 26.3991 26.5034 26.3999 26.3932C26.416 24.0412 26.4166 21.8831 26.4141 18.715C26.4141 18.6726 26.4148 18.6248 26.4156 18.5746C26.4168 18.4931 26.4182 18.4055 26.4166 18.3253L26.418 18.3202L26.4203 18.3175L26.4218 18.3165L26.4247 18.3154L26.4271 18.3153L26.4322 18.3168C26.7181 18.5036 27.0104 18.6805 27.309 18.8475C28.7438 19.6504 30.3481 20.0487 31.9932 20.1008C31.9971 20.1009 31.999 20.0991 31.999 20.0953V16.3043C31.999 16.3014 31.9979 16.2985 31.9959 16.2964C31.9939 16.2942 31.9912 16.2928 31.9882 16.2925C31.3328 16.226 30.6927 16.0874 30.068 15.8765C28.7705 15.4388 27.6563 14.5927 27.005 13.3957C26.7118 12.8565 26.5042 12.2825 26.3824 11.6737C26.3142 11.3331 26.2709 10.9974 26.2526 10.6667Z" fill="#F0AC52"/>
</svg>
