<svg width="33" height="33" viewBox="0 0 33 33" fill="none" xmlns="http://www.w3.org/2000/svg">
<path fill-rule="evenodd" clip-rule="evenodd" d="M0 5.15625C0 2.30853 2.30853 0 5.15625 0H27.8438C30.6915 0 33 2.30853 33 5.15625V27.8438C33 30.6915 30.6915 33 27.8438 33H5.15625C2.30853 33 0 30.6915 0 27.8438V5.15625ZM22.7906 11.8594C23.5125 11.7562 24.1313 11.6531 24.75 11.3438C24.3375 12.0656 23.7188 12.6844 22.9969 13.0969C23.2031 17.9438 19.6969 23.2031 13.4062 23.2031C11.55 23.2031 9.79688 22.5844 8.25 21.6562C10.0031 21.8625 11.8594 21.3469 13.0969 20.4187C11.55 20.4187 10.3125 19.3875 9.9 18.0469C10.4156 18.15 10.9313 18.0469 11.4469 17.9438C9.9 17.5312 8.76562 16.0875 8.76562 14.5406C9.28125 14.7469 9.79688 14.9531 10.3125 14.9531C8.86875 13.9219 8.35313 11.9625 9.28125 10.4156C11.0344 12.4781 13.5094 13.8187 16.2938 13.9219C15.7781 11.8594 17.4281 9.79688 19.5938 9.79688C20.5219 9.79688 21.45 10.2094 22.0688 10.8281C22.8937 10.6219 23.6156 10.4156 24.2344 10.0031C24.0281 10.8281 23.5125 11.4469 22.7906 11.8594Z" fill="#F0AC52"/>
</svg>
