<svg width="44" height="44" viewBox="0 0 44 44" fill="none" xmlns="http://www.w3.org/2000/svg">
<path d="M21.9115 24.5104C22.5365 24.9935 23.2344 25.3815 24.0208 25.6602C24.099 25.6875 24.1823 25.6901 24.2656 25.6667C24.3177 25.6523 24.3646 25.6276 24.4062 25.5937L24.4687 25.5312L25.526 24.2161C25.5781 24.1536 25.6458 24.1094 25.724 24.0924C25.8021 24.0742 25.8854 24.0833 25.9583 24.1185L28.5677 25.3724C28.6198 25.3971 28.6615 25.4336 28.6927 25.4805C28.724 25.5273 28.7448 25.5807 28.75 25.6367C28.9115 27.5404 27.1198 28.6693 25.4062 28.3893C24.2135 28.1979 23.0833 27.8021 22.0156 27.2031C20.625 26.4232 19.25 25.151 18.2031 23.7448C17.6823 23.0443 17.2396 22.3099 16.9115 21.5872C16.4687 20.6042 16.4062 19.6927 16.7187 18.849C16.8906 18.3867 17.1771 17.944 17.5781 17.5234C17.849 17.237 18.4271 17.0326 18.9115 17.082C19.224 17.1146 19.4948 17.2513 19.6198 17.5378L19.9948 18.3919C20.2344 18.9505 20.4635 19.5117 20.6823 20.0781C20.7135 20.1458 20.7083 20.2135 20.6771 20.2799C20.4583 20.7409 20.1667 21.1484 19.7917 21.5026C19.724 21.5664 19.6823 21.651 19.6667 21.7422C19.6562 21.8333 19.6771 21.9271 19.724 22.0052C20.3333 22.9948 21.0521 23.8424 21.9115 24.5104Z" fill="#F0AC52"/>
<path fill-rule="evenodd" clip-rule="evenodd" d="M37.125 0H6.875C3.07812 0 0 3.07812 0 6.875V37.125C0 40.9219 3.07812 44 6.875 44H37.125C40.9219 44 44 40.9219 44 37.125V6.875C44 3.07812 40.9219 0 37.125 0ZM34.6667 23.1315V22.1823C34.5365 19.7799 33.8281 17.6602 32.5365 15.8229C27.0104 7.96224 14.9792 9.31771 11.5 18.3281C10.5573 20.763 10.4167 23.2057 11.0625 25.6589C11.3229 26.6445 11.7135 27.6315 12.2292 28.6198C12.2552 28.6732 12.2604 28.7292 12.25 28.7878L10.6875 34.5573V34.6003L10.7083 34.638L10.75 34.6602L10.7917 34.6615L16.8073 33.2383C16.8698 33.2227 16.9375 33.2305 17 33.2604C21.3021 35.4232 26.1354 35.1081 29.9323 32.1966C32.7917 30.0026 34.3698 26.9818 34.6667 23.1315Z" fill="#F0AC52"/>
</svg>
