<svg width="20" height="20" viewBox="0 0 20 20" fill="none" xmlns="http://www.w3.org/2000/svg">
<path fill-rule="evenodd" clip-rule="evenodd" d="M1.64446 1.63798C1.24697 2.03391 0.881256 2.40517 0.596153 2.69698C0.261982 3.03901 0.263171 3.58295 0.597441 3.92488C1.17102 4.51161 2.10299 5.46117 3.15002 6.51312C4.88256 8.25375 6.36409 9.74803 6.44242 9.83361L6.5848 9.98932L3.30691 13.2683C2.19749 14.3781 1.20666 15.3802 0.608595 15.9868C0.275327 16.3249 0.268637 16.8636 0.597063 17.2064C0.888494 17.5105 1.26766 17.9012 1.68377 18.317L2.73919 19.3718C3.08634 19.7188 3.649 19.7187 3.99607 19.3717L6.64751 16.7204C8.45135 14.9167 9.95094 13.4331 9.97979 13.4234C10.0087 13.4138 11.5021 14.8714 13.2984 16.6624C14.4067 17.7676 15.4096 18.7532 16.0153 19.3461C16.3515 19.6753 16.8848 19.6831 17.2266 19.3597C17.6158 18.9915 18.1283 18.497 18.5721 18.0367L19.3747 17.23C19.7203 16.8826 19.7196 16.3211 19.3731 15.9746L13.3855 9.98705L13.8492 9.51801C14.1043 9.26 15.5541 7.80223 17.0711 6.27851C18.1174 5.22754 19.0715 4.25979 19.5628 3.76045C19.7794 3.54021 19.8185 3.24138 19.6199 3.00475C19.4066 2.75072 19.038 2.34501 18.4014 1.70596C17.9622 1.26498 17.5358 0.84922 17.2198 0.544386C16.9186 0.253656 16.4675 0.233969 16.1572 0.514998C15.681 0.946175 14.8212 1.75763 13.3162 3.2601C11.5139 5.05936 10.0266 6.54331 10.0111 6.55771C9.99565 6.57217 8.50059 5.10262 6.68873 3.29198C5.57001 2.17404 4.55674 1.1816 3.94521 0.585889C3.60696 0.256394 3.0715 0.25194 2.73038 0.578457C2.43143 0.864607 2.04912 1.2349 1.64446 1.63798Z" fill="white"/>
</svg>
