<svg width="52" height="76" viewBox="0 0 52 76" fill="none" xmlns="http://www.w3.org/2000/svg">
<path opacity="0.981" fill-rule="evenodd" clip-rule="evenodd" d="M22.9776 0.0486383C35.3322 -0.56028 44.3063 4.54823 49.8998 15.3741C52.4507 21.0797 52.6779 26.8644 50.5813 32.728C46.8399 41.4291 42.4474 49.7679 37.4042 57.7446C33.5767 63.8379 29.7522 69.923 25.9311 76C19.098 65.377 12.5472 54.5589 6.27898 43.546C3.66696 38.8907 1.62223 34.0075 0.144804 28.8966C-0.865744 17.7174 3.41296 9.1907 12.9811 3.31658C16.1527 1.65421 19.4849 0.564882 22.9776 0.0486383ZM24.3407 13.1204C31.3871 12.9115 35.8929 16.142 37.8586 22.8115C38.6424 28.2041 36.7872 32.4488 32.2924 35.5452C26.517 38.4523 21.3295 37.6635 16.7298 33.1788C12.5356 27.511 12.7249 21.9893 17.2978 16.6137C19.3579 14.8407 21.7055 13.6762 24.3407 13.1204Z" fill="#F0AC52"/>
</svg>
