<svg width="26" height="18" viewBox="0 0 26 18" fill="none" xmlns="http://www.w3.org/2000/svg">
<g clip-path="url(#clip0_0_810)">
<rect width="26" height="18" fill="white"/>
<path fill-rule="evenodd" clip-rule="evenodd" d="M6.5 -0.749756H20.3125V18.7502H6.5V-0.749756Z" fill="#F7FCFF"/>
<path fill-rule="evenodd" clip-rule="evenodd" d="M14.3577 6.07731L13 4.12524V15.5002L12.9781 4.12531L11.6423 6.07737L10.6184 5.49355L11.1896 8.60331H10.6184L9.34767 7.24568L8.71043 7.95262L7.0262 7.70249C7.0262 7.70249 7.88238 9.24389 7.45429 9.5038C7.0262 9.7637 6.5 9.77044 6.5 9.77044L9.83586 12.0424C9.83586 12.0424 9.65743 12.6792 9.34767 13.0264C9.0379 13.3736 12.7849 12.6853 12.7849 12.6853L12.4433 15.5003H13V15.5002H13.5567L13.2151 12.6853C13.2151 12.6853 16.9621 13.3735 16.6523 13.0263C16.3426 12.6792 16.1641 12.0423 16.1641 12.0423L19.5 9.77038C19.5 9.77038 18.9738 9.76364 18.5457 9.50374C18.1176 9.24383 18.9738 7.70243 18.9738 7.70243L17.2896 7.95256L16.6523 7.24562L15.3816 8.60325H14.8104L15.3816 5.49349L14.3577 6.07731Z" fill="#E31D1C"/>
<path fill-rule="evenodd" clip-rule="evenodd" d="M19.5 -0.749756H26V18.7502H19.5V-0.749756Z" fill="#E31D1C"/>
<path fill-rule="evenodd" clip-rule="evenodd" d="M0 -0.749756H6.5V18.7502H0V-0.749756Z" fill="#E31D1C"/>
</g>
<defs>
<clipPath id="clip0_0_810">
<rect width="26" height="18" fill="white"/>
</clipPath>
</defs>
</svg>
