<svg width="26" height="18" viewBox="0 0 26 18" fill="none" xmlns="http://www.w3.org/2000/svg">
<g clip-path="url(#clip0_0_696)">
<rect width="26" height="18" rx="2" fill="white"/>
<path fill-rule="evenodd" clip-rule="evenodd" d="M0 -0.749756H26V18.7502H0V-0.749756Z" fill="#E31D1C"/>
<path fill-rule="evenodd" clip-rule="evenodd" d="M5.77977 7.17634L2.61647 9.65563L3.82438 5.90626L1.71484 3.95664L4.57127 3.85122L5.77977 0.833252L6.98827 3.85122H9.83984L7.73517 5.90626L8.69394 9.65563L5.77977 7.17634Z" fill="#FECA00"/>
<path fill-rule="evenodd" clip-rule="evenodd" d="M12.2003 4.26475L10.8729 5.06609L11.1757 3.50234L10.0703 2.33203L11.5671 2.26875L12.2003 0.808594L12.8336 2.26875H14.3278L13.225 3.50234L13.557 5.06609L12.2003 4.26475Z" fill="#FECA00"/>
<path fill-rule="evenodd" clip-rule="evenodd" d="M13.8253 7.51475L12.4979 8.31609L12.8007 6.75234L11.6953 5.58203L13.1921 5.51875L13.8253 4.05859L14.4586 5.51875H15.9528L14.85 6.75234L15.182 8.31609L13.8253 7.51475Z" fill="#FECA00"/>
<path fill-rule="evenodd" clip-rule="evenodd" d="M12.2003 10.7647L10.8729 11.5661L11.1757 10.0023L10.0703 8.83203L11.5671 8.76875L12.2003 7.30859L12.8336 8.76875H14.3278L13.225 10.0023L13.557 11.5661L12.2003 10.7647Z" fill="#FECA00"/>
<path fill-rule="evenodd" clip-rule="evenodd" d="M8.95034 12.3897L7.62294 13.1911L7.92571 11.6273L6.82031 10.457L8.31708 10.3938L8.95034 8.93359L9.58359 10.3938H11.0778L9.97496 11.6273L10.307 13.1911L8.95034 12.3897Z" fill="#FECA00"/>
</g>
<defs>
<clipPath id="clip0_0_696">
<rect width="26" height="18" rx="2" fill="white"/>
</clipPath>
</defs>
</svg>
