<svg width="26" height="18" viewBox="0 0 26 18" fill="none" xmlns="http://www.w3.org/2000/svg">
<g clip-path="url(#clip0_0_741)">
<rect width="26" height="18" rx="2" fill="white"/>
<path fill-rule="evenodd" clip-rule="evenodd" d="M0 -0.749756V18.7502H26V-0.749756H0Z" fill="#FFB400"/>
<mask id="mask0_0_741" style="mask-type:luminance" maskUnits="userSpaceOnUse" x="0" y="-1" width="26" height="20">
<path fill-rule="evenodd" clip-rule="evenodd" d="M0 -0.749756V18.7502H26V-0.749756H0Z" fill="white"/>
</mask>
<g mask="url(#mask0_0_741)">
<path fill-rule="evenodd" clip-rule="evenodd" d="M0 -0.749756V4.12524H26V-0.749756H0Z" fill="#C51918"/>
<path fill-rule="evenodd" clip-rule="evenodd" d="M0 13.8752V18.7502H26V13.8752H0Z" fill="#C51918"/>
<rect x="4.06934" y="7.59619" width="0.91" height="4.732" fill="#F1F9FF"/>
<path fill-rule="evenodd" clip-rule="evenodd" d="M5.34308 6.77698H3.70508V7.23198H3.97809V7.59624H5.07009V7.23198H5.34308V6.77698Z" fill="#C88A02"/>
<path fill-rule="evenodd" clip-rule="evenodd" d="M5.07008 12.6012H5.34308V13.0562H3.70508V12.6012H3.97808V12.2372H5.07008V12.6012Z" fill="#C88A02"/>
<path fill-rule="evenodd" clip-rule="evenodd" d="M4.5247 6.86831C4.72273 6.86831 4.74286 6.79374 4.85969 6.68237C4.95041 6.59589 5.1617 6.48863 5.1617 6.36781C5.1617 6.09139 4.8765 5.86731 4.5247 5.86731C4.17289 5.86731 3.8877 6.09139 3.8877 6.36781C3.8877 6.50241 4.0332 6.59242 4.14321 6.68237C4.25912 6.77714 4.34421 6.86831 4.5247 6.86831Z" fill="#AD1619"/>
<path fill-rule="evenodd" clip-rule="evenodd" d="M3.70508 13.0564H5.34308V13.7844C5.34308 13.7844 5.13833 13.6934 4.93358 13.6934C4.72883 13.6934 4.52408 13.7844 4.52408 13.7844C4.52408 13.7844 4.31933 13.6934 4.11458 13.6934C3.90983 13.6934 3.70508 13.7844 3.70508 13.7844V13.0564Z" fill="#005BBF"/>
<mask id="mask1_0_741" style="mask-type:luminance" maskUnits="userSpaceOnUse" x="3" y="13" width="3" height="1">
<path fill-rule="evenodd" clip-rule="evenodd" d="M3.70508 13.0564H5.34308V13.7844C5.34308 13.7844 5.13833 13.6934 4.93358 13.6934C4.72883 13.6934 4.52408 13.7844 4.52408 13.7844C4.52408 13.7844 4.31933 13.6934 4.11458 13.6934C3.90983 13.6934 3.70508 13.7844 3.70508 13.7844V13.0564Z" fill="white"/>
</mask>
<g mask="url(#mask1_0_741)">
</g>
<rect x="12.9873" y="7.59619" width="0.91" height="4.732" fill="#F1F9FF"/>
<path fill-rule="evenodd" clip-rule="evenodd" d="M14.261 6.77698H12.623V7.23198H12.8961V7.59624H13.9881V7.23198H14.261V6.77698Z" fill="#C88A02"/>
<path fill-rule="evenodd" clip-rule="evenodd" d="M13.988 12.6012H14.261V13.0562H12.623V12.6012H12.896V12.2372H13.988V12.6012Z" fill="#C88A02"/>
<path fill-rule="evenodd" clip-rule="evenodd" d="M13.4427 6.86831C13.6407 6.86831 13.6608 6.79374 13.7777 6.68237C13.8684 6.59589 14.0797 6.48863 14.0797 6.36781C14.0797 6.09139 13.7945 5.86731 13.4427 5.86731C13.0909 5.86731 12.8057 6.09139 12.8057 6.36781C12.8057 6.50241 12.9512 6.59242 13.0612 6.68237C13.1771 6.77714 13.2622 6.86831 13.4427 6.86831Z" fill="#AD1619"/>
<path fill-rule="evenodd" clip-rule="evenodd" d="M12.624 13.0564H14.262V13.7844C14.262 13.7844 14.0573 13.6934 13.8525 13.6934C13.6478 13.6934 13.443 13.7844 13.443 13.7844C13.443 13.7844 13.2383 13.6934 13.0335 13.6934C12.8288 13.6934 12.624 13.7844 12.624 13.7844V13.0564Z" fill="#005BBF"/>
<mask id="mask2_0_741" style="mask-type:luminance" maskUnits="userSpaceOnUse" x="12" y="13" width="3" height="1">
<path fill-rule="evenodd" clip-rule="evenodd" d="M12.624 13.0564H14.262V13.7844C14.262 13.7844 14.0573 13.6934 13.8525 13.6934C13.6478 13.6934 13.443 13.7844 13.443 13.7844C13.443 13.7844 13.2383 13.6934 13.0335 13.6934C12.8288 13.6934 12.624 13.7844 12.624 13.7844V13.0564Z" fill="white"/>
</mask>
<g mask="url(#mask2_0_741)">
</g>
<path fill-rule="evenodd" clip-rule="evenodd" d="M4.05298 11.9902C4.21705 11.7912 4.30879 11.6103 4.30879 11.4181C4.30879 11.2969 4.27273 11.1922 4.20955 11.1067L4.22022 11.1019C4.21924 11.1024 4.40021 11.0235 4.46321 10.9933C4.58034 10.9371 4.68352 10.8777 4.78413 10.8045C4.84836 10.7578 4.93442 10.7069 5.06561 10.6365C5.08827 10.6243 5.14968 10.5917 5.18888 10.5709L5.22217 10.5532C5.28593 10.5192 5.33341 10.4931 5.37752 10.4675C5.51497 10.3878 5.6058 10.3219 5.67527 10.2338C5.83982 10.0252 5.80566 9.74231 5.57507 9.58532C5.4621 9.50841 5.30966 9.46427 5.0862 9.42953L5.03992 9.42237L4.76659 9.37999C4.65966 9.36321 4.56425 9.34753 4.47917 9.33267C5.03863 9.23958 5.83751 9.27379 6.18892 9.45522L6.5229 8.80836C5.80681 8.43863 4.1752 8.47639 3.56572 8.89612C3.11868 9.20398 3.17867 9.66935 3.64379 9.86974C3.83814 9.95348 4.0915 10.009 4.56035 10.0844C4.48178 10.1299 4.41664 10.1716 4.35595 10.2157C4.2944 10.2605 4.22845 10.2985 4.14846 10.3369C4.1102 10.3552 3.9969 10.405 3.94499 10.4277L3.94499 10.4277L3.91889 10.4392C3.54003 10.6115 3.35616 10.8498 3.41111 11.28L3.44085 11.5129L3.4942 11.5293L4.05298 11.9902ZM3.58483 11.3882L3.58368 11.3915L3.58456 11.3891L3.58483 11.3882ZM13.5741 11.4182C13.5741 11.6104 13.6659 11.7914 13.83 11.9903L14.3887 11.5294L14.4421 11.513L14.4718 11.2801C14.5268 10.8499 14.3429 10.6116 13.964 10.4394L13.938 10.4279C13.8861 10.4051 13.7727 10.3553 13.7345 10.337C13.6545 10.2986 13.5885 10.2606 13.527 10.2158C13.4663 10.1717 13.4012 10.1301 13.3226 10.0845C13.7914 10.0092 14.0448 9.9536 14.2391 9.86987C14.7043 9.66947 14.7643 9.2041 14.3172 8.89624C13.7077 8.47651 12.0761 8.43875 11.36 8.80848L11.694 9.45535C12.0454 9.27391 12.8443 9.2397 13.4038 9.3328C13.3187 9.34765 13.2233 9.36333 13.1163 9.38012L12.8431 9.42249L12.7967 9.42965C12.5733 9.46439 12.4208 9.50853 12.3079 9.58544C12.0773 9.74243 12.0431 10.0253 12.2077 10.2339C12.2771 10.322 12.368 10.3879 12.5054 10.4677C12.5495 10.4932 12.597 10.5193 12.6608 10.5533L12.6942 10.5711C12.7334 10.5919 12.7947 10.6244 12.8173 10.6366C12.9485 10.707 13.0346 10.7579 13.0988 10.8046C13.1994 10.8778 13.3026 10.9373 13.4197 10.9934C13.4827 11.0236 13.6637 11.1025 13.6627 11.1021L13.6734 11.1069C13.6102 11.1924 13.5741 11.297 13.5741 11.4182Z" fill="#AD1619"/>
<path d="M4.81306 9.3252L5.08166 9.38076V9.78111C4.79559 10.0094 4.06934 10.3941 4.06934 10.3941V9.3252H4.81306Z" fill="#F1F9FF"/>
<path d="M13.2553 9.3252L12.9867 9.38076V9.78111C13.2728 10.0094 13.999 10.3941 13.999 10.3941V9.3252H13.2553Z" fill="#F1F9FF"/>
<path fill-rule="evenodd" clip-rule="evenodd" d="M7.52615 4.46767C6.75776 4.46767 6.05566 4.97155 6.05566 4.97155V5.10479L6.97349 6.0266C6.97349 6.0266 7.23172 6.91344 9.03991 6.70546C9.04059 6.70698 9.04095 6.70775 9.04095 6.70775C9.04095 6.70775 10.2389 6.67505 10.323 6.64706C10.3564 6.63595 10.3911 6.62584 10.4265 6.61551C10.6611 6.547 10.9289 6.4688 11.0884 6.02678L12.0062 5.10498V4.97174C11.5381 4.63581 11.048 4.46785 10.5357 4.46785C10.0447 4.25055 9.54767 4.16619 9.04466 4.21476C9.04481 4.2131 9.04488 4.21225 9.04488 4.21225C8.28846 4.13824 7.52615 4.46767 7.52615 4.46767ZM9.04028 4.26551C9.03652 4.30997 9.03073 4.38042 9.02391 4.46985C9.03255 4.40503 9.03839 4.33712 9.04028 4.26551Z" fill="#AD1619"/>
<path fill-rule="evenodd" clip-rule="evenodd" d="M6.11035 5.26159L6.17271 5.19531L7.00593 5.97923C7.16402 5.93673 8.02265 5.71791 8.98178 5.70711V5.7067L9.01837 5.7068L9.05496 5.7067V5.70711C10.1175 5.71908 11.0568 5.98635 11.0568 5.98635C11.0568 5.98635 11.0466 6.07323 11.022 6.17512C11.048 6.12178 11.0788 6.06247 11.1144 5.99698L11.1232 5.9856L11.9632 5.19531L12.0256 5.26159L11.1909 6.04688C11.0691 6.27116 11.0078 6.41919 11.0078 6.48068C11.0078 6.57449 10.7637 6.63017 10.2874 6.68736C9.91425 6.73216 9.47391 6.76223 9.11369 6.76673V6.76732L9.06796 6.76717L9.02224 6.76732V6.76673C8.66202 6.76223 8.22167 6.73216 7.84854 6.68736C7.3722 6.63017 7.12814 6.57449 7.12814 6.48068C7.12814 6.46904 7.12594 6.45431 7.12156 6.43655C7.07344 6.37536 7.03962 6.27513 7.01714 6.18476C6.99608 6.14262 6.97205 6.09663 6.94503 6.04688L6.11035 5.26159ZM10.7683 6.48231C10.8323 6.51223 10.8835 6.48221 10.9239 6.42477C10.9204 6.4408 10.9181 6.45527 10.9172 6.46822C10.9119 6.47172 10.9037 6.47592 10.893 6.48044C10.863 6.49304 10.8172 6.50646 10.7577 6.52005C10.6406 6.54675 10.474 6.5733 10.2765 6.59701C9.89095 6.6433 9.43247 6.67377 9.06796 6.67617C8.70346 6.67377 8.24497 6.6433 7.85939 6.59701C7.66193 6.5733 7.49531 6.54675 7.37825 6.52005C7.32819 6.50863 7.28786 6.49732 7.25847 6.48652C7.26175 6.48528 7.26507 6.48388 7.26842 6.48231C7.46718 6.3893 8.78137 6.30202 9.01837 6.28694C9.25537 6.30202 10.5696 6.3893 10.7683 6.48231ZM11.0195 6.46564L11.0181 6.46723L11.0189 6.46607L11.0195 6.46564Z" fill="#C88A02"/>
<path fill-rule="evenodd" clip-rule="evenodd" d="M9.02984 3.59458C9.18061 3.59458 9.30284 3.47236 9.30284 3.32158C9.30284 3.17081 9.18061 3.04858 9.02984 3.04858C8.87906 3.04858 8.75684 3.17081 8.75684 3.32158C8.75684 3.47236 8.87906 3.59458 9.02984 3.59458Z" fill="#005BBF"/>
<path fill-rule="evenodd" clip-rule="evenodd" d="M8.92792 2.5625H9.1175V2.68231H9.24101V2.8719H9.1175V3.25082H9.24101V3.44041H8.80176V3.25082H8.92792V2.8719H8.80176V2.68231H8.92792V2.5625Z" fill="#C88A02"/>
<rect x="8.89258" y="3.59204" width="0.364" height="1.183" fill="#C88A02"/>
<path d="M6.26355 5.17872L5.76367 5.15992C5.99952 3.79688 7.16104 3.12903 9.01714 3.12903C10.8756 3.12903 12.0331 3.79977 12.2512 5.16788L11.5751 5.23879C11.469 4.57302 10.3538 3.97052 9.02691 3.97052C7.69757 3.97052 6.37962 4.50788 6.26355 5.17872Z" fill="#C88A02"/>
<path opacity="0.3" fill-rule="evenodd" clip-rule="evenodd" d="M6.07129 6.77734H11.9863V12.0918C11.9863 12.0918 11.5469 13.8753 9.02879 13.8753C6.51067 13.8753 6.07129 12.0447 6.07129 12.0447V6.77734Z" fill="#E1E5E8"/>
<mask id="mask3_0_741" style="mask-type:luminance" maskUnits="userSpaceOnUse" x="6" y="6" width="6" height="8">
<path fill-rule="evenodd" clip-rule="evenodd" d="M6.07129 6.77734H11.9863V12.0918C11.9863 12.0918 11.5469 13.8753 9.02879 13.8753C6.51067 13.8753 6.07129 12.0447 6.07129 12.0447V6.77734Z" fill="white"/>
</mask>
<g mask="url(#mask3_0_741)">
<rect x="6.07129" y="10.0531" width="3.003" height="3.549" fill="#FFC034"/>
<rect x="6.07129" y="6.68604" width="3.003" height="3.458" fill="#AD1619"/>
<rect x="8.9834" y="9.96228" width="3.003" height="3.458" fill="#AD1619"/>
<rect x="8.9834" y="6.77734" width="3.185" height="3.367" fill="#F1F9FF"/>
<path fill-rule="evenodd" clip-rule="evenodd" d="M10.9544 13.4224C10.9544 13.4224 9.02704 13.5739 9.02704 12.3308C9.02704 12.3308 9.00866 13.4224 6.99609 13.4224V14.4037H10.9544V13.4224Z" fill="#F1F9FF"/>
<path fill-rule="evenodd" clip-rule="evenodd" d="M9.0282 10.7812C9.40514 10.7812 9.7107 10.4553 9.7107 10.0532C9.7107 9.65113 9.40514 9.3252 9.0282 9.3252C8.65127 9.3252 8.3457 9.65113 8.3457 10.0532C8.3457 10.4553 8.65127 10.7812 9.0282 10.7812Z" fill="#005BBF" stroke="#AD1619" stroke-width="0.947917"/>
</g>
<path fill-rule="evenodd" clip-rule="evenodd" d="M7.3125 9.00024C7.76123 9.00024 8.125 8.63648 8.125 8.18774C8.125 7.73901 7.76123 7.37524 7.3125 7.37524C6.86377 7.37524 6.5 7.73901 6.5 8.18774C6.5 8.63648 6.86377 9.00024 7.3125 9.00024Z" fill="#C88A02"/>
<path fill-rule="evenodd" clip-rule="evenodd" d="M10.5625 9.00024C11.0112 9.00024 11.375 8.63648 11.375 8.18774C11.375 7.73901 11.0112 7.37524 10.5625 7.37524C10.1138 7.37524 9.75 7.73901 9.75 8.18774C9.75 8.63648 10.1138 9.00024 10.5625 9.00024Z" fill="#C37C9C"/>
<path fill-rule="evenodd" clip-rule="evenodd" d="M10.5625 12.2502C11.0112 12.2502 11.375 11.8865 11.375 11.4377C11.375 10.989 11.0112 10.6252 10.5625 10.6252C10.1138 10.6252 9.75 10.989 9.75 11.4377C9.75 11.8865 10.1138 12.2502 10.5625 12.2502Z" fill="#FFC034"/>
<path d="M7.3125 12.2502C7.76123 12.2502 8.125 11.8865 8.125 11.4377C8.125 10.989 7.76123 10.6252 7.3125 10.6252C6.86377 10.6252 6.5 10.989 6.5 11.4377C6.5 11.8865 6.86377 12.2502 7.3125 12.2502Z" fill="#AD1619"/>
</g>
</g>
<defs>
<clipPath id="clip0_0_741">
<rect width="26" height="18" rx="2" fill="white"/>
</clipPath>
</defs>
</svg>
