<svg width="26" height="18" viewBox="0 0 26 18" fill="none" xmlns="http://www.w3.org/2000/svg">
<g clip-path="url(#clip0_0_756)">
<rect width="26" height="18" rx="2" fill="white"/>
<path fill-rule="evenodd" clip-rule="evenodd" d="M0 -0.749756V18.7502H26V-0.749756H0Z" fill="#2E42A5"/>
<mask id="mask0_0_756" style="mask-type:luminance" maskUnits="userSpaceOnUse" x="0" y="-1" width="26" height="20">
<path fill-rule="evenodd" clip-rule="evenodd" d="M0 -0.749756V18.7502H26V-0.749756H0Z" fill="white"/>
</mask>
<g mask="url(#mask0_0_756)">
<path d="M-2.89551 17.3568L2.82587 19.7765L26.1294 1.88067L29.1473 -1.71503L23.0291 -2.52376L13.5241 5.18806L5.87363 10.384L-2.89551 17.3568Z" fill="white"/>
<path d="M-2.1123 19.0519L0.802471 20.4561L28.0635 -2.04933H23.9708L-2.1123 19.0519Z" fill="#F50100"/>
<path d="M28.8945 17.3568L23.1732 19.7765L-0.130346 1.88067L-3.14824 -1.71503L2.96994 -2.52376L12.4749 5.18806L20.1254 10.384L28.8945 17.3568Z" fill="white"/>
<path d="M28.6992 18.5734L25.7844 19.9775L14.1764 10.3418L10.7349 9.26524L-3.43872 -1.70286H0.653963L14.8196 9.0049L18.5823 10.2958L28.6992 18.5734Z" fill="#F50100"/>
<mask id="path-8-inside-1_0_756" fill="white">
<path fill-rule="evenodd" clip-rule="evenodd" d="M16.0683 -2.37488H9.92938V5.75012H-1.60352V12.2501H9.92938V20.3751H16.0683V12.2501H27.6465V5.75012H16.0683V-2.37488Z"/>
</mask>
<path fill-rule="evenodd" clip-rule="evenodd" d="M16.0683 -2.37488H9.92938V5.75012H-1.60352V12.2501H9.92938V20.3751H16.0683V12.2501H27.6465V5.75012H16.0683V-2.37488Z" fill="#F50100"/>
<path d="M9.92938 -2.37488V-3.99988H8.30438V-2.37488H9.92938ZM16.0683 -2.37488H17.6933V-3.99988H16.0683V-2.37488ZM9.92938 5.75012V7.37512H11.5544V5.75012H9.92938ZM-1.60352 5.75012V4.12512H-3.22852V5.75012H-1.60352ZM-1.60352 12.2501H-3.22852V13.8751H-1.60352V12.2501ZM9.92938 12.2501H11.5544V10.6251H9.92938V12.2501ZM9.92938 20.3751H8.30438V22.0001H9.92938V20.3751ZM16.0683 20.3751V22.0001H17.6933V20.3751H16.0683ZM16.0683 12.2501V10.6251H14.4433V12.2501H16.0683ZM27.6465 12.2501V13.8751H29.2715V12.2501H27.6465ZM27.6465 5.75012H29.2715V4.12512H27.6465V5.75012ZM16.0683 5.75012H14.4433V7.37512H16.0683V5.75012ZM9.92938 -0.749878H16.0683V-3.99988H9.92938V-0.749878ZM11.5544 5.75012V-2.37488H8.30438V5.75012H11.5544ZM-1.60352 7.37512H9.92938V4.12512H-1.60352V7.37512ZM0.0214844 12.2501V5.75012H-3.22852V12.2501H0.0214844ZM9.92938 10.6251H-1.60352V13.8751H9.92938V10.6251ZM11.5544 20.3751V12.2501H8.30438V20.3751H11.5544ZM16.0683 18.7501H9.92938V22.0001H16.0683V18.7501ZM14.4433 12.2501V20.3751H17.6933V12.2501H14.4433ZM27.6465 10.6251H16.0683V13.8751H27.6465V10.6251ZM26.0215 5.75012V12.2501H29.2715V5.75012H26.0215ZM16.0683 7.37512H27.6465V4.12512H16.0683V7.37512ZM14.4433 -2.37488V5.75012H17.6933V-2.37488H14.4433Z" fill="white" mask="url(#path-8-inside-1_0_756)"/>
</g>
</g>
<defs>
<clipPath id="clip0_0_756">
<rect width="26" height="18" rx="2" fill="white"/>
</clipPath>
</defs>
</svg>
