<svg width="26" height="18" viewBox="0 0 26 18" fill="none" xmlns="http://www.w3.org/2000/svg">
<g clip-path="url(#clip0_0_792)">
<rect width="26" height="18" rx="2" fill="white"/>
<path fill-rule="evenodd" clip-rule="evenodd" d="M0 -0.749756V18.7502H26V-0.749756H0Z" fill="#EA1A1A"/>
<mask id="mask0_0_792" style="mask-type:luminance" maskUnits="userSpaceOnUse" x="0" y="-1" width="26" height="20">
<path fill-rule="evenodd" clip-rule="evenodd" d="M0 -0.749756V18.7502H26V-0.749756H0Z" fill="white"/>
</mask>
<g mask="url(#mask0_0_792)">
<path fill-rule="evenodd" clip-rule="evenodd" d="M12.894 8.65459C12.894 8.65459 8.18987 4.45944 13.8033 2.01514C13.8033 2.01514 15.4358 3.81614 14.2111 5.83801C13.8093 6.50115 13.4705 6.97468 13.2158 7.33055C12.694 8.05963 12.5258 8.29478 12.894 8.65459ZM5.95137 5.64245C5.62829 11.7564 11.4839 9.42428 11.4839 9.42428C10.9977 9.59271 10.8626 9.33706 10.4438 8.54471C10.2393 8.1578 9.96716 7.64293 9.55349 6.98697C8.29254 4.98744 5.95137 5.64245 5.95137 5.64245ZM14.8185 8.85958C14.8185 8.85958 20.8569 10.6673 16.8074 15.2593C16.8074 15.2593 14.5655 14.3191 14.8185 11.969C14.9015 11.1984 15.0079 10.626 15.0878 10.1958C15.2516 9.3141 15.3044 9.02963 14.8185 8.85958ZM13.2314 10.269C13.2314 10.269 14.3139 16.4784 8.39612 14.9092C8.39612 14.9092 8.23502 12.4835 10.4503 11.6593C11.1769 11.3888 11.7366 11.228 12.1571 11.1071L12.1571 11.1071C13.0187 10.8595 13.2966 10.7796 13.2314 10.269ZM20.7014 7.59879C17.0001 2.72201 14.035 8.28386 14.035 8.28386C14.2976 7.84118 14.5659 7.94913 15.3971 8.28365C15.8032 8.44705 16.3435 8.66451 17.0832 8.89827C19.337 9.61058 20.7014 7.59879 20.7014 7.59879Z" fill="white"/>
<path d="M8.25586 7.54419C8.25586 7.54419 9.4387 9.40575 11.3758 9.40575" stroke="#EA1A1A" stroke-width="0.8125"/>
<path d="M12.8867 4.97827C12.8867 4.97827 11.8252 6.93659 12.7346 8.64693" stroke="#EA1A1A" stroke-width="0.8125"/>
<path d="M17.9648 7.18115C17.9648 7.18115 15.4866 6.80545 14.1904 8.24497" stroke="#EA1A1A" stroke-width="0.8125"/>
<path d="M16.5166 11.7178C16.5166 11.7178 16.022 9.26045 14.226 8.53481" stroke="#EA1A1A" stroke-width="0.8125"/>
<path d="M11.3213 13.0518C11.3213 13.0518 13.4613 11.7466 13.5289 9.81066" stroke="#EA1A1A" stroke-width="0.8125"/>
</g>
</g>
<defs>
<clipPath id="clip0_0_792">
<rect width="26" height="18" rx="2" fill="white"/>
</clipPath>
</defs>
</svg>
