<svg width="26" height="18" viewBox="0 0 26 18" fill="none" xmlns="http://www.w3.org/2000/svg">
<g clip-path="url(#clip0_0_726)">
<rect width="26" height="18" rx="2" fill="white"/>
<path fill-rule="evenodd" clip-rule="evenodd" d="M0 -0.749756V18.7502H26V-0.749756H0Z" fill="#F50101"/>
<mask id="mask0_0_726" style="mask-type:luminance" maskUnits="userSpaceOnUse" x="0" y="-1" width="26" height="20">
<path fill-rule="evenodd" clip-rule="evenodd" d="M0 -0.749756V18.7502H26V-0.749756H0Z" fill="white"/>
</mask>
<g mask="url(#mask0_0_726)">
<path fill-rule="evenodd" clip-rule="evenodd" d="M0 -0.749756V5.75024H26V-0.749756H0Z" fill="#F7FCFF"/>
<path fill-rule="evenodd" clip-rule="evenodd" d="M0 12.2502V18.7502H26V12.2502H0Z" fill="#5EAA22"/>
<rect y="-0.749756" width="9.75" height="19.5" fill="#F50101"/>
<path fill-rule="evenodd" clip-rule="evenodd" d="M8.7506 0.901919C8.75829 0.827804 8.66348 0.79929 8.62568 0.863503C8.33087 1.36432 7.59194 2.55564 6.37561 4.11355V3.36839C6.25957 3.24227 5.88963 2.90299 5.88963 2.90299V2.15848L6.55887 1.55285L5.63972 0.875266L4.67094 1.55285L5.4032 2.15848V2.90299C5.4032 3.26 4.95926 3.36839 4.95926 3.36839L4.87795 4.02534C3.74605 2.55556 3.04036 1.40954 2.74154 0.897339C2.70297 0.83124 2.60598 0.862375 2.61737 0.938048C2.70756 1.53698 2.9773 2.86588 3.72241 4.28475H3.52309V4.2586C3.52309 4.21958 3.49146 4.18795 3.45244 4.18795H1.73912C1.7001 4.18795 1.66847 4.21958 1.66847 4.2586V5.33605C1.66847 5.37507 1.7001 5.4067 1.73912 5.4067H3.45244C3.49146 5.4067 3.52309 5.37507 3.52309 5.33605V4.77012H3.73888C3.81201 4.93868 3.97981 5.05754 4.17611 5.06121C4.31344 5.2731 4.46238 5.48442 4.62389 5.69309C4.25178 5.6563 1.7978 5.44753 1.7978 6.34046C1.7978 6.87348 2.39474 7.15564 3.14343 7.30151C2.38942 7.9843 1.67773 8.62673 1.35029 8.92216C1.29716 8.97009 1.33869 9.05312 1.40814 9.03591C1.99288 8.89099 3.52559 8.44391 4.98469 7.44852L5.03051 7.44859C5.44139 7.44859 5.72719 7.27036 5.92583 7.02911C7.40984 8.24037 9.08869 8.7998 9.81747 9.00026C9.89309 9.02106 9.93397 8.92319 9.86954 8.87847C9.27757 8.46756 7.9427 7.47867 6.57779 6.04231L6.61355 6.00044C6.89201 5.67183 7.13465 5.33382 7.34606 4.9949C7.43466 4.94318 7.50521 4.86443 7.54612 4.77012H7.76191V5.33605C7.76191 5.37507 7.79354 5.4067 7.83256 5.4067H9.54588C9.5849 5.4067 9.61653 5.37507 9.61653 5.33605V4.2586C9.61653 4.21958 9.5849 4.18795 9.54588 4.18795H7.83256C7.81416 4.18795 7.7974 4.19498 7.78483 4.20651C8.48577 2.78801 8.69152 1.47171 8.7506 0.901919ZM7.76191 4.28475V4.2586C7.76191 4.25636 7.76201 4.25414 7.76222 4.25196L7.74571 4.28475H7.76191ZM4.58263 4.58109C4.58263 4.79822 4.4047 4.97424 4.18521 4.97424C3.96572 4.97424 3.78779 4.79822 3.78779 4.58109C3.78779 4.36397 3.96572 4.18795 4.18521 4.18795C4.4047 4.18795 4.58263 4.36397 4.58263 4.58109ZM6.70237 4.58119C6.70237 4.79831 6.8803 4.97433 7.09979 4.97433C7.31928 4.97433 7.49721 4.79831 7.49721 4.58119C7.49721 4.36406 7.31928 4.18804 7.09979 4.18804C6.8803 4.18804 6.70237 4.36406 6.70237 4.58119Z" fill="#F7FCFF"/>
</g>
</g>
<defs>
<clipPath id="clip0_0_726">
<rect width="26" height="18" rx="2" fill="white"/>
</clipPath>
</defs>
</svg>
