<svg width="26" height="18" viewBox="0 0 26 18" fill="none" xmlns="http://www.w3.org/2000/svg">
<g clip-path="url(#clip0_0_738)">
<rect width="26" height="18" rx="2" fill="white"/>
<path fill-rule="evenodd" clip-rule="evenodd" d="M0 -0.749756V18.7502H26V-0.749756H0Z" fill="#4857A1"/>
<mask id="mask0_0_738" style="mask-type:luminance" maskUnits="userSpaceOnUse" x="0" y="-1" width="26" height="20">
<path fill-rule="evenodd" clip-rule="evenodd" d="M0 -0.749756V18.7502H26V-0.749756H0Z" fill="white"/>
</mask>
<g mask="url(#mask0_0_738)">
<path fill-rule="evenodd" clip-rule="evenodd" d="M0 -0.749756V5.75024H26V-0.749756H0Z" fill="#C51918"/>
<path fill-rule="evenodd" clip-rule="evenodd" d="M0 12.2502V18.7502H26V12.2502H0Z" fill="#F7FCFF"/>
<path fill-rule="evenodd" clip-rule="evenodd" d="M8.54811 1.43999L8.44304 1.04321C8.52946 1.06822 8.62306 1.09387 8.72176 1.12021L8.71871 1.10509C9.94419 1.21852 11.8418 1.83016 12.1989 2.46822C12.3369 2.71484 12.203 2.92332 12.0275 3.19653C12.0013 3.23736 11.9742 3.27963 11.9469 3.32369C11.8587 3.46597 11.7788 3.60201 11.7035 3.73022L11.7035 3.73023C11.4285 4.19845 11.2148 4.56222 10.8829 4.74382L10.8894 5.7825L5.41495 5.73814L5.40795 4.69094C5.12414 4.49638 4.92475 4.15689 4.67459 3.73096L4.67459 3.73096C4.59929 3.60275 4.51939 3.4667 4.4312 3.32442C4.40389 3.28036 4.37674 3.23809 4.35051 3.19726C4.17504 2.92405 4.04114 2.71557 4.17917 2.46895C4.44867 1.98743 5.66053 1.51254 6.76565 1.25976C6.97437 1.19043 7.19167 1.12541 7.40717 1.06305L7.49592 1.12357C7.59197 1.11017 7.68483 1.09927 7.77356 1.09106L7.90394 1.36893H8.33182C8.33182 1.36893 8.60097 2.1219 8.60097 2.54007C8.60097 2.95824 8.33182 3.30405 8.33182 3.30405V3.59271C8.37892 3.59641 8.42837 3.60093 8.47976 3.60617C8.47978 3.58074 8.48209 3.55396 8.48692 3.52656C8.51125 3.38862 8.5903 3.28726 8.6635 3.30016C8.73669 3.31307 8.77631 3.43536 8.75199 3.5733C8.74812 3.59522 8.74287 3.61622 8.73649 3.63599C9.02487 3.67298 9.34784 3.72455 9.6538 3.7776C9.77052 3.56442 9.91282 3.35381 10.0487 3.15272C10.4 2.63279 10.7083 2.17648 10.4205 1.90409C10.3656 1.8521 10.266 1.80377 10.1375 1.75903C9.71424 1.6565 9.25317 1.57646 8.80544 1.53502L8.79369 1.47677C8.70773 1.46363 8.62519 1.45138 8.54811 1.43999ZM10.6316 3.96001C10.7853 3.99053 10.8784 4.00992 10.8784 4.00992L10.8794 4.17085C11.4225 3.78312 11.8029 2.90526 11.8355 2.61795C11.8548 2.44727 11.5694 2.24859 11.1214 2.06667C11.3262 2.44799 11.0397 2.82728 10.6811 3.30223L10.6811 3.30224C10.5451 3.48225 10.3988 3.676 10.2649 3.88881L10.4004 3.91475C10.3984 3.87454 10.4032 3.82927 10.4156 3.78282C10.4519 3.64752 10.5395 3.55344 10.6113 3.57267C10.6831 3.59191 10.7119 3.71719 10.6756 3.85248C10.6649 3.89257 10.6496 3.92904 10.6316 3.96001ZM7.83127 3.59463V3.27318C7.83127 3.27318 7.59824 3.02776 7.56212 2.51663C7.53584 2.14481 7.61901 1.7066 7.66629 1.49536C7.33979 1.53699 6.99676 1.59894 6.66243 1.67418C6.39533 1.74085 6.17918 1.81743 6.08756 1.90416C5.79983 2.17656 6.10813 2.63286 6.45941 3.15279C6.59063 3.34702 6.72786 3.55012 6.84225 3.75583C7.03992 3.7155 7.23856 3.67816 7.42405 3.64844C7.41631 3.62163 7.4108 3.59238 7.40811 3.56159C7.3959 3.42205 7.44603 3.30368 7.52007 3.2972C7.59411 3.29072 7.66403 3.39859 7.67624 3.53813C7.67847 3.5636 7.67862 3.58837 7.67693 3.61188C7.73049 3.6051 7.78209 3.59931 7.83127 3.59463ZM6.24187 3.88682C6.10833 3.67482 5.96253 3.48174 5.82703 3.30231C5.4601 2.81643 5.16878 2.43066 5.40161 2.04042C4.87636 2.23704 4.52325 2.44837 4.54258 2.61868C4.57325 2.88898 4.91176 3.68199 5.40399 4.0978L5.40395 4.09237C5.40395 4.09237 5.60519 4.03915 5.90269 3.96705C5.88298 3.93698 5.86575 3.90121 5.85287 3.86157C5.80958 3.72835 5.8318 3.60174 5.90248 3.57878C5.97317 3.55581 6.06556 3.64518 6.10885 3.7784C6.12411 3.82538 6.13123 3.87153 6.13095 3.91261L6.24187 3.88682Z" fill="#F6C540"/>
<path fill-rule="evenodd" clip-rule="evenodd" d="M6.98191 1.43095C7.01943 1.45667 7.06561 1.47184 7.11556 1.47184C7.24116 1.47184 7.34299 1.37589 7.34299 1.25752C7.34299 1.13916 7.24116 1.04321 7.11556 1.04321C7.02643 1.04321 6.94928 1.09152 6.91198 1.16186C6.87447 1.13614 6.82828 1.12097 6.77834 1.12097C6.69821 1.12097 6.62777 1.16001 6.58725 1.21901C6.54796 1.18849 6.4976 1.17017 6.4427 1.17017C6.3171 1.17017 6.21527 1.26612 6.21527 1.38448C6.21527 1.39115 6.2156 1.39776 6.21623 1.40428C6.17455 1.35539 6.11057 1.3241 6.03883 1.3241C5.92528 1.3241 5.83116 1.40252 5.81414 1.50503C5.77249 1.45547 5.70806 1.42368 5.63576 1.42368C5.52649 1.42368 5.43523 1.49628 5.41333 1.59308C5.37592 1.56762 5.32996 1.55261 5.28029 1.55261C5.17964 1.55261 5.09425 1.61422 5.0643 1.69961C5.03377 1.68526 4.99934 1.67719 4.96291 1.67719C4.85055 1.67719 4.75722 1.75396 4.73878 1.85487C4.72403 1.85204 4.70877 1.85056 4.69313 1.85056C4.56882 1.85056 4.4678 1.94454 4.46573 2.06122C4.45225 2.05887 4.43835 2.05765 4.42415 2.05765C4.29854 2.05765 4.19672 2.1536 4.19672 2.27196C4.19672 2.28691 4.19834 2.30151 4.20143 2.31559C4.1865 2.31269 4.17102 2.31116 4.15517 2.31116C4.02956 2.31116 3.92773 2.40711 3.92773 2.52547C3.92773 2.61552 3.98668 2.6926 4.0702 2.72432C4.06525 2.74189 4.06262 2.76034 4.06262 2.77938C4.06262 2.86914 4.12118 2.94601 4.20427 2.97792C4.19934 2.99546 4.19672 3.01388 4.19672 3.03288C4.19672 3.14854 4.29394 3.2428 4.41557 3.24705C4.36433 3.28634 4.3316 3.34624 4.3316 3.41335C4.3316 3.53171 4.43343 3.62766 4.55904 3.62766C4.68464 3.62766 4.78647 3.53171 4.78647 3.41335C4.78647 3.29769 4.68925 3.20344 4.56762 3.19919C4.61885 3.15989 4.65158 3.09999 4.65158 3.03288C4.65158 2.94312 4.59302 2.86625 4.50994 2.83434C4.51486 2.8168 4.51749 2.79838 4.51749 2.77938C4.51749 2.68932 4.45854 2.61224 4.37503 2.58052C4.37997 2.56295 4.3826 2.5445 4.3826 2.52547C4.3826 2.51052 4.38097 2.49592 4.37788 2.48183C4.39282 2.48474 4.4083 2.48627 4.42415 2.48627C4.54846 2.48627 4.64948 2.39228 4.65155 2.2756C4.66503 2.27795 4.67893 2.27918 4.69313 2.27918C4.80549 2.27918 4.89882 2.2024 4.91726 2.10149C4.932 2.10432 4.94727 2.10581 4.96291 2.10581C5.06356 2.10581 5.14894 2.0442 5.17889 1.95881C5.20942 1.97316 5.24385 1.98124 5.28029 1.98124C5.33036 1.98124 5.37665 1.96599 5.41421 1.94016C5.4213 1.9689 5.43452 1.99543 5.45251 2.01845C5.42473 2.05398 5.40833 2.09789 5.40833 2.1454C5.40833 2.26066 5.50488 2.35467 5.62593 2.35952C5.57495 2.39882 5.54242 2.45856 5.54242 2.52547C5.54242 2.61552 5.60136 2.6926 5.68488 2.72432C5.67994 2.74189 5.67731 2.76034 5.67731 2.77938C5.67731 2.86914 5.73587 2.94601 5.81895 2.97792C5.81403 2.99546 5.8114 3.01388 5.8114 3.03288C5.8114 3.15125 5.91323 3.2472 6.03883 3.2472C6.16444 3.2472 6.26627 3.15125 6.26627 3.03288C6.26627 2.94312 6.20771 2.86625 6.12462 2.83434C6.12955 2.8168 6.13217 2.79838 6.13217 2.77938C6.13217 2.68932 6.07323 2.61224 5.98971 2.58052C5.99465 2.56295 5.99728 2.5445 5.99728 2.52547C5.99728 2.41021 5.90073 2.3162 5.77968 2.31135C5.83066 2.27205 5.86319 2.21231 5.86319 2.1454C5.86319 2.09789 5.84678 2.05398 5.81901 2.01845C5.84678 1.98292 5.86319 1.93901 5.86319 1.8915C5.86319 1.84407 5.84684 1.80024 5.81917 1.76474C5.84022 1.73774 5.85471 1.70592 5.86045 1.67137C5.90211 1.72093 5.96653 1.75272 6.03883 1.75272C6.16444 1.75272 6.26627 1.65677 6.26627 1.53841C6.26627 1.53173 6.26594 1.52513 6.26531 1.5186C6.30699 1.5675 6.37097 1.59879 6.4427 1.59879C6.52283 1.59879 6.59327 1.55975 6.63379 1.50075C6.67308 1.53127 6.72344 1.54959 6.77834 1.54959C6.86746 1.54959 6.94461 1.50129 6.98191 1.43095ZM5.63917 1.85228C5.71305 1.85125 5.7784 1.81703 5.81917 1.76474C5.77819 1.71219 5.71238 1.67789 5.63804 1.6772C5.66 1.67606 5.67743 1.65892 5.67743 1.63794C5.67743 1.61623 5.65875 1.59863 5.63571 1.59863C5.61267 1.59863 5.59399 1.61623 5.59399 1.63794C5.59399 1.65892 5.61143 1.67606 5.6334 1.6772C5.58423 1.67767 5.53881 1.69284 5.50183 1.71826C5.48922 1.66706 5.45713 1.6229 5.41333 1.59308C5.41005 1.60756 5.40833 1.62259 5.40833 1.63799C5.40833 1.68541 5.42467 1.72924 5.45235 1.76474C5.42467 1.80024 5.40833 1.84407 5.40833 1.8915C5.40833 1.90823 5.41036 1.92452 5.41421 1.94016C5.45863 1.90962 5.49086 1.86427 5.50272 1.81183C5.53925 1.8367 5.58394 1.85159 5.63227 1.85227C5.61084 1.85392 5.59399 1.87083 5.59399 1.89145C5.59399 1.91317 5.61267 1.93077 5.63571 1.93077C5.65875 1.93077 5.67743 1.91317 5.67743 1.89145C5.67743 1.87084 5.66059 1.85393 5.63917 1.85228ZM5.63917 1.85228L5.63571 1.85214L5.63227 1.85227L5.63576 1.8523L5.63917 1.85228ZM5.50272 1.81183C5.48344 1.7987 5.46643 1.7828 5.45235 1.76474C5.46621 1.74696 5.48292 1.73127 5.50183 1.71826C5.50569 1.7339 5.50772 1.75019 5.50772 1.76692C5.50772 1.78233 5.506 1.79735 5.50272 1.81183ZM5.6334 1.6772L5.63571 1.67726L5.63804 1.6772L5.63576 1.67719L5.6334 1.6772ZM6.12462 2.83434C6.09815 2.82418 6.06919 2.81857 6.03883 2.81857C5.93339 2.81857 5.84471 2.88619 5.81895 2.97792C5.84542 2.98808 5.87439 2.99369 5.90474 2.99369C6.01018 2.99369 6.09887 2.92607 6.12462 2.83434ZM5.98971 2.58052C5.96346 2.57055 5.93478 2.56506 5.90474 2.56506C5.79933 2.56506 5.71067 2.63264 5.68488 2.72432C5.71113 2.73429 5.73981 2.73978 5.76985 2.73978C5.87526 2.73978 5.96392 2.67221 5.98971 2.58052ZM5.77968 2.31135L5.76985 2.31116C5.71525 2.31116 5.66513 2.32929 5.62593 2.35952L5.63576 2.35971C5.69036 2.35971 5.74048 2.34158 5.77968 2.31135ZM5.81901 2.01845C5.7776 1.96547 5.71094 1.93109 5.63576 1.93109C5.56057 1.93109 5.49391 1.96547 5.45251 2.01845C5.49391 2.07143 5.56057 2.10581 5.63576 2.10581C5.71094 2.10581 5.7776 2.07143 5.81901 2.01845ZM4.56762 3.19919L4.55904 3.19904C4.50464 3.19904 4.45471 3.21703 4.41557 3.24705L4.42415 3.2472C4.47854 3.2472 4.52848 3.2292 4.56762 3.19919ZM4.50994 2.83434C4.48418 2.92607 4.3955 2.99369 4.29005 2.99369C4.2597 2.99369 4.23074 2.98808 4.20427 2.97792C4.23002 2.88619 4.31871 2.81857 4.42415 2.81857C4.4545 2.81857 4.48346 2.82418 4.50994 2.83434ZM4.37503 2.58052C4.34924 2.67221 4.26058 2.73978 4.15517 2.73978C4.12513 2.73978 4.09645 2.73429 4.0702 2.72432C4.09598 2.63264 4.18464 2.56506 4.29005 2.56506C4.32009 2.56506 4.34877 2.57055 4.37503 2.58052ZM4.20143 2.31559C4.21973 2.39896 4.28941 2.46461 4.37788 2.48183C4.35958 2.39847 4.2899 2.33282 4.20143 2.31559ZM4.65155 2.2756C4.5458 2.25719 4.4657 2.16985 4.4657 2.06487L4.46573 2.06122C4.57148 2.07963 4.65158 2.16698 4.65158 2.27196L4.65155 2.2756ZM4.91726 2.10149C4.81353 2.08157 4.73547 1.99512 4.73547 1.8915C4.73547 1.87901 4.73661 1.86677 4.73878 1.85487C4.84251 1.87479 4.92056 1.96124 4.92056 2.06487C4.92056 2.07735 4.91943 2.08959 4.91726 2.10149ZM5.17889 1.95881C5.10418 1.92369 5.05286 1.85095 5.05286 1.76692C5.05286 1.74341 5.05688 1.72078 5.0643 1.69961C5.13902 1.73473 5.19034 1.80747 5.19034 1.8915C5.19034 1.91501 5.18632 1.93764 5.17889 1.95881ZM5.86045 1.67137C5.82974 1.63483 5.8114 1.58864 5.8114 1.53841C5.8114 1.52705 5.81234 1.51591 5.81414 1.50503C5.84485 1.54157 5.86319 1.58776 5.86319 1.63799C5.86319 1.64934 5.86225 1.66049 5.86045 1.67137ZM6.21623 1.40428C6.22042 1.44734 6.23812 1.48672 6.26531 1.5186C6.26112 1.47554 6.24342 1.43617 6.21623 1.40428ZM6.63379 1.50075C6.58317 1.46144 6.5509 1.40191 6.5509 1.33528C6.5509 1.29242 6.56425 1.2525 6.58725 1.21901C6.63787 1.25832 6.67014 1.31785 6.67014 1.38448C6.67014 1.42734 6.65678 1.46726 6.63379 1.50075ZM6.98191 1.43095C6.92507 1.39199 6.88812 1.32882 6.88812 1.25752C6.88812 1.22314 6.89671 1.19066 6.91198 1.16186C6.96882 1.20082 7.00577 1.26399 7.00577 1.33528C7.00577 1.36966 6.99718 1.40215 6.98191 1.43095ZM4.69309 2.10414C4.71613 2.10414 4.7348 2.08654 4.7348 2.06482C4.7348 2.04311 4.71613 2.02551 4.69309 2.02551C4.67005 2.02551 4.65137 2.04311 4.65137 2.06482C4.65137 2.08654 4.67005 2.10414 4.69309 2.10414ZM4.4241 2.31123C4.44714 2.31123 4.46582 2.29363 4.46582 2.27192C4.46582 2.25021 4.44714 2.2326 4.4241 2.2326C4.40106 2.2326 4.38239 2.25021 4.38239 2.27192C4.38239 2.29363 4.40106 2.31123 4.4241 2.31123ZM4.15512 2.56513C4.17816 2.56513 4.19684 2.54753 4.19684 2.52582C4.19684 2.50411 4.17816 2.48651 4.15512 2.48651C4.13208 2.48651 4.1134 2.50411 4.1134 2.52582C4.1134 2.54753 4.13208 2.56513 4.15512 2.56513ZM4.29001 2.81864C4.31305 2.81864 4.33173 2.80104 4.33173 2.77933C4.33173 2.75762 4.31305 2.74002 4.29001 2.74002C4.26697 2.74002 4.24829 2.75762 4.24829 2.77933C4.24829 2.80104 4.26697 2.81864 4.29001 2.81864ZM4.4241 3.07215C4.44714 3.07215 4.46582 3.05455 4.46582 3.03284C4.46582 3.01113 4.44714 2.99353 4.4241 2.99353C4.40106 2.99353 4.38239 3.01113 4.38239 3.03284C4.38239 3.05455 4.40106 3.07215 4.4241 3.07215ZM4.60071 3.4133C4.60071 3.43502 4.58203 3.45262 4.55899 3.45262C4.53595 3.45262 4.51727 3.43502 4.51727 3.4133C4.51727 3.39159 4.53595 3.37399 4.55899 3.37399C4.58203 3.37399 4.60071 3.39159 4.60071 3.4133ZM4.96286 1.93077C4.9859 1.93077 5.00458 1.91317 5.00458 1.89145C5.00458 1.86974 4.9859 1.85214 4.96286 1.85214C4.93982 1.85214 4.92114 1.86974 4.92114 1.89145C4.92114 1.91317 4.93982 1.93077 4.96286 1.93077ZM5.28024 1.80619C5.30328 1.80619 5.32196 1.78859 5.32196 1.76688C5.32196 1.74517 5.30328 1.72757 5.28024 1.72757C5.2572 1.72757 5.23853 1.74517 5.23853 1.76688C5.23853 1.78859 5.2572 1.80619 5.28024 1.80619ZM6.03958 1.57768C6.06262 1.57768 6.0813 1.56008 6.0813 1.53837C6.0813 1.51665 6.06262 1.49905 6.03958 1.49905C6.01654 1.49905 5.99786 1.51665 5.99786 1.53837C5.99786 1.56008 6.01654 1.57768 6.03958 1.57768ZM6.44266 1.42375C6.4657 1.42375 6.48438 1.40615 6.48438 1.38443C6.48438 1.36272 6.4657 1.34512 6.44266 1.34512C6.41962 1.34512 6.40094 1.36272 6.40094 1.38443C6.40094 1.40615 6.41962 1.42375 6.44266 1.42375ZM6.77829 1.37455C6.80133 1.37455 6.82001 1.35695 6.82001 1.33524C6.82001 1.31353 6.80133 1.29593 6.77829 1.29593C6.75525 1.29593 6.73657 1.31353 6.73657 1.33524C6.73657 1.35695 6.75525 1.37455 6.77829 1.37455ZM7.11551 1.29679C7.13855 1.29679 7.15723 1.27919 7.15723 1.25748C7.15723 1.23577 7.13855 1.21817 7.11551 1.21817C7.09247 1.21817 7.07379 1.23577 7.07379 1.25748C7.07379 1.27919 7.09247 1.29679 7.11551 1.29679ZM5.63571 2.18467C5.65875 2.18467 5.67743 2.16707 5.67743 2.14536C5.67743 2.12365 5.65875 2.10605 5.63571 2.10605C5.61267 2.10605 5.59399 2.12365 5.59399 2.14536C5.59399 2.16707 5.61267 2.18467 5.63571 2.18467ZM5.76981 2.56513C5.79285 2.56513 5.81153 2.54753 5.81153 2.52582C5.81153 2.50411 5.79285 2.48651 5.76981 2.48651C5.74677 2.48651 5.72809 2.50411 5.72809 2.52582C5.72809 2.54753 5.74677 2.56513 5.76981 2.56513ZM5.90469 2.81864C5.92773 2.81864 5.94641 2.80104 5.94641 2.77933C5.94641 2.75762 5.92773 2.74002 5.90469 2.74002C5.88165 2.74002 5.86298 2.75762 5.86298 2.77933C5.86298 2.80104 5.88165 2.81864 5.90469 2.81864ZM6.03958 3.07215C6.06262 3.07215 6.0813 3.05455 6.0813 3.03284C6.0813 3.01113 6.06262 2.99353 6.03958 2.99353C6.01654 2.99353 5.99786 3.01113 5.99786 3.03284C5.99786 3.05455 6.01654 3.07215 6.03958 3.07215ZM11.9604 3.45262C11.9834 3.45262 12.0021 3.43502 12.0021 3.4133C12.0021 3.39159 11.9834 3.37399 11.9604 3.37399C11.9373 3.37399 11.9186 3.39159 11.9186 3.4133C11.9186 3.43502 11.9373 3.45262 11.9604 3.45262ZM11.733 3.41335C11.733 3.53171 11.8348 3.62766 11.9604 3.62766C12.086 3.62766 12.1878 3.53171 12.1878 3.41335C12.1878 3.34624 12.1551 3.28634 12.1039 3.24705C12.2255 3.2428 12.3227 3.14854 12.3227 3.03288C12.3227 3.01388 12.3201 2.99546 12.3152 2.97792C12.3983 2.94601 12.4568 2.86914 12.4568 2.77938C12.4568 2.76034 12.4542 2.74189 12.4492 2.72432C12.5328 2.6926 12.5917 2.61552 12.5917 2.52547C12.5917 2.40711 12.4899 2.31116 12.3643 2.31116C12.3484 2.31116 12.3329 2.31269 12.318 2.3156C12.3211 2.30151 12.3227 2.28691 12.3227 2.27196C12.3227 2.1536 12.2209 2.05765 12.0953 2.05765C12.0811 2.05765 12.0672 2.05887 12.0537 2.06122C12.0516 1.94454 11.9506 1.85056 11.8263 1.85056C11.8107 1.85056 11.7954 1.85204 11.7807 1.85487C11.7622 1.75396 11.6689 1.67719 11.5565 1.67719C11.5201 1.67719 11.4857 1.68526 11.4551 1.69961C11.4252 1.61422 11.3398 1.55261 11.2392 1.55261C11.1895 1.55261 11.1435 1.56762 11.1061 1.59308C11.0842 1.49628 10.9929 1.42368 10.8837 1.42368C10.8114 1.42368 10.747 1.45547 10.7053 1.50503C10.6883 1.40252 10.5942 1.3241 10.4806 1.3241C10.4089 1.3241 10.3449 1.35539 10.3032 1.40428C10.3038 1.39776 10.3042 1.39115 10.3042 1.38448C10.3042 1.26612 10.2023 1.17017 10.0767 1.17017C10.0218 1.17017 9.97148 1.18849 9.93219 1.21901C9.89168 1.16001 9.82123 1.12097 9.7411 1.12097C9.69116 1.12097 9.64498 1.13614 9.60746 1.16186C9.57016 1.09152 9.49301 1.04321 9.40389 1.04321C9.27828 1.04321 9.17645 1.13916 9.17645 1.25752C9.17645 1.37589 9.27828 1.47184 9.40389 1.47184C9.45383 1.47184 9.50001 1.45667 9.53753 1.43095C9.57483 1.50129 9.65198 1.54959 9.7411 1.54959C9.796 1.54959 9.84636 1.53127 9.88565 1.50075C9.92617 1.55975 9.99661 1.59879 10.0767 1.59879C10.1485 1.59879 10.2124 1.5675 10.2541 1.5186C10.2535 1.52513 10.2532 1.53173 10.2532 1.53841C10.2532 1.65677 10.355 1.75272 10.4806 1.75272C10.5529 1.75272 10.6173 1.72093 10.659 1.67137C10.6647 1.70592 10.6792 1.73774 10.7003 1.76474C10.6726 1.80024 10.6562 1.84407 10.6562 1.8915C10.6562 1.93901 10.6727 1.98292 10.7004 2.01845C10.6727 2.05398 10.6562 2.09789 10.6562 2.1454C10.6562 2.21231 10.6888 2.27205 10.7398 2.31135C10.6187 2.3162 10.5222 2.41021 10.5222 2.52547C10.5222 2.5445 10.5248 2.56295 10.5297 2.58052C10.4462 2.61224 10.3873 2.68932 10.3873 2.77938C10.3873 2.79838 10.3899 2.8168 10.3948 2.83434C10.3117 2.86625 10.2532 2.94312 10.2532 3.03288C10.2532 3.15125 10.355 3.2472 10.4806 3.2472C10.6062 3.2472 10.708 3.15125 10.708 3.03288C10.708 3.01388 10.7054 2.99546 10.7005 2.97792C10.7836 2.94601 10.8421 2.86914 10.8421 2.77938C10.8421 2.76034 10.8395 2.74189 10.8346 2.72432C10.9181 2.6926 10.977 2.61552 10.977 2.52547C10.977 2.45856 10.9445 2.39882 10.8935 2.35952C11.0146 2.35467 11.1111 2.26066 11.1111 2.1454C11.1111 2.09789 11.0947 2.05398 11.0669 2.01845C11.0849 1.99543 11.0981 1.9689 11.1052 1.94016C11.1428 1.96599 11.1891 1.98124 11.2392 1.98124C11.2756 1.98124 11.31 1.97316 11.3405 1.95881C11.3705 2.0442 11.4559 2.10581 11.5565 2.10581C11.5722 2.10581 11.5874 2.10432 11.6022 2.10149C11.6206 2.2024 11.714 2.27918 11.8263 2.27918C11.8405 2.27918 11.8544 2.27795 11.8679 2.2756C11.87 2.39228 11.971 2.48627 12.0953 2.48627C12.1111 2.48627 12.1266 2.48474 12.1416 2.48183C12.1385 2.49592 12.1368 2.51052 12.1368 2.52547C12.1368 2.5445 12.1395 2.56295 12.1444 2.58052C12.0609 2.61224 12.002 2.68932 12.002 2.77938C12.002 2.79838 12.0046 2.8168 12.0095 2.83434C11.9264 2.86625 11.8679 2.94312 11.8679 3.03288C11.8679 3.09999 11.9006 3.15989 11.9518 3.19919C11.8302 3.20344 11.733 3.29769 11.733 3.41335ZM11.0167 1.81183C11.0286 1.86427 11.0608 1.90962 11.1052 1.94016C11.1091 1.92452 11.1111 1.90823 11.1111 1.8915C11.1111 1.84407 11.0948 1.80024 11.0671 1.76474C11.0948 1.72924 11.1111 1.68541 11.1111 1.63799C11.1111 1.62259 11.1094 1.60756 11.1061 1.59308C11.0623 1.6229 11.0302 1.66706 11.0176 1.71826C10.9806 1.69282 10.9352 1.67765 10.886 1.6772C10.9079 1.67606 10.9254 1.65892 10.9254 1.63794C10.9254 1.61623 10.9067 1.59863 10.8836 1.59863C10.8606 1.59863 10.8419 1.61623 10.8419 1.63794C10.8419 1.65892 10.8594 1.67606 10.8813 1.6772C10.807 1.67791 10.7412 1.7122 10.7003 1.76474C10.741 1.81702 10.8063 1.85123 10.8802 1.85227C10.8588 1.85392 10.8419 1.87083 10.8419 1.89145C10.8419 1.91317 10.8606 1.93077 10.8836 1.93077C10.9067 1.93077 10.9254 1.91317 10.9254 1.89145C10.9254 1.87084 10.9085 1.85393 10.8871 1.85228C10.9355 1.85161 10.9802 1.83671 11.0167 1.81183ZM11.0167 1.81183C11.036 1.7987 11.053 1.7828 11.0671 1.76474C11.0532 1.74696 11.0365 1.73127 11.0176 1.71826C11.0138 1.7339 11.0117 1.75019 11.0117 1.76692C11.0117 1.78233 11.0134 1.79735 11.0167 1.81183ZM10.8871 1.85228L10.8837 1.8523L10.8802 1.85227L10.8836 1.85214L10.8871 1.85228ZM10.8813 1.6772L10.8837 1.67719L10.886 1.6772L10.8836 1.67726L10.8813 1.6772ZM10.7005 2.97792C10.6747 2.88619 10.586 2.81857 10.4806 2.81857C10.4503 2.81857 10.4213 2.82418 10.3948 2.83434C10.4206 2.92607 10.5093 2.99369 10.6147 2.99369C10.6451 2.99369 10.674 2.98808 10.7005 2.97792ZM10.8346 2.72432C10.8088 2.63264 10.7201 2.56506 10.6147 2.56506C10.5847 2.56506 10.556 2.57055 10.5297 2.58052C10.5555 2.67221 10.6442 2.73978 10.7496 2.73978C10.7796 2.73978 10.8083 2.73429 10.8346 2.72432ZM10.8935 2.35952C10.8543 2.32929 10.8042 2.31116 10.7496 2.31116L10.7398 2.31135C10.779 2.34158 10.8291 2.35971 10.8837 2.35971L10.8935 2.35952ZM11.0669 2.01845C11.0255 1.96547 10.9589 1.93109 10.8837 1.93109C10.8085 1.93109 10.7418 1.96547 10.7004 2.01845C10.7418 2.07143 10.8085 2.10581 10.8837 2.10581C10.9589 2.10581 11.0255 2.07143 11.0669 2.01845ZM9.53753 1.43095C9.59437 1.39199 9.63132 1.32882 9.63132 1.25752C9.63132 1.22314 9.62273 1.19066 9.60746 1.16186C9.55062 1.20082 9.51367 1.26399 9.51367 1.33528C9.51367 1.36966 9.52226 1.40215 9.53753 1.43095ZM9.88565 1.50075C9.93627 1.46144 9.96854 1.40191 9.96854 1.33528C9.96854 1.29242 9.95519 1.2525 9.93219 1.21901C9.88157 1.25832 9.8493 1.31785 9.8493 1.38448C9.8493 1.42734 9.86266 1.46726 9.88565 1.50075ZM10.3032 1.40428C10.299 1.44734 10.2813 1.48672 10.2541 1.5186C10.2583 1.47554 10.276 1.43617 10.3032 1.40428ZM10.659 1.67137C10.6897 1.63483 10.708 1.58864 10.708 1.53841C10.708 1.52705 10.7071 1.51591 10.7053 1.50503C10.6746 1.54157 10.6562 1.58776 10.6562 1.63799C10.6562 1.64934 10.6572 1.66049 10.659 1.67137ZM11.3405 1.95881C11.4153 1.92369 11.4666 1.85095 11.4666 1.76692C11.4666 1.74341 11.4626 1.72078 11.4551 1.69961C11.3804 1.73473 11.3291 1.80747 11.3291 1.8915C11.3291 1.91501 11.3331 1.93764 11.3405 1.95881ZM11.6022 2.10149C11.7059 2.08157 11.784 1.99512 11.784 1.8915C11.784 1.87901 11.7828 1.86677 11.7807 1.85487C11.6769 1.87479 11.5989 1.96124 11.5989 2.06487C11.5989 2.07735 11.6 2.08959 11.6022 2.10149ZM12.1416 2.48183C12.23 2.4646 12.2997 2.39895 12.318 2.3156C12.2295 2.33282 12.1599 2.39847 12.1416 2.48183ZM12.0537 2.06122L12.0537 2.06487C12.0537 2.16985 11.9736 2.25719 11.8679 2.2756L11.8679 2.27196C11.8679 2.16698 11.948 2.07963 12.0537 2.06122ZM12.1444 2.58052C12.1707 2.57055 12.1993 2.56506 12.2294 2.56506C12.3348 2.56506 12.4235 2.63264 12.4492 2.72432C12.423 2.73429 12.3943 2.73978 12.3643 2.73978C12.2589 2.73978 12.1702 2.6722 12.1444 2.58052ZM12.0095 2.83434C12.036 2.82418 12.0649 2.81857 12.0953 2.81857C12.2007 2.81857 12.2894 2.88619 12.3152 2.97792C12.2887 2.98808 12.2597 2.99369 12.2294 2.99369C12.1239 2.99369 12.0353 2.92607 12.0095 2.83434ZM12.0953 3.2472C12.0409 3.2472 11.991 3.2292 11.9518 3.19919L11.9604 3.19904C12.0148 3.19904 12.0647 3.21703 12.1039 3.24705L12.0953 3.2472ZM12.0952 3.07215C12.1183 3.07215 12.137 3.05455 12.137 3.03284C12.137 3.01113 12.1183 2.99353 12.0952 2.99353C12.0722 2.99353 12.0535 3.01113 12.0535 3.03284C12.0535 3.05455 12.0722 3.07215 12.0952 3.07215ZM12.2293 2.81864C12.2524 2.81864 12.2711 2.80104 12.2711 2.77933C12.2711 2.75762 12.2524 2.74002 12.2293 2.74002C12.2063 2.74002 12.1876 2.75762 12.1876 2.77933C12.1876 2.80104 12.2063 2.81864 12.2293 2.81864ZM12.3642 2.56513C12.3873 2.56513 12.4059 2.54753 12.4059 2.52582C12.4059 2.50411 12.3873 2.48651 12.3642 2.48651C12.3412 2.48651 12.3225 2.50411 12.3225 2.52582C12.3225 2.54753 12.3412 2.56513 12.3642 2.56513ZM12.0952 2.31123C12.1183 2.31123 12.137 2.29363 12.137 2.27192C12.137 2.25021 12.1183 2.2326 12.0952 2.2326C12.0722 2.2326 12.0535 2.25021 12.0535 2.27192C12.0535 2.29363 12.0722 2.31123 12.0952 2.31123ZM11.8263 2.10414C11.8493 2.10414 11.868 2.08654 11.868 2.06482C11.868 2.04311 11.8493 2.02551 11.8263 2.02551C11.8032 2.02551 11.7845 2.04311 11.7845 2.06482C11.7845 2.08654 11.8032 2.10414 11.8263 2.10414ZM11.5565 1.93077C11.5795 1.93077 11.5982 1.91317 11.5982 1.89145C11.5982 1.86974 11.5795 1.85214 11.5565 1.85214C11.5334 1.85214 11.5148 1.86974 11.5148 1.89145C11.5148 1.91317 11.5334 1.93077 11.5565 1.93077ZM11.2391 1.80619C11.2621 1.80619 11.2808 1.78859 11.2808 1.76688C11.2808 1.74517 11.2621 1.72757 11.2391 1.72757C11.2161 1.72757 11.1974 1.74517 11.1974 1.76688C11.1974 1.78859 11.2161 1.80619 11.2391 1.80619ZM10.4806 1.57768C10.5036 1.57768 10.5223 1.56008 10.5223 1.53837C10.5223 1.51665 10.5036 1.49905 10.4806 1.49905C10.4575 1.49905 10.4388 1.51665 10.4388 1.53837C10.4388 1.56008 10.4575 1.57768 10.4806 1.57768ZM10.0767 1.42375C10.0997 1.42375 10.1184 1.40615 10.1184 1.38443C10.1184 1.36272 10.0997 1.34512 10.0767 1.34512C10.0537 1.34512 10.035 1.36272 10.035 1.38443C10.035 1.40615 10.0537 1.42375 10.0767 1.42375ZM9.74106 1.37455C9.7641 1.37455 9.78278 1.35695 9.78278 1.33524C9.78278 1.31353 9.7641 1.29593 9.74106 1.29593C9.71802 1.29593 9.69934 1.31353 9.69934 1.33524C9.69934 1.35695 9.71802 1.37455 9.74106 1.37455ZM9.40384 1.29679C9.42688 1.29679 9.44556 1.27919 9.44556 1.25748C9.44556 1.23577 9.42688 1.21817 9.40384 1.21817C9.3808 1.21817 9.36212 1.23577 9.36212 1.25748C9.36212 1.27919 9.3808 1.29679 9.40384 1.29679ZM10.8836 2.18467C10.9067 2.18467 10.9254 2.16707 10.9254 2.14536C10.9254 2.12365 10.9067 2.10605 10.8836 2.10605C10.8606 2.10605 10.8419 2.12365 10.8419 2.14536C10.8419 2.16707 10.8606 2.18467 10.8836 2.18467ZM10.7495 2.56513C10.7726 2.56513 10.7913 2.54753 10.7913 2.52582C10.7913 2.50411 10.7726 2.48651 10.7495 2.48651C10.7265 2.48651 10.7078 2.50411 10.7078 2.52582C10.7078 2.54753 10.7265 2.56513 10.7495 2.56513ZM10.6147 2.81864C10.6377 2.81864 10.6564 2.80104 10.6564 2.77933C10.6564 2.75762 10.6377 2.74002 10.6147 2.74002C10.5916 2.74002 10.5729 2.75762 10.5729 2.77933C10.5729 2.80104 10.5916 2.81864 10.6147 2.81864ZM10.4806 3.07215C10.5036 3.07215 10.5223 3.05455 10.5223 3.03284C10.5223 3.01113 10.5036 2.99353 10.4806 2.99353C10.4575 2.99353 10.4388 3.01113 10.4388 3.03284C10.4388 3.05455 10.4575 3.07215 10.4806 3.07215Z" fill="white"/>
<path fill-rule="evenodd" clip-rule="evenodd" d="M8.30523 -0.00157756L7.94955 0.00877795L7.94222 0.563474L7.28577 0.572043L7.28877 0.908642L7.93776 0.90017L7.92941 1.5322L8.28509 1.52185L8.29337 0.895528L8.93894 0.887102L8.93594 0.550503L8.29782 0.558833L8.30523 -0.00157756Z" fill="#F6C540"/>
<path fill-rule="evenodd" clip-rule="evenodd" d="M3.28223 5.75476H12.9394V13.484C12.9394 13.484 12.6473 17.3341 8.1108 17.3341C3.57427 17.3341 3.28223 13.484 3.28223 13.484V5.75476Z" fill="#C51918"/>
<path fill-rule="evenodd" clip-rule="evenodd" d="M6.19794 6.02197C6.10939 6.02197 5.97307 6.0819 5.79238 6.14977C5.61169 6.21763 5.42193 6.36415 5.60715 6.5109C5.79238 6.65766 6.05754 6.97975 6.05754 6.85932C6.05754 6.7389 6.3743 6.62213 6.3743 6.68051C6.3743 6.7389 6.27623 6.85932 6.53347 6.85932C6.79071 6.85932 6.92324 6.93094 6.64877 6.93094C6.3743 6.93094 6.34447 7.04925 6.16609 7.04925C5.98771 7.04925 5.60715 6.93005 5.60715 6.85932C5.60715 6.7886 5.82754 7.20704 6.05754 7.20704C6.28754 7.20704 6.41817 7.41063 6.53347 7.30883C6.64877 7.20704 6.63512 7.20704 6.82139 7.20704C7.00766 7.20704 6.93968 6.79592 6.93968 6.79592C6.93968 6.79592 6.28649 6.02197 6.19794 6.02197Z" fill="#E8AA00"/>
<path fill-rule="evenodd" clip-rule="evenodd" d="M9.92413 6.02197C10.0127 6.02197 10.149 6.0819 10.3297 6.14977C10.5104 6.21763 10.7001 6.36415 10.5149 6.5109C10.3297 6.65766 10.0645 6.97975 10.0645 6.85932C10.0645 6.7389 9.74777 6.62213 9.74777 6.68051C9.74777 6.7389 9.84584 6.85932 9.5886 6.85932C9.33136 6.85932 9.19883 6.93094 9.4733 6.93094C9.74777 6.93094 9.7776 7.04925 9.95598 7.04925C10.1344 7.04925 10.5149 6.93005 10.5149 6.85932C10.5149 6.7886 10.2945 7.20704 10.0645 7.20704C9.83453 7.20704 9.7039 7.41063 9.5886 7.30883C9.4733 7.20704 9.48695 7.20704 9.30068 7.20704C9.11441 7.20704 9.18239 6.79592 9.18239 6.79592C9.18239 6.79592 9.83558 6.02197 9.92413 6.02197Z" fill="#E8AA00"/>
<path fill-rule="evenodd" clip-rule="evenodd" d="M4.87582 6.86229C4.6907 7.2691 6.10949 8.7803 6.10949 8.7803H6.26835C6.33511 8.7803 6.45927 8.62552 6.60919 8.43862C6.71194 8.31053 6.82679 8.16736 6.94355 8.04859C7.1632 7.82517 7.04679 7.63749 6.93827 7.46252C6.90494 7.40878 6.87234 7.35623 6.85047 7.30421C6.80308 7.19154 6.79634 7.14659 6.78864 7.09523C6.78121 7.0457 6.77288 6.99022 6.72635 6.86229C6.65798 6.67431 6.41958 6.43175 6.25428 6.26356C6.19045 6.19862 6.13752 6.14476 6.10949 6.10942C6.02099 5.99785 6.08813 5.9985 6.27287 6.00028C6.29822 6.00052 6.32578 6.00079 6.35546 6.00079C6.60143 6.00079 7.0713 6.10942 7.21175 6.23629C7.3522 6.36316 7.49947 6.39023 7.71588 6.39023C7.93228 6.39023 7.7988 6.52755 7.60172 6.62028C7.8138 6.65849 7.91 6.99143 7.95363 7.28725C8.03358 6.99147 8.16957 6.65861 8.38161 6.6204C8.18454 6.52767 8.05106 6.39035 8.26746 6.39035C8.48386 6.39035 8.63114 6.36329 8.77159 6.23641C8.91203 6.10954 9.38191 6.00091 9.62788 6.00091C9.65756 6.00091 9.68512 6.00064 9.71046 6.0004C9.89521 5.99862 9.96235 5.99797 9.87385 6.10954C9.84581 6.14488 9.79288 6.19874 9.72905 6.26368C9.56375 6.43187 9.32536 6.67443 9.25698 6.86242C9.21045 6.99034 9.20213 7.04583 9.1947 7.09535C9.187 7.14671 9.18026 7.19166 9.13287 7.30434C9.11099 7.35635 9.0784 7.4089 9.04506 7.46265C8.93655 7.63761 8.82014 7.8253 9.03978 8.04872C9.15654 8.16748 9.27139 8.31065 9.37414 8.43874C9.52407 8.62564 9.64823 8.78042 9.71499 8.78042H9.87385C9.87385 8.78042 11.2926 7.26922 11.1075 6.86242C11.036 6.70518 10.9205 6.55701 10.825 6.4344C10.6734 6.23979 10.572 6.10954 10.7756 6.10954C11.1075 6.10954 12.4306 6.90009 12.4306 8.68267C12.4306 10.4652 12.3084 11.4791 12.0247 12.1893C11.8311 12.674 12.0084 13.1447 12.1406 13.4955C12.2021 13.6588 12.2538 13.7961 12.2538 13.8967C12.2538 14.2137 11.7329 13.936 11.7329 13.7375C11.7329 13.6431 11.6615 13.7837 11.5867 13.9311C11.5042 14.0936 11.4175 14.2645 11.4175 14.138C11.4175 14.003 11.3345 13.8604 11.2613 13.7348C11.2037 13.6359 11.1522 13.5476 11.1522 13.4817C11.1522 13.4158 11.0792 13.4183 10.9974 13.421C10.8935 13.4245 10.7756 13.4284 10.7756 13.2934C10.7756 13.2023 10.7381 13.1841 10.6914 13.1615C10.6144 13.1241 10.5124 13.0747 10.5124 12.6662C10.5124 12.3635 10.4481 12.4708 10.3743 12.5938C10.3064 12.707 10.2305 12.8336 10.1893 12.6662C10.1853 12.6499 10.1427 12.5798 10.09 12.493C10.0133 12.3667 9.91531 12.2053 9.88396 12.1238C9.88041 12.1107 9.87703 12.0976 9.87385 12.0845C9.87385 12.0935 9.87748 12.1069 9.88396 12.1238C9.9806 12.4803 10.2125 12.8519 10.3597 13.0288C10.5124 13.2123 10.7756 13.6107 10.7756 13.6107C10.7756 13.6107 10.5301 13.7397 10.3597 13.6107C10.2645 13.5386 10.2581 13.6064 10.2511 13.6803C10.2456 13.7387 10.2397 13.801 10.1893 13.801C10.1577 13.801 10.1279 13.8058 10.1014 13.8102C10.0818 13.8134 10.0639 13.8163 10.0485 13.8167C10.0177 13.7429 9.98523 13.693 9.98523 13.7375C9.98523 13.8031 10.0094 13.8178 10.0485 13.8167C10.1053 13.9533 10.1564 14.1716 9.98523 14.0257C9.86301 13.9215 9.77731 13.8793 9.72054 13.8512C9.65484 13.8188 9.62788 13.8055 9.62788 13.7375C9.62788 13.6696 9.60118 13.6926 9.55936 13.7286C9.52307 13.7599 9.47539 13.801 9.42388 13.801C9.3575 13.801 9.34369 13.7139 9.32359 13.5872C9.31011 13.5023 9.29382 13.3996 9.25698 13.2934C9.2484 13.2687 9.24034 13.2449 9.2327 13.2224C9.15859 13.0038 9.12403 12.9019 9.03978 13.1776C9.00041 13.3064 8.93087 13.3976 8.87031 13.4771C8.78792 13.5851 8.72216 13.6714 8.77159 13.801C8.79094 13.8517 8.81521 13.909 8.8412 13.9703C8.93039 14.1809 9.03978 14.4391 9.03978 14.6424C9.03978 14.7633 9.15656 14.9281 9.26631 15.0829C9.39495 15.2644 9.51394 15.4323 9.42388 15.4999C9.25698 15.6252 9.45894 16.0472 9.62788 16.2637C9.62788 16.8962 7.85891 16.9771 7.85891 16.9771V16.9717C7.85562 16.9752 7.85227 16.977 7.84885 16.977C7.60172 16.977 6.18652 16.4801 6.35546 16.2636C6.5244 16.0471 6.72635 15.6251 6.55946 15.4998C6.4694 15.4322 6.58838 15.2643 6.71703 15.0828C6.82678 14.928 6.94355 14.7632 6.94355 14.6423C6.94355 14.439 7.05294 14.1808 7.14213 13.9702C7.16812 13.9089 7.1924 13.8516 7.21175 13.8008C7.26118 13.6713 7.19541 13.585 7.11303 13.477C7.05247 13.3975 6.98293 13.3063 6.94355 13.1774C6.85931 12.9018 6.82475 13.0037 6.75064 13.2222C6.743 13.2448 6.73494 13.2685 6.72635 13.2933C6.68952 13.3995 6.67322 13.5022 6.65975 13.5871C6.63965 13.7137 6.62583 13.8008 6.55946 13.8008C6.50795 13.8008 6.46027 13.7598 6.42397 13.7285C6.38215 13.6925 6.35546 13.6695 6.35546 13.7374C6.35546 13.8054 6.3285 13.8187 6.26279 13.8511C6.20602 13.8791 6.12033 13.9214 5.99811 14.0256C5.82697 14.1715 5.878 13.9531 5.93488 13.8166C5.97399 13.8177 5.99811 13.803 5.99811 13.7374C5.99811 13.6929 5.96564 13.7428 5.93488 13.8166C5.9194 13.8162 5.90156 13.8132 5.88194 13.81C5.85543 13.8057 5.82565 13.8008 5.79403 13.8008C5.74367 13.8008 5.73777 13.7386 5.73224 13.6802C5.72523 13.6063 5.71881 13.5385 5.62363 13.6106C5.45322 13.7396 5.20773 13.6106 5.20773 13.6106C5.20773 13.6106 5.47097 13.2122 5.62363 13.0287C5.77087 12.8517 6.00273 12.4802 6.09937 12.1237C6.10586 12.1068 6.10949 12.0934 6.10949 12.0844C6.10631 12.0974 6.10293 12.1106 6.09937 12.1237C6.06803 12.2052 5.97002 12.3666 5.89334 12.4929C5.84066 12.5796 5.79804 12.6498 5.79403 12.6661C5.75287 12.8335 5.67696 12.7069 5.60906 12.5937C5.53528 12.4707 5.47097 12.3634 5.47097 12.6661C5.47097 13.0746 5.36896 13.124 5.29194 13.1614C5.24524 13.184 5.20773 13.2022 5.20773 13.2933C5.20773 13.4283 5.08983 13.4243 4.98596 13.4209C4.90419 13.4181 4.83111 13.4157 4.83111 13.4816C4.83111 13.5475 4.77963 13.6358 4.72203 13.7347C4.64886 13.8603 4.56581 14.0029 4.56581 14.1379C4.56581 14.2644 4.47909 14.0935 4.39661 13.931C4.32179 13.7836 4.25046 13.643 4.25046 13.7374C4.25046 13.9358 3.72953 14.2135 3.72953 13.8966C3.72953 13.796 3.78125 13.6587 3.84276 13.4954C3.97491 13.1446 4.15224 12.6739 3.95864 12.1892C3.67495 11.4789 3.55273 10.4651 3.55273 8.68255C3.55273 6.89997 4.87582 6.10942 5.20773 6.10942C5.41134 6.10942 5.30989 6.23966 5.1583 6.43428C5.06279 6.55689 4.94738 6.70506 4.87582 6.86229Z" fill="#F7FCFF"/>
<path fill-rule="evenodd" clip-rule="evenodd" d="M6.31152 8.90479H9.91022V11.585C9.91022 11.585 9.52389 12.92 8.11087 12.92C6.69785 12.92 6.31152 11.585 6.31152 11.585V8.90479Z" fill="#C51918"/>
<path fill-rule="evenodd" clip-rule="evenodd" d="M8.59633 8.86584H7.6543V10.4044H6.30859V10.9539H7.6543V12.9323H8.59633V10.9539H9.94213V10.4044H8.59633V8.86584Z" fill="#F7FCFF"/>
<path fill-rule="evenodd" clip-rule="evenodd" d="M5.58479 14.9529C6.02218 14.4498 6.4321 14.0023 6.06739 13.6853C5.70268 13.3682 5.26726 13.6431 4.82987 14.1462C4.39249 14.6494 4.11877 15.1903 4.48348 15.5074C4.84819 15.8244 5.14741 15.4561 5.58479 14.9529Z" fill="#E8AA00"/>
<path fill-rule="evenodd" clip-rule="evenodd" d="M10.3478 14.9529C9.91044 14.4498 9.50051 14.0023 9.86523 13.6853C10.2299 13.3682 10.6654 13.6431 11.1027 14.1462C11.5401 14.6494 11.8139 15.1903 11.4491 15.5074C11.0844 15.8244 10.7852 15.4561 10.3478 14.9529Z" fill="#E8AA00"/>
</g>
</g>
<defs>
<clipPath id="clip0_0_738">
<rect width="26" height="18" rx="2" fill="white"/>
</clipPath>
</defs>
</svg>
