<svg width="26" height="18" viewBox="0 0 26 18" fill="none" xmlns="http://www.w3.org/2000/svg">
<g clip-path="url(#clip0_0_762)">
<rect width="26" height="18" rx="2" fill="white"/>
<path fill-rule="evenodd" clip-rule="evenodd" d="M0 -0.749756V18.7502H26V-0.749756H0Z" fill="#3D58DB"/>
<mask id="mask0_0_762" style="mask-type:luminance" maskUnits="userSpaceOnUse" x="0" y="-1" width="26" height="20">
<path fill-rule="evenodd" clip-rule="evenodd" d="M0 -0.749756V18.7502H26V-0.749756H0Z" fill="white"/>
</mask>
<g mask="url(#mask0_0_762)">
<path fill-rule="evenodd" clip-rule="evenodd" d="M0 -0.749756V5.75024H26V-0.749756H0Z" fill="#F7FCFF"/>
<path fill-rule="evenodd" clip-rule="evenodd" d="M0 12.2502V18.7502H26V12.2502H0Z" fill="#E31D1C"/>
<path d="M12.6781 4.14978L13.082 4.1068L13.0434 3.74353H12.6781H5.15504H4.77526L4.74971 4.12245L5.15504 4.14978L4.74971 4.12252L4.7497 4.1227L4.74965 4.12335L4.74949 4.12584L4.74884 4.13553L4.74636 4.17311L4.73715 4.31627C4.7293 4.44008 4.7183 4.61822 4.70564 4.83593C4.68031 5.27122 4.64831 5.86534 4.62164 6.50004C4.56909 7.75097 4.53425 9.21539 4.62526 9.8993C4.80285 11.2338 5.61546 14.2296 8.75847 15.5873L8.92239 15.6581L9.0854 15.5852C12.0707 14.2503 13.0691 11.5621 13.2995 9.90152C13.4157 9.06348 13.3566 7.59705 13.275 6.37846C13.2337 5.76094 13.1855 5.19353 13.1476 4.78063C13.1287 4.57409 13.1123 4.40601 13.1007 4.28939L13.087 4.15466L13.0833 4.11926L13.0824 4.11009L13.0821 4.1077L13.082 4.10706L13.082 4.10688L12.6781 4.14978Z" fill="#E31D1C" stroke="white" stroke-width="0.8125"/>
<mask id="mask1_0_762" style="mask-type:luminance" maskUnits="userSpaceOnUse" x="4" y="3" width="10" height="14">
<path d="M12.6781 4.14978L13.082 4.1068L13.0434 3.74353H12.6781H5.15504H4.77526L4.74971 4.12245L5.15504 4.14978L4.74971 4.12252L4.7497 4.1227L4.74965 4.12335L4.74949 4.12584L4.74884 4.13553L4.74636 4.17311L4.73715 4.31627C4.7293 4.44008 4.7183 4.61822 4.70564 4.83593C4.68031 5.27122 4.64831 5.86534 4.62164 6.50004C4.56909 7.75097 4.53425 9.21539 4.62526 9.8993C4.80285 11.2338 5.61546 14.2296 8.75847 15.5873L8.92239 15.6581L9.0854 15.5852C12.0707 14.2503 13.0691 11.5621 13.2995 9.90152C13.4157 9.06348 13.3566 7.59705 13.275 6.37846C13.2337 5.76094 13.1855 5.19353 13.1476 4.78063C13.1287 4.57409 13.1123 4.40601 13.1007 4.28939L13.087 4.15466L13.0833 4.11926L13.0824 4.11009L13.0821 4.1077L13.082 4.10706L13.082 4.10688L12.6781 4.14978Z" fill="white" stroke="white" stroke-width="0.8125"/>
</mask>
<g mask="url(#mask1_0_762)">
<path fill-rule="evenodd" clip-rule="evenodd" d="M8.01246 4.604C8.01246 4.604 8.18023 4.85963 8.25534 5.25051C8.33045 5.6414 8.3434 6.08605 8.3434 6.08605L7.07259 5.89008V7.3371L8.37896 7.12987L8.33989 8.64725C8.33989 8.64725 8.17388 8.69771 7.77464 8.64725C7.37539 8.59678 6.58887 8.38537 6.58887 8.38537V9.76694C6.58887 9.76694 7.38796 9.51129 7.77464 9.45262C8.16131 9.39396 8.33989 9.45262 8.33989 9.45262L8.35251 10.7774H9.64823L9.6356 9.45262C9.6356 9.45262 10.0434 9.38985 10.4741 9.45781C10.9049 9.52577 11.3135 9.76694 11.3135 9.76694V8.38537C11.3135 8.38537 10.8996 8.59162 10.5091 8.64294C10.1187 8.69426 9.6356 8.64725 9.6356 8.64725L9.67468 7.12987C9.67468 7.12987 9.90083 7.07392 10.2041 7.11508C10.5073 7.15625 10.8868 7.3371 10.8868 7.3371V5.89008C10.8868 5.89008 10.5169 6.09137 10.2259 6.12789C9.9348 6.1644 9.63912 6.08605 9.63912 6.08605C9.63912 6.08605 9.64993 5.6195 9.71252 5.27535C9.7751 4.93121 9.95233 4.604 9.95233 4.604H8.01246Z" fill="#F7FCFF"/>
<path fill-rule="evenodd" clip-rule="evenodd" d="M5.60352 12.449C5.60352 12.449 5.9606 11.6826 6.54165 11.5369C7.1227 11.3912 7.73198 11.9929 7.73198 11.9929C7.73198 11.9929 8.10402 10.7771 9.01085 10.7771C9.91769 10.7771 10.2359 11.9929 10.2359 11.9929C10.2359 11.9929 10.6228 11.5369 11.1792 11.5369C11.7356 11.5369 12.2511 12.449 12.2511 12.449C12.2511 12.449 10.5892 15.4662 8.9273 15.4662C7.26541 15.4662 5.60352 12.449 5.60352 12.449Z" fill="#2E42A5"/>
</g>
</g>
</g>
<defs>
<clipPath id="clip0_0_762">
<rect width="26" height="18" rx="2" fill="white"/>
</clipPath>
</defs>
</svg>
