<svg width="100" height="100" viewBox="0 0 100 100" fill="none" xmlns="http://www.w3.org/2000/svg">
<path d="M0 8C0 3.58172 3.58172 0 8 0H92C96.4183 0 100 3.58172 100 8V92C100 96.4183 96.4183 100 92 100H8C3.58172 100 0 96.4183 0 92V8Z" fill="#171717"/>
<path d="M31.2492 27.2353C31.2708 27.2472 31.2953 27.2523 31.3198 27.2501C31.3442 27.2479 31.3675 27.2384 31.3865 27.2228C31.4056 27.2073 31.4195 27.1864 31.4266 27.1628C31.4337 27.1392 31.4336 27.1141 31.4264 27.0905C30.7872 25.0849 25.1215 25.4883 23.5564 25.7895C23.4832 25.8036 23.4351 25.7753 23.412 25.7045C23.1566 24.8848 22.5983 24.4318 21.7371 24.3455C21.6988 24.3417 21.6624 24.3271 21.6319 24.3035C21.6014 24.2799 21.5782 24.2483 21.5647 24.2121C21.5513 24.1759 21.5483 24.1367 21.5559 24.0988C21.5636 24.061 21.5817 24.0261 21.6082 23.9981C23.9665 21.5098 28.3712 21.338 30.9662 23.5251C31.7633 24.1969 33.4516 26.2817 32.6777 27.4148C32.4467 27.7533 32.1149 27.8987 31.6824 27.8511C31.6252 27.8449 31.5673 27.853 31.514 27.8745C31.4606 27.8961 31.4134 27.9305 31.3766 27.9746C31.3398 28.0188 31.3145 28.0714 31.3031 28.1276C31.2916 28.1839 31.2943 28.2421 31.3108 28.297C31.7434 29.7551 31.6612 31.0729 31.0644 32.2504C28.4097 37.501 20.7727 34.8468 21.5908 29.0151C21.5985 28.9533 21.6293 28.9057 21.6832 28.8723C22.7382 28.2159 23.4332 27.8955 23.6026 26.5886C23.6129 26.5153 23.6539 26.4728 23.7258 26.4612C26.2651 26.0385 29.0142 25.9497 31.2492 27.2353Z" fill="#F0AC52"/>
<path d="M14 32.7501V31.8737C14.5679 28.8237 17.9504 26.0825 20.5589 24.9031C22.8884 23.8491 24.182 26.9242 22.3397 28.0013C20.661 28.9839 15.5343 31.8022 18.6646 34.1727C19.8518 35.071 21.0036 35.7132 22.1202 36.0993C22.7035 36.302 23.4062 36.2904 24.0531 36.3502C24.1288 36.3579 24.1622 36.3991 24.1532 36.4738C23.901 38.464 22.9596 43.1509 25.1311 44.3671C25.2595 44.4378 25.3314 44.3999 25.3468 44.2532L25.8646 39.2844C25.8667 39.2659 25.873 39.2482 25.8829 39.2325C25.8928 39.2168 25.9061 39.2035 25.9218 39.1937C25.9376 39.1838 25.9553 39.1777 25.9737 39.1757C25.9921 39.1737 26.0108 39.1759 26.0282 39.1821C26.3427 39.294 26.661 39.3024 26.9831 39.2072C27.0182 39.1967 27.0552 39.1942 27.0914 39.1999C27.1276 39.2056 27.162 39.2193 27.1923 39.24C27.2225 39.2607 27.2477 39.2879 27.2662 39.3196C27.2846 39.3513 27.2958 39.3868 27.2988 39.4234L27.7185 44.342C27.7249 44.4128 27.7609 44.4353 27.8263 44.4095C30.2327 43.4675 29.172 38.3578 28.9506 36.466C28.9416 36.3927 28.9737 36.3541 29.0469 36.3502C31.0663 36.244 32.6372 36.2479 34.1369 37.7922C38.3337 42.1143 37.7889 50.7103 37.6233 55.8258C37.5598 57.7928 34.957 58.4318 34.1851 56.6867C34.0529 56.3882 33.999 55.9094 34.0233 55.2505C34.0978 53.1554 34.0978 51.0655 34.0233 48.9807C33.9444 46.7897 33.6345 44.3478 32.8028 42.3035C32.7155 42.0899 32.6719 42.0989 32.6719 42.3305C32.6732 52.5319 32.6738 62.6908 32.6738 72.8073C32.6738 73.8729 32.7913 75.6604 32.2291 76.5735C30.5677 79.2702 27.0255 77.8359 27.0158 74.8323C26.9927 68.2613 26.987 61.6896 26.9985 55.1173C26.9985 55.0465 26.9639 55.0112 26.8946 55.0112H26.2188C26.1821 55.0112 26.1468 55.0258 26.1208 55.0519C26.0948 55.0779 26.0802 55.1133 26.0802 55.1501C26.0789 61.5255 26.0796 67.899 26.0822 74.2705C26.0822 75.3 25.9846 76.0233 25.7895 76.4403C25.1446 77.8128 23.1636 78.3938 21.8642 77.5811C20.095 76.4769 20.3953 73.7165 20.403 71.9985C20.4569 61.142 20.4691 50.2862 20.4396 39.4311C20.4396 39.3642 20.4088 39.3191 20.3472 39.296C17.6963 38.242 14.0943 36.0259 14 32.7501Z" fill="#F0AC52"/>
<path d="M86 52.7624V55.5537C85.3917 56.8529 84.4041 57.1019 82.966 57.127C81.9636 57.1437 80.9523 57.1437 79.932 57.127C79.9071 57.1265 79.8824 57.1309 79.8593 57.1401C79.8362 57.1493 79.8152 57.163 79.7974 57.1804C79.7797 57.1979 79.7656 57.2187 79.756 57.2417C79.7463 57.2646 79.7414 57.2893 79.7414 57.3142C79.7427 61.7515 79.7459 66.212 79.751 70.6956C79.7549 73.1684 78.4381 76.2338 75.5908 76.3207C73.9544 76.3709 72.4066 76.4983 71.0898 76.0446C69.0164 75.3285 68.5159 72.9618 68.4293 71.0064C68.4278 70.9762 68.4148 70.9477 68.3929 70.9268C68.371 70.906 68.342 70.8944 68.3118 70.8944C59.3465 70.8674 52.0002 70.7458 41.4639 70.9292C41.3972 70.9304 41.3612 70.9639 41.3561 71.0295C40.9826 75.9172 39.0844 76.4771 34.6816 76.3323C34.6123 76.3297 34.5796 76.293 34.5835 76.2222C34.8222 71.9638 34.7644 67.6784 34.7336 63.3775C34.7335 63.3598 34.738 63.3424 34.7467 63.3269C34.7554 63.3115 34.7679 63.2985 34.783 63.2894C34.7981 63.2802 34.8154 63.2752 34.8331 63.2747C34.8507 63.2743 34.8682 63.2784 34.8838 63.2868C36.8378 64.3543 39.3771 64.4605 41.564 64.6825C42.1531 64.7442 43.6258 64.7211 43.7279 63.9431C43.9223 62.4625 43.5065 60.3352 41.8008 59.9202C40.6085 59.6307 39.4258 59.3469 38.2528 59.0689C38.2414 59.0666 38.2309 59.0611 38.2225 59.053C38.2141 59.045 38.2082 59.0347 38.2053 59.0234C38.2025 59.0121 38.203 59.0002 38.2066 58.9891C38.2102 58.9781 38.2169 58.9683 38.2258 58.9608C39.6446 57.708 39.7679 56.0479 39.7505 54.27C39.7505 54.2095 39.7801 54.1767 39.8391 54.1716C51.4419 53.1755 61.2947 53.3705 73.0169 54.3993C73.529 54.4437 75.8122 54.7101 75.5966 53.5654C75.4888 53.0005 75.2321 52.1801 74.8265 51.1042C74.5082 50.26 73.7228 48.3193 72.4701 45.2822C72.0312 44.2192 71.6122 43.4361 71.213 42.9329C70.2139 41.6724 68.7893 40.5199 67.2049 40.0045C66.8122 39.8771 66.2436 39.8128 65.4992 39.8115C58.2877 39.7909 51.0761 39.7896 43.8645 39.8076C42.0145 39.8134 40.1587 41.1203 38.9497 42.4387C38.8894 42.5044 38.8476 42.4941 38.8245 42.4079C38.5088 41.1788 38.0538 40.0052 37.4596 38.8868C37.4032 38.7826 37.4256 38.7002 37.527 38.6398C38.942 37.7943 40.432 37.1206 42.1069 37.0646C44.0667 37.0002 46.0271 36.9861 47.9882 37.0221C48.0189 37.0226 48.049 37.0136 48.0739 36.9962C48.0988 36.9788 48.1174 36.9541 48.1268 36.9256C48.4143 36.0904 48.712 35.2674 49.0201 34.4566C49.5341 33.1092 50.2021 32.6324 51.6036 32.673C53.7585 32.7347 55.914 32.7367 58.0701 32.6788C58.7144 32.662 59.195 32.7238 59.5121 32.8641C60.7037 33.3872 61.2466 35.7751 61.6586 36.9294C61.6817 36.9912 61.726 37.0221 61.7914 37.0221C63.7319 36.9874 65.6667 37.0022 67.5957 37.0665C69.5439 37.1321 72.0428 38.0954 73.3191 39.63C74.2945 40.8024 75.0126 41.9195 75.4734 42.9812C76.6182 45.6142 77.7707 48.2434 78.9309 50.8687C78.9578 50.9292 79.0047 50.9601 79.0714 50.9613C80.6244 50.9897 82.1703 51.0257 83.7091 51.0694C85.0355 51.1061 85.7979 51.3822 86 52.7624ZM65.9747 63.503C65.9613 65.0087 67.9307 64.7114 68.8759 64.6168C70.031 64.501 75.3193 64.1439 75.3829 62.478C75.4214 61.487 75.447 60.4948 75.4599 59.5013C75.4734 58.3817 74.8669 58.3701 73.9159 58.567C71.9754 58.9685 70.0425 59.4074 68.1174 59.8835C66.406 60.3082 65.9901 61.9104 65.9747 63.503Z" fill="#F0AC52"/>
<path d="M26.0994 38.6323C26.0458 38.6325 25.9926 38.6222 25.943 38.6018C25.8934 38.5815 25.8483 38.5516 25.8102 38.5138C25.7721 38.4759 25.7419 38.431 25.7211 38.3814C25.7004 38.3319 25.6896 38.2787 25.6893 38.2249L25.6855 37.5281C25.6847 37.3712 25.6981 37.2157 25.725 37.0706C25.7519 36.9256 25.7916 36.7937 25.8421 36.6826C25.8925 36.5714 25.9525 36.4832 26.0188 36.4229C26.0851 36.3626 26.1563 36.3315 26.2283 36.3312L26.8752 36.3274C27.0207 36.3269 27.1609 36.4523 27.2648 36.676C27.3688 36.8997 27.4281 37.2035 27.4296 37.5204L27.4335 38.2172C27.4337 38.271 27.4234 38.3242 27.4032 38.374C27.3829 38.4237 27.353 38.469 27.3153 38.5072C27.2776 38.5453 27.2327 38.5757 27.1833 38.5965C27.1339 38.6173 27.0809 38.6281 27.0273 38.6284L26.0994 38.6323Z" fill="#F0AC52"/>
</svg>
