<svg width="100" height="100" viewBox="0 0 100 100" fill="none" xmlns="http://www.w3.org/2000/svg">
<path d="M0 8C0 3.58172 3.58172 0 8 0H92C96.4183 0 100 3.58172 100 8V92C100 96.4183 96.4183 100 92 100H8C3.58172 100 0 96.4183 0 92V8Z" fill="#171717"/>
<path d="M47.5593 46.8445L51.0149 46.8425C51.0596 46.8425 51.1026 46.8245 51.1342 46.7926C51.1659 46.7606 51.1837 46.7172 51.1837 46.672C51.1715 43.3294 51.164 39.9732 51.1613 36.6034C51.1613 35.4847 51.5783 34.7136 52.4122 34.2902C52.7823 34.1022 53.3586 34.0082 54.141 34.0082C56.3511 34.0068 58.5606 34.0082 60.7694 34.0122C61.4813 34.0136 62.0156 34.1069 62.3722 34.2922C63.1817 34.7102 63.5857 35.4461 63.5844 36.4999C63.5816 39.8832 63.5816 43.28 63.5844 46.6903C63.5844 46.7115 63.5886 46.7325 63.5968 46.7521C63.605 46.7717 63.617 46.7895 63.6321 46.8044C63.6473 46.8193 63.6652 46.8311 63.685 46.839C63.7047 46.8469 63.7258 46.8509 63.7471 46.8506C64.8576 46.8425 65.9871 46.829 67.1356 46.81C70.0705 46.7654 72.3423 48.9345 72.3769 51.9214C72.3972 53.6232 72.4047 55.3013 72.3993 56.9557C72.3992 56.9775 72.3944 56.9989 72.3853 57.0187C72.3762 57.0384 72.363 57.0561 72.3465 57.0705C72.33 57.0848 72.3105 57.0956 72.2895 57.102C72.2685 57.1085 72.2463 57.1105 72.2244 57.1079L30.0291 52.2684C30.0177 52.2674 30.0071 52.2621 29.9992 52.2535C29.9914 52.2449 29.9868 52.2336 29.9864 52.2218C29.8542 49.3343 31.9206 46.8973 34.9084 46.8547C34.9789 46.8547 35.0142 46.8195 35.0142 46.7492C35.025 39.9799 35.0237 33.21 35.0101 26.4395C35.0061 23.8908 35.5654 22.9919 38.1464 23.0001C40.0976 23.0055 42.0474 23.0061 43.9959 23.0021C45.505 22.998 46.6847 23.0143 47.2257 24.4286C47.3491 24.7492 47.4108 25.2632 47.4108 25.9707C47.4095 32.8373 47.4095 39.7459 47.4108 46.6964C47.4108 46.7357 47.4264 46.7734 47.4543 46.8011C47.4821 46.8289 47.5199 46.8445 47.5593 46.8445Z" fill="#F0AC52"/>
<path d="M86 63.2603V63.6864C85.9281 64.0084 85.798 64.3987 85.6095 64.8572C84.2088 68.2594 82.7966 71.6569 81.3729 75.0496C80.8115 76.3868 80.2054 77.2695 78.9119 77.7403C78.4386 77.9134 77.5607 78 76.278 78C58.7905 77.9973 41.3024 77.9973 23.8136 78C22.4563 78 21.3966 77.5299 20.6346 76.5898C20.301 76.1799 19.9769 75.4703 19.6624 74.4612C17.7369 68.2845 15.8495 62.1064 14 55.927V55.5272C14.1817 54.5302 14.6719 53.8789 15.4705 53.5732C15.8556 53.4257 16.4414 53.3973 17.2278 53.4879C39.3986 56.0311 61.5681 58.5804 83.7363 61.1358C85.0108 61.2832 85.7654 61.9914 86 63.2603Z" fill="#F0AC52"/>
</svg>
