<svg width="100" height="100" viewBox="0 0 100 100" fill="none" xmlns="http://www.w3.org/2000/svg">
<path d="M0 8C0 3.58172 3.58172 0 8 0H92C96.4183 0 100 3.58172 100 8V92C100 96.4183 96.4183 100 92 100H8C3.58172 100 0 96.4183 0 92V8Z" fill="#171717"/>
<path d="M85.7393 53.2858C85.1992 46.7191 84.3096 45.4402 83.9735 44.9592C83.2009 43.8477 81.9647 43.1214 80.6565 42.3592C80.5826 42.3169 80.5187 42.2565 80.4699 42.1828C80.4212 42.1091 80.389 42.0241 80.3757 41.9346C80.3625 41.8451 80.3686 41.7535 80.3937 41.667C80.4187 41.5805 80.462 41.5015 80.52 41.4362C80.7623 41.1701 80.9485 40.8503 81.0658 40.4988C81.1831 40.1474 81.2288 39.7725 81.1996 39.4001C81.1432 38.7397 80.8597 38.1264 80.4054 37.6819C79.951 37.2373 79.359 36.9939 78.7468 37H76.4064C76.3061 37.0006 76.2059 37.0077 76.1064 37.0211C76.0381 36.989 75.9673 36.9635 75.8948 36.9447C74.5086 33.7711 72.6109 29.4259 68.6773 27.3052C62.8429 24.1625 52.0953 24 49.995 24C47.8947 24 37.1471 24.1625 31.3203 27.3004C27.3867 29.421 25.4889 33.7663 24.1027 36.9399L24.0907 36.9659C24.0216 36.9764 23.9537 36.9949 23.8882 37.0211C23.7886 37.0077 23.6885 37.0006 23.5881 37H21.2433C20.631 36.9939 20.039 37.2373 19.5847 37.6819C19.1304 38.1264 18.8469 38.7397 18.7904 39.4001C18.7638 39.7717 18.8115 40.1451 18.9304 40.4948C19.0492 40.8445 19.2364 41.1623 19.479 41.4265C19.5371 41.4918 19.5804 41.5708 19.6054 41.6573C19.6304 41.7438 19.6366 41.8354 19.6233 41.9249C19.6101 42.0144 19.5778 42.0993 19.5291 42.173C19.4804 42.2467 19.4165 42.3071 19.3425 42.3495C18.0343 43.1165 16.7921 43.8429 16.0255 44.9495C15.6895 45.437 14.8013 46.7094 14.2598 53.276C13.9597 56.9713 13.9147 60.7965 14.1503 63.26C14.6438 68.3788 15.5695 71.4727 15.6085 71.6011C15.7505 72.0683 16.012 72.4822 16.3625 72.7949C16.713 73.1076 17.1382 73.3061 17.5888 73.3675V73.4C17.5888 74.0896 17.8417 74.7509 18.2918 75.2385C18.742 75.7261 19.3525 76 19.9891 76H28.3904C29.027 76 29.6375 75.7261 30.0877 75.2385C30.5378 74.7509 30.7907 74.0896 30.7907 73.4C32.0824 73.4 32.981 73.1497 33.9337 72.8833C35.309 72.4818 36.7149 72.2148 38.1343 72.0854C42.7115 71.6125 47.2631 71.45 49.995 71.45C52.6714 71.45 57.4241 71.6125 62.0088 72.0854C63.4338 72.2151 64.8452 72.4832 66.2259 72.8865C67.1381 73.14 68.0037 73.374 69.2024 73.3984C69.2024 74.0879 69.4552 74.7493 69.9054 75.2368C70.3555 75.7244 70.9661 75.9984 71.6027 75.9984H80.0039C80.6406 75.9984 81.2511 75.7244 81.7013 75.2368C82.1514 74.7493 82.4043 74.0879 82.4043 73.3984V73.3789C82.8559 73.3186 83.2824 73.1206 83.6341 72.8079C83.9857 72.4951 84.2481 72.0806 84.3906 71.6125C84.4296 71.4841 85.3552 68.3901 85.8488 63.2714C86.0843 60.8063 86.0423 56.9875 85.7393 53.2858ZM28.4414 39.1629C29.6415 36.4004 31.0142 33.2739 33.4581 31.956C36.9896 30.0515 44.3092 29.1935 49.995 29.1935C55.6809 29.1935 63.0004 30.045 66.532 31.956C68.9758 33.2739 70.3425 36.402 71.5487 39.1629L71.6987 39.5155C71.7865 39.7162 71.8252 39.938 71.8114 40.1596C71.7975 40.3812 71.7315 40.5952 71.6195 40.7813C71.5076 40.9674 71.3535 41.1193 71.172 41.2226C70.9905 41.3259 70.7875 41.3771 70.5826 41.3712C65.5973 41.225 55.0958 40.757 49.995 40.757C44.8943 40.757 34.3927 41.2364 29.4 41.3826C29.195 41.3884 28.9921 41.3373 28.8106 41.234C28.629 41.1307 28.4749 40.9788 28.363 40.7927C28.2511 40.6066 28.185 40.3926 28.1712 40.171C28.1573 39.9494 28.1961 39.7276 28.2838 39.5269C28.3363 39.4066 28.3918 39.2847 28.4414 39.1629ZM30.2311 52.1027C27.6504 52.4392 25.0533 52.6052 22.454 52.6C20.8637 52.6 19.224 52.1125 18.9195 50.5785C18.7109 49.5466 18.7334 48.9665 18.8459 48.3831C18.9405 47.8875 19.0905 47.5267 19.8406 47.4C21.7909 47.075 22.8815 47.4829 26.074 48.5017C28.1908 49.1761 29.718 50.0747 30.5882 50.7865C31.0247 51.1375 30.7922 52.054 30.2311 52.1027ZM63.443 65.4277C61.4687 65.6715 57.5201 65.5821 50.04 65.5821C42.5599 65.5821 38.6129 65.6715 36.6386 65.4277C34.6013 65.1824 32.0044 63.0959 33.7776 61.2369C34.9583 60.0116 37.7127 59.0951 41.3808 58.58C45.0488 58.0649 46.6015 57.8 50.025 57.8C53.4485 57.8 54.8437 57.9625 58.6693 58.5816C62.4949 59.2007 65.3858 60.1286 66.2724 61.2385C67.8897 63.2275 65.4788 65.1694 63.443 65.4375V65.4277ZM81.0706 50.5769C80.7706 52.1174 79.1203 52.5984 77.5361 52.5984C74.887 52.599 72.2402 52.433 69.6089 52.1011C69.1498 52.054 68.9368 51.1814 69.4019 50.7849C70.2585 50.0552 71.8022 49.1745 73.916 48.5001C77.1085 47.4812 78.9493 47.0734 80.5305 47.413C80.9161 47.4959 81.1201 47.9444 81.1441 48.2255C81.2499 49.0083 81.225 49.8053 81.0706 50.5785V50.5769Z" fill="#F0AC52"/>
</svg>
