<svg width="100" height="100" viewBox="0 0 100 100" fill="none" xmlns="http://www.w3.org/2000/svg">
<path d="M0 8C0 3.58172 3.58172 0 8 0H92C96.4183 0 100 3.58172 100 8V92C100 96.4183 96.4183 100 92 100H8C3.58172 100 0 96.4183 0 92V8Z" fill="#171717"/>
<path d="M80.3693 14H80.8919C82.9736 14.263 84.3567 16.1248 83.8961 18.178C83.8182 18.5248 83.7792 18.8141 83.7792 19.0456C83.7783 36.1559 83.7783 53.2648 83.7792 70.3723C83.7792 70.3917 83.7849 70.4108 83.7957 70.4272C83.8064 70.4437 83.8217 70.4568 83.8398 70.4652C85.3281 71.1458 86.0473 72.2319 85.9976 73.7234C85.9497 75.162 85.1778 76.2617 83.8511 76.7933C83.806 76.8111 83.7835 76.8439 83.7835 76.8917C83.7741 78.3495 83.7741 79.8059 83.7835 81.2609C83.7891 82.0831 83.7314 82.7061 83.6102 83.1298C83.1501 84.7367 82.005 85.6934 80.175 86H79.5088C77.7097 85.7047 76.5674 84.7498 76.082 83.1355C75.7524 82.0414 75.8974 80.51 75.8989 79.2852C75.8989 78.5483 76.5482 78.0069 77.2608 78.1602C77.7918 78.2741 78.4876 79.1164 78.889 79.5298C79.5848 80.2498 79.2862 81.3594 78.251 81.4888C78.2144 81.4934 78.1933 81.5136 78.1876 81.5492C78.0242 82.5645 78.3651 83.2602 79.2102 83.6361C80.2806 84.1128 81.4679 83.2592 81.4891 82.0611C81.521 80.3352 81.5341 78.6092 81.5285 76.8833C81.5285 76.8614 81.5217 76.84 81.5092 76.822C81.4966 76.8039 81.4788 76.79 81.4581 76.782C78.5341 75.6795 78.5848 71.5972 81.4637 70.4848C81.506 70.4689 81.5271 70.438 81.5271 70.392V28.5167C81.5268 28.5107 81.5247 28.5048 81.5211 28.4999C81.5175 28.495 81.5126 28.4913 81.5069 28.4892C81.5012 28.4871 81.495 28.4867 81.489 28.4881C81.4831 28.4895 81.4777 28.4926 81.4736 28.497C79.6266 30.6767 77.2965 31.8978 74.4833 32.1603C73.6242 32.2405 72.4692 32.1898 71.4678 32.2025C71.418 32.2034 71.3932 32.2288 71.3932 32.2784C71.3918 33.3514 71.4368 34.5692 71.3368 35.5128C70.8481 40.1323 67.2917 43.7788 62.71 44.4552C61.6254 44.6141 60.293 44.562 59.0972 44.5592C59.0493 44.5592 59.0249 44.5831 59.024 44.6309C59.0193 45.4738 59.0033 46.3142 58.9761 47.1523C58.8212 51.9477 55.4183 55.8134 50.7535 56.75C50.5882 56.7837 50.4483 56.7252 50.3337 56.5742C49.8689 55.9611 49.3525 55.408 48.7844 54.9148C48.7634 54.8962 48.7486 54.8717 48.7417 54.8445C48.7349 54.8173 48.7365 54.7887 48.7462 54.7625C48.756 54.7362 48.7734 54.7134 48.7963 54.6972C48.8192 54.681 48.8465 54.6721 48.8746 54.6716C53.6394 54.6181 56.9662 50.8002 56.7634 46.1075C56.7587 46.0109 56.7221 45.9969 56.6535 46.0653C53.9408 48.7756 51.2089 51.5028 48.4576 54.2469C48.3112 54.3945 48.0492 54.327 47.876 54.2089C46.0243 52.9564 43.9665 52.3648 41.7026 52.4342C41.4054 52.4427 41.1984 51.9997 41.4491 51.748C53.2803 39.8961 65.1241 28.0564 76.9806 16.2289C77.4608 15.7494 77.9693 15.2867 78.4665 14.8269C79.051 14.2855 79.62 14.097 80.3693 14ZM79.8975 26.8278C81.1356 25.1853 81.6327 23.3966 81.5158 21.3519C81.5121 21.2834 81.4858 21.2736 81.437 21.3223L72.8763 29.8695C72.8265 29.9192 72.8364 29.9455 72.9059 29.9483C75.9134 30.0608 78.244 29.0206 79.8975 26.8278ZM60.5198 42.2909C65.3565 42.6777 69.5565 38.7275 69.1213 33.7241C69.1157 33.6594 69.0899 33.65 69.0438 33.6959L60.4958 42.2291C60.4592 42.2666 60.4672 42.2872 60.5198 42.2909ZM83.7722 73.6377C83.7722 73.3408 83.6541 73.0561 83.4438 72.8461C83.2336 72.6362 82.9484 72.5183 82.6511 72.5183C82.3537 72.5183 82.0686 72.6362 81.8583 72.8461C81.648 73.0561 81.5299 73.3408 81.5299 73.6377C81.5299 73.9345 81.648 74.2193 81.8583 74.4292C82.0686 74.6391 82.3537 74.757 82.6511 74.757C82.9484 74.757 83.2336 74.6391 83.4438 74.4292C83.6541 74.2193 83.7722 73.9345 83.7722 73.6377Z" fill="#F0AC52"/>
<path d="M44.5659 60.0884C43.2954 58.8003 41.363 58.6484 39.9602 59.8212C38.2109 61.2837 38.3954 64.0723 40.363 65.2677C41.3038 65.8386 42.3137 65.9272 43.3926 65.5334C43.5137 65.4884 43.6443 65.5372 43.7842 65.6797C44.6668 66.5741 45.5466 67.4708 46.4236 68.3698C46.6814 68.6328 46.749 68.9239 46.4067 69.1447C43.5109 71.0066 39.7897 70.7675 37.1334 68.6075C33.5136 65.6656 33.2728 60.1489 36.6179 56.9187C40.7574 52.9222 47.6307 54.4803 49.5504 59.9169C50.3796 62.2672 50.1382 64.5233 48.8265 66.6852C48.6208 67.0227 48.3363 67.0958 48.0504 66.8075C47.149 65.8981 46.2527 64.9845 45.3617 64.0667C45.2762 63.9786 45.2513 63.8764 45.287 63.7602C45.7405 62.2611 45.5002 61.0372 44.5659 60.0884Z" fill="#F0AC52"/>
<path d="M33.0884 57.9889C30.994 61.9869 31.9898 66.9284 35.3166 70.0208C35.4927 70.1853 35.3758 70.4933 35.2096 70.6578C29.6245 76.2528 25.7963 80.082 23.7249 82.1455C22.0136 83.8498 19.6206 84.3378 17.4051 83.4069C14.3262 82.1131 13.0642 78.3669 14.7558 75.4714C15.0234 75.013 15.6351 74.307 16.591 73.3536C21.9244 68.0314 27.2578 62.7102 32.5912 57.3898C32.749 57.2323 32.9016 57.1977 33.049 57.2858C33.349 57.4672 33.2166 57.7456 33.0884 57.9889Z" fill="#F0AC52"/>
<path d="M42.1307 63.5183C42.7499 63.5183 43.2519 63.0171 43.2519 62.3989C43.2519 61.7807 42.7499 61.2795 42.1307 61.2795C41.5115 61.2795 41.0096 61.7807 41.0096 62.3989C41.0096 63.0171 41.5115 63.5183 42.1307 63.5183Z" fill="#F0AC52"/>
<path d="M48.9183 70.8913L47.7592 69.7086C47.6852 69.6334 47.644 69.5321 47.6446 69.4268C47.6451 69.3214 47.6873 69.2205 47.762 69.1461L48.7733 68.1308C48.8116 68.0923 48.8572 68.0618 48.9074 68.0411C48.9576 68.0203 49.0115 68.0097 49.0658 68.0098C49.1202 68.0099 49.1739 68.0208 49.2241 68.0418C49.2742 68.0628 49.3196 68.0935 49.3578 68.1322L50.5268 69.3149C50.5625 69.3514 50.5986 69.3519 50.6353 69.3163C51.1536 68.817 51.8677 67.917 52.4536 67.6822C53.5691 67.2378 54.4578 68.6806 53.5987 69.5385C52.1733 70.9616 50.7479 72.3838 49.3226 73.805C49.0634 74.0638 48.8319 74.2241 48.6282 74.286C47.4817 74.6333 46.7338 73.1666 47.5507 72.3945C48.0211 71.9502 48.4775 71.4927 48.9197 71.022C48.9611 70.978 48.9606 70.9344 48.9183 70.8913Z" fill="#F0AC52"/>
</svg>
