<svg width="26" height="18" viewBox="0 0 26 18" fill="none" xmlns="http://www.w3.org/2000/svg">
<g clip-path="url(#clip0_0_801)">
<rect width="26" height="18" rx="2" fill="white"/>
<path fill-rule="evenodd" clip-rule="evenodd" d="M0 -0.749756H26V18.7502H0V-0.749756Z" fill="#2E42A5"/>
<g clip-path="url(#clip1_0_801)">
<rect width="14.625" height="11.375" fill="#2E42A5"/>
<path d="M-1.62793 10.5622L1.59034 11.9736L14.6986 1.53441L16.3961 -0.563087L12.9546 -1.03484L7.60812 3.46372L3.30471 6.4947L-1.62793 10.5622Z" fill="#F7FCFF"/>
<path d="M-1.18848 11.5513L0.451085 12.3704L15.7854 -0.757782H13.4833L-1.18848 11.5513Z" fill="#F50100"/>
<path d="M16.2529 10.5622L13.0347 11.9736L-0.0735645 1.53441L-1.77113 -0.563087L1.67035 -1.03484L7.01688 3.46372L11.3203 6.4947L16.2529 10.5622Z" fill="#F7FCFF"/>
<path d="M16.1436 11.272L14.504 12.0911L7.97448 6.47022L6.03862 5.84222L-1.93404 -0.555836H0.368098L8.33627 5.69036L10.4528 6.4434L16.1436 11.272Z" fill="#F50100"/>
<path fill-rule="evenodd" clip-rule="evenodd" d="M8.11242 0H6.48742V4.875H0V6.5H6.48742V11.375H8.11242V6.5H14.625V4.875H8.11242V0Z" fill="#F50100"/>
<path fill-rule="evenodd" clip-rule="evenodd" d="M5.26867 -1.21875H9.33117V3.65625H15.8438V7.71875H9.33117V12.5938H5.26867V7.71875H-1.21875V3.65625H5.26867V-1.21875ZM6.48742 4.875H0V6.5H6.48742V11.375H8.11242V6.5H14.625V4.875H8.11242V0H6.48742V4.875Z" fill="#F7FCFF"/>
</g>
<g clip-path="url(#clip2_0_801)">
<path d="M7.16247 15.2308L6.20302 16.1174L6.29804 14.8145L5.00661 14.6172L6.08454 13.8791L5.43361 12.7464L6.68275 13.129L7.16247 11.9138L7.6422 13.129L8.89134 12.7464L8.2404 13.8791L9.31833 14.6172L8.0269 14.8145L8.12192 16.1174L7.16247 15.2308Z" fill="#F7FCFF"/>
<path d="M17.5113 9.11242L16.8717 9.70353L16.935 8.8349L16.0741 8.70336L16.7927 8.2113L16.3587 7.45617L17.1915 7.71122L17.5113 6.90112L17.8311 7.71122L18.6639 7.45617L18.2299 8.2113L18.9485 8.70336L18.0876 8.8349L18.1509 9.70353L17.5113 9.11242Z" fill="#F7FCFF"/>
<path d="M19.0367 3.11218L18.3971 3.70329L18.4604 2.83465L17.5995 2.70312L18.3181 2.21106L17.8841 1.45593L18.7169 1.71097L19.0367 0.900879L19.3565 1.71097L20.1893 1.45593L19.7553 2.21106L20.4739 2.70312L19.613 2.83465L19.6763 3.70329L19.0367 3.11218Z" fill="#F7FCFF"/>
<path d="M22.8502 6.11242L22.2105 6.70353L22.2739 5.8349L21.4129 5.70336L22.1316 5.2113L21.6976 4.45617L22.5304 4.71122L22.8502 3.90112L23.17 4.71122L24.0028 4.45617L23.5688 5.2113L24.2874 5.70336L23.4265 5.8349L23.4898 6.70353L22.8502 6.11242Z" fill="#F7FCFF"/>
<path d="M19.7984 14.7372L19.1588 15.3283L19.2221 14.4597L18.3612 14.3281L19.0798 13.8361L18.6458 13.0809L19.4786 13.336L19.7984 12.5259L20.1182 13.336L20.951 13.0809L20.517 13.8361L21.2357 14.3281L20.3747 14.4597L20.4381 15.3283L19.7984 14.7372Z" fill="#F7FCFF"/>
<path d="M22.4689 10.0528L21.819 10.3944L21.9432 9.67077L21.4174 9.15827L22.144 9.05269L22.4689 8.39429L22.7939 9.05269L23.5205 9.15827L22.9947 9.67077L23.1188 10.3944L22.4689 10.0528Z" fill="#F7FCFF"/>
</g>
</g>
<defs>
<clipPath id="clip0_0_801">
<rect width="26" height="18" rx="2" fill="white"/>
</clipPath>
<clipPath id="clip1_0_801">
<rect width="14.625" height="11.375" fill="white"/>
</clipPath>
<clipPath id="clip2_0_801">
<rect width="19.5" height="16.25" fill="white" transform="translate(4.875 0.875244)"/>
</clipPath>
</defs>
</svg>
