<svg width="26" height="18" viewBox="0 0 26 18" fill="none" xmlns="http://www.w3.org/2000/svg">
<g clip-path="url(#clip0_0_720)">
<rect width="26" height="18" rx="2" fill="white"/>
<path fill-rule="evenodd" clip-rule="evenodd" d="M0 -0.749756V18.7502H26V-0.749756H0Z" fill="#2E42A5"/>
<g clip-path="url(#clip1_0_720)">
<rect width="14.625" height="11.375" fill="#2E42A5"/>
<path d="M-1.62793 10.5622L1.59034 11.9736L14.6986 1.53441L16.3961 -0.563087L12.9546 -1.03484L7.60812 3.46372L3.30471 6.4947L-1.62793 10.5622Z" fill="#F7FCFF"/>
<path d="M-1.1875 11.5513L0.452061 12.3704L15.7864 -0.757782H13.4843L-1.1875 11.5513Z" fill="#F50100"/>
<path d="M16.2529 10.5622L13.0347 11.9736L-0.0735645 1.53441L-1.77113 -0.563087L1.67035 -1.03484L7.01688 3.46372L11.3203 6.4947L16.2529 10.5622Z" fill="#F7FCFF"/>
<path d="M16.1436 11.272L14.504 12.0911L7.97448 6.47022L6.03862 5.84222L-1.93404 -0.555837H0.368097L8.33627 5.69036L10.4528 6.4434L16.1436 11.272Z" fill="#F50100"/>
<path fill-rule="evenodd" clip-rule="evenodd" d="M8.11242 0H6.48742V4.875H0V6.5H6.48742V11.375H8.11242V6.5H14.625V4.875H8.11242V0Z" fill="#F50100"/>
<path fill-rule="evenodd" clip-rule="evenodd" d="M5.26867 -1.21875H9.33117V3.65625H15.8438V7.71875H9.33117V12.5938H5.26867V7.71875H-1.21875V3.65625H5.26867V-1.21875ZM6.48742 4.875H0V6.5H6.48742V11.375H8.11242V6.5H14.625V4.875H8.11242V0H6.48742V4.875Z" fill="#F7FCFF"/>
</g>
<path fill-rule="evenodd" clip-rule="evenodd" d="M20.1932 15.906L18.7605 16.6592L19.0341 15.0639L17.875 13.934L19.4768 13.7013L20.1932 12.2498L20.9096 13.7013L22.5114 13.934L21.3523 15.0639L21.6259 16.6592L20.1932 15.906Z" fill="#F50100" stroke="#F7FCFF" stroke-width="0.56875"/>
<path fill-rule="evenodd" clip-rule="evenodd" d="M17.225 10.5189L16.1203 11.0997L16.3313 9.86959L15.4375 8.9984L16.6726 8.81893L17.225 7.69971L17.7774 8.81893L19.0125 8.9984L18.1188 9.86959L18.3297 11.0997L17.225 10.5189Z" fill="#F50100" stroke="#F7FCFF" stroke-width="0.56875"/>
<path fill-rule="evenodd" clip-rule="evenodd" d="M22.9105 10.5158L21.807 11.096L22.0178 9.86718L21.125 8.99696L22.3588 8.81768L22.9105 7.69971L23.4623 8.81768L24.696 8.99696L23.8033 9.86718L24.014 11.096L22.9105 10.5158Z" fill="#F50100" stroke="#F7FCFF" stroke-width="0.56875"/>
<path fill-rule="evenodd" clip-rule="evenodd" d="M20.475 5.96914L19.3703 6.54993L19.5813 5.31979L18.6875 4.4486L19.9226 4.26912L20.475 3.1499L21.0274 4.26912L22.2625 4.4486L21.3688 5.31979L21.5797 6.54993L20.475 5.96914Z" fill="#F50100" stroke="#F7FCFF" stroke-width="0.56875"/>
</g>
<defs>
<clipPath id="clip0_0_720">
<rect width="26" height="18" rx="2" fill="white"/>
</clipPath>
<clipPath id="clip1_0_720">
<rect width="14.625" height="11.375" fill="white"/>
</clipPath>
</defs>
</svg>
