<svg width="26" height="18" viewBox="0 0 26 18" fill="none" xmlns="http://www.w3.org/2000/svg">
<g clip-path="url(#clip0_0_774)">
<rect width="26" height="18" rx="2" fill="white"/>
<rect y="-0.749756" width="26" height="19.5" fill="#67BD23"/>
<path d="M5.67264 2.96785C5.67264 2.96785 6.08758 4.86042 5.67264 4.49744C5.25771 4.13446 4.3358 5.51776 5.29885 5.0076C6.26189 4.49744 6.43141 3.96866 6.43141 5.0076C6.43141 6.04654 6.89192 5.51794 6.09538 6.29018C5.29885 7.06243 8.88717 7.07449 7.27991 7.55787C5.67264 8.04125 4.91086 9.07186 6.09538 8.69292C7.27991 8.31398 9.18684 6.70899 8.6891 6.29018C8.19135 5.87138 8.43605 5.95717 8.43605 5.0076C8.43605 4.05803 8.12006 3.81315 7.70814 3.56791C7.29622 3.32267 9.31079 5.2266 9.98391 4.09722C10.657 2.96785 10.576 3.697 11.0626 4.09722C11.5491 4.49744 12.3069 4.98047 12.3069 4.09722C12.3069 3.21397 13.3059 1.50972 13.3059 3.25866C13.3059 5.0076 14.5599 5.91178 14.5599 4.73984C14.5599 3.56791 15.7131 2.4201 15.7131 3.25866C15.7131 4.09722 16.3752 4.05839 16.941 3.81315C17.5069 3.56791 17.459 2.92086 17.459 4.73984C17.459 6.55883 17.6961 9.40149 16.941 9.16184C16.186 8.9222 16.8917 7.84052 16.1847 6.29018C15.4778 4.73984 16.9052 4.73435 15.4299 6.71363C13.9545 8.69292 14.1888 8.40211 13.7474 7.55787C13.3059 6.71363 15.1879 5.86674 13.7474 6.29018C12.3069 6.71363 13.0899 9.08392 12.6984 8.32089C12.3069 7.55787 11.3067 3.50461 11.1846 5.53124C11.0626 7.55787 11.569 8.69292 10.4974 8.69292C9.4257 8.69292 8.51922 8.77484 9.25157 8.32089C9.98391 7.86695 9.98391 6.29018 9.98391 6.29018" stroke="white" stroke-width="0.8125"/>
<path fill-rule="evenodd" clip-rule="evenodd" d="M11.3212 12.1329C10.6605 12.2129 7.32158 12.1992 6.32415 11.9585C6.10069 11.9114 6.22844 12.9305 6.37304 13.1647C6.51764 13.3989 7.65275 13.6336 8.04853 13.6876C8.38812 13.734 9.69654 13.661 11.0566 13.5851C11.2816 13.5726 11.508 13.5599 11.7317 13.5478C12.9224 13.4829 14.6618 13.5959 15.5714 13.655C15.8655 13.6741 16.0729 13.6876 16.1469 13.6876C16.4257 13.6876 16.4047 13.7817 16.3626 13.9707C16.359 13.9871 16.3552 14.0041 16.3514 14.0218C16.3039 14.245 16.5539 14.7243 16.664 14.7694C16.7742 14.8145 17.5937 14.7694 18.0403 14.5971C18.2944 14.499 18.3245 14.5126 18.3907 14.5425C18.4408 14.5651 18.5115 14.5971 18.7157 14.5971C19.0224 14.5971 19.0384 14.1578 19.0496 13.8477C19.0558 13.6785 19.0605 13.5478 19.1103 13.5478C19.1662 13.5478 19.2412 13.7136 19.3114 13.8689C19.4184 14.1057 19.5143 14.3178 19.5143 13.8795C19.5143 13.1538 18.661 12.2035 18.382 12.2795C18.1863 12.3328 17.8642 12.274 17.6455 12.2341C17.5523 12.2171 17.4778 12.2035 17.44 12.2035C17.3852 12.2035 17.4017 12.1902 17.4379 12.161C17.4853 12.1228 17.5665 12.0573 17.5665 11.9585C17.5665 11.7842 17.4006 11.7595 17.2625 11.7595C17.1244 11.7595 17.0506 11.8724 17.0506 11.9585C17.0506 12.0446 17.1547 12.1329 17.1547 12.1329C17.1331 12.1329 17.0241 12.1314 16.8501 12.1291C15.727 12.1143 11.8933 12.0636 11.3212 12.1329ZM16.9609 13.6689C16.9608 13.6688 17.0487 13.6178 17.2525 13.3666C17.4782 13.0885 17.558 13.1774 17.6411 13.2701C17.684 13.3179 17.7278 13.3666 17.7929 13.3666C17.9844 13.3666 18.2372 13.3666 18.4017 13.5062C18.5661 13.6458 18.1852 13.8377 18.0743 13.8377C18.0192 13.8377 17.9785 13.8033 17.9375 13.7687C17.8959 13.7335 17.8539 13.6981 17.7962 13.6981C17.7282 13.6981 17.671 13.7474 17.6245 13.7874C17.5928 13.8147 17.5661 13.8377 17.5444 13.8377C17.5256 13.8377 17.4836 13.8137 17.4293 13.7827C17.3299 13.726 17.1894 13.6458 17.0737 13.6458C17.0015 13.6458 16.961 13.669 16.9609 13.6689Z" fill="white"/>
<path d="M6.32415 11.9585L6.34322 11.8795L6.34092 11.879L6.32415 11.9585ZM11.3212 12.1329L11.331 12.2135L11.3212 12.1329ZM6.37304 13.1647L6.44217 13.122H6.44217L6.37304 13.1647ZM8.04853 13.6876L8.03754 13.7681L8.04853 13.6876ZM11.0566 13.5851L11.0521 13.504L11.0566 13.5851ZM11.7317 13.5478L11.7361 13.6289L11.7317 13.5478ZM15.5714 13.655L15.5661 13.7361L15.5714 13.655ZM16.3626 13.9707L16.2833 13.9531L16.2833 13.9531L16.3626 13.9707ZM16.3514 14.0218L16.2719 14.0049V14.0049L16.3514 14.0218ZM16.664 14.7694L16.6948 14.6942L16.664 14.7694ZM18.0403 14.5971L18.011 14.5213L18.0403 14.5971ZM18.3907 14.5425L18.3572 14.6165L18.3907 14.5425ZM19.0496 13.8477L19.1308 13.8506L19.0496 13.8477ZM19.3114 13.8689L19.3854 13.8354L19.3114 13.8689ZM18.382 12.2795L18.3606 12.2011V12.2011L18.382 12.2795ZM17.6455 12.2341L17.6309 12.314V12.314L17.6455 12.2341ZM17.4379 12.161L17.3869 12.0978L17.3869 12.0978L17.4379 12.161ZM17.1547 12.1329V12.2141H17.3762L17.2072 12.0709L17.1547 12.1329ZM16.8501 12.1291L16.8512 12.0479L16.8501 12.1291ZM17.2525 13.3666L17.1894 13.3155V13.3155L17.2525 13.3666ZM16.9609 13.6689L17.0314 13.6284L17.0312 13.6281L16.9609 13.6689ZM17.6411 13.2701L17.7016 13.2158V13.2158L17.6411 13.2701ZM18.4017 13.5062L18.3491 13.5682V13.5682L18.4017 13.5062ZM17.9375 13.7687L17.8851 13.8308H17.8851L17.9375 13.7687ZM17.6245 13.7874L17.6775 13.8489L17.6775 13.8489L17.6245 13.7874ZM17.4293 13.7827L17.389 13.8533L17.4293 13.7827ZM6.3051 12.0375C6.81388 12.1603 7.90711 12.2237 8.9471 12.2472C9.98835 12.2707 10.9939 12.2543 11.331 12.2135L11.3114 12.0522C10.9877 12.0914 9.99348 12.1082 8.95076 12.0847C7.90678 12.0612 6.83186 11.9974 6.34321 11.8795L6.3051 12.0375ZM6.44217 13.122C6.41369 13.0759 6.38087 12.9799 6.35223 12.8529C6.32428 12.729 6.30231 12.585 6.29157 12.4497C6.28072 12.313 6.28183 12.1911 6.29707 12.109C6.30491 12.0668 6.31489 12.0445 6.32149 12.0355C6.32409 12.032 6.32361 12.0341 6.31878 12.0362C6.31313 12.0387 6.30834 12.0382 6.30739 12.038L6.34092 11.879C6.31204 11.8729 6.28205 11.8749 6.25379 11.8873C6.22636 11.8992 6.20585 11.9186 6.19084 11.9389C6.16222 11.9776 6.14665 12.029 6.1373 12.0793C6.11816 12.1824 6.11835 12.3211 6.12958 12.4626C6.14092 12.6054 6.16403 12.7571 6.19372 12.8887C6.22271 13.0172 6.26009 13.1364 6.3039 13.2074L6.44217 13.122ZM8.05952 13.6071C7.86508 13.5806 7.48575 13.5091 7.13774 13.4153C6.96364 13.3683 6.79976 13.3165 6.67162 13.2627C6.60749 13.2358 6.55424 13.2092 6.51381 13.1836C6.47189 13.157 6.45062 13.1357 6.44217 13.122L6.3039 13.2074C6.3316 13.2523 6.37744 13.2895 6.42682 13.3208C6.47769 13.3531 6.53994 13.3837 6.60874 13.4125C6.74647 13.4703 6.91822 13.5244 7.09545 13.5722C7.45009 13.6678 7.8362 13.7406 8.03754 13.7681L8.05952 13.6071ZM11.0521 13.504C10.3718 13.5419 9.7054 13.5791 9.16659 13.601C8.6239 13.6231 8.22049 13.6291 8.05952 13.6071L8.03754 13.7681C8.21617 13.7925 8.63676 13.7852 9.17319 13.7634C9.71349 13.7414 10.3813 13.7042 11.0611 13.6662L11.0521 13.504ZM11.7273 13.4666C11.5035 13.4788 11.2771 13.4914 11.0521 13.504L11.0611 13.6662C11.2861 13.6537 11.5125 13.6411 11.7361 13.6289L11.7273 13.4666ZM15.5767 13.5739C14.6686 13.5149 12.9238 13.4015 11.7273 13.4666L11.7361 13.6289C12.9209 13.5644 14.655 13.6769 15.5661 13.7361L15.5767 13.5739ZM16.1469 13.6064C16.0764 13.6064 15.8731 13.5932 15.5767 13.5739L15.5661 13.7361C15.858 13.7551 16.0695 13.7689 16.1469 13.7689V13.6064ZM16.4419 13.9884C16.4521 13.9427 16.4626 13.8961 16.4667 13.8548C16.4708 13.8139 16.4702 13.7654 16.4473 13.721C16.4226 13.6731 16.3797 13.6442 16.329 13.6279C16.2805 13.6123 16.2197 13.6064 16.1469 13.6064V13.7689C16.2135 13.7689 16.2546 13.7747 16.2793 13.7826C16.291 13.7864 16.2969 13.79 16.2997 13.7921C16.302 13.7938 16.3025 13.7949 16.3029 13.7956C16.3043 13.7983 16.308 13.8088 16.305 13.8387C16.3021 13.8682 16.2942 13.9042 16.2833 13.9531L16.4419 13.9884ZM16.4309 14.0387C16.4346 14.0214 16.4383 14.0048 16.4419 13.9884L16.2833 13.9531C16.2797 13.9693 16.2758 13.9867 16.2719 14.0049L16.4309 14.0387ZM16.6948 14.6942C16.6967 14.695 16.6901 14.6922 16.6754 14.677C16.6621 14.6632 16.6462 14.6436 16.6287 14.6185C16.5938 14.5684 16.556 14.5016 16.5225 14.4285C16.4889 14.3554 16.4607 14.2782 16.4437 14.2075C16.4264 14.135 16.4227 14.0771 16.4309 14.0387L16.2719 14.0049C16.2564 14.0781 16.2662 14.1639 16.2857 14.2454C16.3057 14.3287 16.338 14.416 16.3747 14.4963C16.4115 14.5765 16.4539 14.652 16.4954 14.7114C16.5161 14.7411 16.5374 14.7681 16.5586 14.79C16.5785 14.8105 16.6038 14.8326 16.6332 14.8446L16.6948 14.6942ZM18.011 14.5213C17.798 14.6035 17.4901 14.657 17.218 14.6839C17.0828 14.6973 16.9586 14.7039 16.8623 14.7045C16.814 14.7048 16.7737 14.7035 16.743 14.701C16.7277 14.6998 16.7156 14.6983 16.7066 14.6967C16.6968 14.695 16.6937 14.6938 16.6948 14.6942L16.6332 14.8446C16.6599 14.8555 16.6961 14.8603 16.7299 14.863C16.7669 14.866 16.8122 14.8673 16.8632 14.867C16.9655 14.8664 17.0948 14.8594 17.234 14.8456C17.5108 14.8182 17.836 14.763 18.0695 14.6729L18.011 14.5213ZM18.4242 14.4684C18.4088 14.4615 18.3877 14.4517 18.3631 14.4457C18.3368 14.4392 18.3093 14.4376 18.2773 14.441C18.2178 14.4474 18.1375 14.4725 18.011 14.5213L18.0695 14.6729C18.1972 14.6236 18.259 14.6064 18.2947 14.6026C18.3102 14.6009 18.3186 14.6021 18.3244 14.6035C18.332 14.6054 18.3396 14.6085 18.3572 14.6165L18.4242 14.4684ZM18.7157 14.5158C18.6177 14.5158 18.5551 14.5081 18.5128 14.4989C18.4717 14.4899 18.4476 14.479 18.4242 14.4684L18.3572 14.6165C18.3839 14.6286 18.4202 14.645 18.4781 14.6576C18.5347 14.67 18.6096 14.6783 18.7157 14.6783V14.5158ZM18.9684 13.8447C18.9627 14.0026 18.9558 14.1789 18.9155 14.3157C18.8956 14.3835 18.8694 14.4341 18.8375 14.4669C18.8079 14.4973 18.7704 14.5158 18.7157 14.5158V14.6783C18.8144 14.6783 18.8939 14.6419 18.9539 14.5803C19.0116 14.521 19.0476 14.4424 19.0714 14.3616C19.1186 14.2013 19.1253 14.0029 19.1308 13.8506L18.9684 13.8447ZM19.1103 13.4665C19.0534 13.4665 19.0219 13.507 19.0082 13.5341C18.9946 13.5609 18.9877 13.593 18.9833 13.6221C18.9742 13.6816 18.9714 13.7621 18.9684 13.8447L19.1308 13.8506C19.134 13.7641 19.1366 13.6946 19.1439 13.6465C19.1477 13.6217 19.1516 13.6106 19.1532 13.6075C19.1545 13.6049 19.1423 13.629 19.1103 13.629V13.4665ZM19.3854 13.8354C19.3508 13.7589 19.3129 13.6748 19.2762 13.61C19.2579 13.5779 19.2378 13.5465 19.2161 13.5221C19.1984 13.5021 19.1622 13.4665 19.1103 13.4665V13.629C19.0864 13.629 19.0805 13.6141 19.0947 13.6301C19.105 13.6417 19.1185 13.6615 19.1348 13.6902C19.1671 13.7471 19.2017 13.8236 19.2373 13.9024L19.3854 13.8354ZM19.4331 13.8795C19.4331 13.933 19.4316 13.9754 19.429 14.0082C19.4263 14.0417 19.4227 14.0625 19.4194 14.0741C19.4178 14.0799 19.4169 14.081 19.4178 14.0795C19.4185 14.0783 19.4231 14.0701 19.4345 14.0628C19.4478 14.0543 19.4641 14.051 19.4794 14.0535C19.4924 14.0556 19.5 14.0611 19.5016 14.0622C19.5034 14.0636 19.503 14.0636 19.5003 14.0605C19.4978 14.0576 19.4945 14.0532 19.4903 14.0469C19.4817 14.034 19.4718 14.0166 19.4604 13.9947C19.4376 13.9507 19.4125 13.8953 19.3854 13.8354L19.2373 13.9024C19.2638 13.9609 19.2909 14.0208 19.3161 14.0695C19.3288 14.0939 19.3418 14.1172 19.355 14.1369C19.3672 14.1552 19.3836 14.177 19.4044 14.1925C19.4153 14.2006 19.4318 14.2104 19.4533 14.2139C19.477 14.2178 19.5014 14.213 19.5222 14.1996C19.5569 14.1774 19.5699 14.1394 19.5759 14.118C19.5899 14.068 19.5956 13.9889 19.5956 13.8795H19.4331ZM18.4033 12.3579C18.4135 12.3551 18.4376 12.3548 18.4804 12.3721C18.5216 12.3886 18.5716 12.418 18.6278 12.4603C18.7399 12.5447 18.8678 12.6735 18.9887 12.8288C19.2327 13.1422 19.4331 13.5435 19.4331 13.8795H19.5956C19.5956 13.4899 19.3693 13.0532 19.1169 12.729C18.9896 12.5655 18.8518 12.4256 18.7255 12.3305C18.6624 12.283 18.5999 12.245 18.541 12.2213C18.4838 12.1983 18.4202 12.1849 18.3606 12.2011L18.4033 12.3579ZM17.6309 12.314C17.7398 12.3339 17.8782 12.3592 18.0144 12.3726C18.1487 12.3859 18.2905 12.3887 18.4033 12.3579L18.3606 12.2011C18.2778 12.2237 18.1607 12.2238 18.0303 12.2109C17.9019 12.1983 17.7699 12.1742 17.6601 12.1542L17.6309 12.314ZM17.44 12.2847C17.4518 12.2847 17.4742 12.2871 17.5093 12.2927C17.5431 12.298 17.584 12.3055 17.6309 12.314L17.6601 12.1542C17.6138 12.1457 17.5708 12.1379 17.5347 12.1322C17.4998 12.1267 17.466 12.1222 17.44 12.1222V12.2847ZM17.3869 12.0978C17.3787 12.1044 17.3683 12.1127 17.36 12.1204C17.3558 12.1243 17.3502 12.1298 17.3449 12.1364C17.3404 12.142 17.3308 12.1547 17.3261 12.173C17.3202 12.196 17.323 12.2254 17.3433 12.2498C17.3593 12.269 17.3791 12.276 17.3879 12.2787C17.4061 12.2842 17.426 12.2847 17.44 12.2847V12.1222C17.4266 12.1222 17.4281 12.1211 17.4351 12.1232C17.4383 12.1242 17.4543 12.1291 17.4682 12.1458C17.4759 12.155 17.4819 12.1668 17.4845 12.1804C17.487 12.1936 17.4857 12.2051 17.4835 12.2134C17.4797 12.2282 17.4725 12.237 17.4716 12.2382C17.4698 12.2404 17.4689 12.241 17.4705 12.2396C17.4737 12.2366 17.479 12.2322 17.4889 12.2243L17.3869 12.0978ZM17.4852 11.9585C17.4852 11.9842 17.475 12.0081 17.456 12.0324C17.4363 12.0576 17.4112 12.0782 17.3869 12.0978L17.4889 12.2243C17.512 12.2056 17.5512 12.1744 17.5839 12.1326C17.6174 12.0899 17.6477 12.0316 17.6477 11.9585H17.4852ZM17.2625 11.8408C17.3297 11.8408 17.39 11.8474 17.4313 11.867C17.4505 11.8761 17.4627 11.8868 17.4706 11.8987C17.4782 11.9102 17.4852 11.9283 17.4852 11.9585H17.6477C17.6477 11.9016 17.634 11.8512 17.6062 11.8091C17.5786 11.7674 17.5408 11.7391 17.5012 11.7203C17.425 11.684 17.3333 11.6783 17.2625 11.6783V11.8408ZM17.1319 11.9585C17.1319 11.9104 17.1758 11.8408 17.2625 11.8408V11.6783C17.0729 11.6783 16.9694 11.8344 16.9694 11.9585H17.1319ZM17.1547 12.1329C17.2072 12.0709 17.2072 12.0709 17.2073 12.0709C17.2073 12.0709 17.2073 12.0709 17.2073 12.0709C17.2073 12.0709 17.2073 12.071 17.2073 12.071C17.2073 12.071 17.2074 12.071 17.2074 12.071C17.2074 12.071 17.2074 12.0711 17.2074 12.071C17.2074 12.071 17.2072 12.0709 17.207 12.0707C17.2066 12.0703 17.2058 12.0697 17.2048 12.0687C17.2027 12.0668 17.1994 12.0638 17.1955 12.0599C17.1874 12.0519 17.1768 12.0407 17.1663 12.0275C17.1425 11.9975 17.1319 11.9726 17.1319 11.9585H16.9694C16.9694 12.0306 17.0108 12.0929 17.039 12.1285C17.0546 12.1481 17.0699 12.1643 17.0814 12.1756C17.0872 12.1813 17.0921 12.1858 17.0956 12.1891C17.0974 12.1907 17.0989 12.192 17.1 12.193C17.1006 12.1935 17.101 12.1939 17.1014 12.1942C17.1016 12.1943 17.1017 12.1945 17.1018 12.1946C17.1019 12.1946 17.102 12.1947 17.102 12.1947C17.102 12.1948 17.1021 12.1948 17.1021 12.1948C17.1021 12.1948 17.1021 12.1948 17.1021 12.1948C17.1021 12.1948 17.1021 12.1948 17.1547 12.1329ZM16.849 12.2104C17.0225 12.2127 17.1323 12.2141 17.1547 12.2141V12.0516C17.1338 12.0516 17.0258 12.0502 16.8512 12.0479L16.849 12.2104ZM11.331 12.2135C11.4685 12.1969 11.8102 12.187 12.2693 12.1822C12.7261 12.1775 13.2936 12.1778 13.8786 12.1807C15.0486 12.1866 16.2875 12.2029 16.849 12.2104L16.8512 12.0479C16.2896 12.0405 15.0501 12.0241 13.8794 12.0182C13.2941 12.0153 12.7257 12.015 12.2676 12.0197C11.8119 12.0245 11.4599 12.0342 11.3114 12.0522L11.331 12.2135ZM17.1894 13.3155C17.0894 13.4388 17.019 13.5114 16.9749 13.5525C16.9529 13.5729 16.9376 13.5855 16.9285 13.5924C16.9239 13.5959 16.9209 13.598 16.9194 13.599C16.9186 13.5995 16.9182 13.5998 16.918 13.6C16.9177 13.6001 16.9179 13.6 16.9174 13.6003C16.9174 13.6003 16.9166 13.6008 16.9158 13.6014C16.9156 13.6015 16.9141 13.6025 16.9122 13.6039C16.9117 13.6043 16.9088 13.6065 16.9054 13.6097C16.9033 13.6117 16.8977 13.6179 16.8944 13.6223C16.888 13.6332 16.8802 13.6782 16.8907 13.7098L17.0312 13.6281C17.0417 13.6597 17.0339 13.7047 17.0274 13.7156C17.0242 13.72 17.0186 13.7262 17.0165 13.7282C17.0131 13.7314 17.0102 13.7336 17.0097 13.734C17.0078 13.7353 17.0063 13.7363 17.0062 13.7364C17.0057 13.7367 17.0054 13.737 17.0053 13.737C17.0051 13.7371 17.005 13.7372 17.005 13.7372C17.0048 13.7373 17.0055 13.7369 17.0059 13.7366C17.0071 13.7358 17.0087 13.7348 17.0108 13.7334C17.0148 13.7306 17.0203 13.7268 17.0271 13.7215C17.0409 13.711 17.0602 13.6951 17.0856 13.6714C17.1364 13.6241 17.2119 13.5457 17.3156 13.4178L17.1894 13.3155ZM17.7016 13.2158C17.6821 13.1941 17.6561 13.1647 17.6258 13.142C17.5937 13.1179 17.5516 13.0972 17.4989 13.0981C17.4475 13.0989 17.3978 13.1201 17.3491 13.1554C17.3006 13.1905 17.2481 13.2431 17.1894 13.3155L17.3156 13.4178C17.3698 13.3511 17.4119 13.3105 17.4444 13.287C17.4767 13.2636 17.4945 13.2607 17.5016 13.2606C17.5075 13.2605 17.515 13.262 17.5283 13.272C17.5434 13.2833 17.5586 13.2998 17.5807 13.3244L17.7016 13.2158ZM17.7929 13.2854C17.7826 13.2854 17.772 13.2821 17.7571 13.2711C17.7404 13.2587 17.7242 13.241 17.7016 13.2158L17.5807 13.3244C17.6175 13.3654 17.6853 13.4479 17.7929 13.4479V13.2854ZM18.4543 13.4443C18.3564 13.3612 18.2358 13.3226 18.1204 13.3039C18.0052 13.2852 17.8877 13.2854 17.7929 13.2854V13.4479C17.8896 13.4479 17.9942 13.4481 18.0944 13.4643C18.1945 13.4805 18.2826 13.5117 18.3491 13.5682L18.4543 13.4443ZM18.0743 13.9189C18.1186 13.9189 18.1755 13.9017 18.2264 13.8806C18.2802 13.8584 18.3391 13.8269 18.3895 13.7896C18.4377 13.7541 18.4887 13.7055 18.5114 13.6458C18.5236 13.6139 18.5282 13.5772 18.5177 13.539C18.5074 13.5012 18.4843 13.4697 18.4543 13.4443L18.3491 13.5682C18.3547 13.5729 18.3577 13.5766 18.3593 13.5789C18.3601 13.58 18.3605 13.5808 18.3607 13.5813C18.3609 13.5818 18.361 13.582 18.361 13.5821C18.361 13.5821 18.361 13.5821 18.361 13.5821C18.361 13.5821 18.361 13.5821 18.361 13.5821C18.361 13.5821 18.361 13.5821 18.361 13.5822C18.361 13.5822 18.361 13.5824 18.361 13.5825C18.361 13.5832 18.3607 13.5849 18.3596 13.588C18.3537 13.6035 18.3334 13.6291 18.293 13.6589C18.2549 13.6871 18.208 13.7123 18.1643 13.7304C18.1178 13.7497 18.0854 13.7564 18.0743 13.7564V13.9189ZM17.8851 13.8308C17.9215 13.8615 17.9847 13.9189 18.0743 13.9189V13.7564C18.0538 13.7564 18.0355 13.7451 17.9899 13.7066L17.8851 13.8308ZM17.7962 13.7793C17.8195 13.7793 17.8392 13.792 17.8851 13.8308L17.9899 13.7066C17.9525 13.675 17.8883 13.6168 17.7962 13.6168V13.7793ZM17.6775 13.8489C17.7016 13.8282 17.7225 13.8105 17.7444 13.7972C17.7657 13.7844 17.7823 13.7793 17.7962 13.7793V13.6168C17.7422 13.6168 17.6962 13.6365 17.6602 13.6582C17.6248 13.6796 17.5939 13.7065 17.5715 13.7258L17.6775 13.8489ZM17.5444 13.9189C17.5814 13.9189 17.611 13.9005 17.6267 13.8898C17.6445 13.8775 17.6627 13.8617 17.6775 13.8489L17.5715 13.7258C17.5546 13.7404 17.5436 13.7497 17.5347 13.7558C17.5306 13.7586 17.5291 13.7592 17.5297 13.7589C17.5303 13.7587 17.5356 13.7564 17.5444 13.7564V13.9189ZM17.389 13.8533C17.4155 13.8684 17.4417 13.8834 17.4637 13.8944C17.4748 13.9 17.4866 13.9055 17.4981 13.9097C17.5081 13.9134 17.5251 13.9189 17.5444 13.9189V13.7564C17.5543 13.7564 17.559 13.759 17.5541 13.7572C17.5508 13.756 17.5452 13.7535 17.5366 13.7492C17.5193 13.7405 17.4974 13.728 17.4696 13.7122L17.389 13.8533ZM17.0737 13.7271C17.1148 13.7271 17.1665 13.7418 17.225 13.7674C17.2825 13.7926 17.3388 13.8247 17.389 13.8533L17.4696 13.7122C17.4204 13.6841 17.3568 13.6477 17.2902 13.6186C17.2247 13.5899 17.1483 13.5646 17.0737 13.5646V13.7271ZM16.8905 13.7095C16.9066 13.7294 16.9412 13.7477 16.9548 13.75C16.9617 13.7502 16.9726 13.7493 16.9765 13.7487C16.983 13.7474 16.9879 13.7456 16.9889 13.7452C16.9921 13.744 16.9946 13.7429 16.995 13.7427C16.9965 13.742 16.9976 13.7414 16.9977 13.7414C16.9981 13.7412 16.9984 13.7411 16.9985 13.741C16.9986 13.741 16.9987 13.7409 16.9987 13.7409C16.9989 13.7408 16.999 13.7408 16.9991 13.7407C16.9993 13.7406 16.9999 13.7403 17.0011 13.7398C17.0033 13.7388 17.0076 13.7371 17.0138 13.7352C17.0262 13.7314 17.0464 13.7271 17.0737 13.7271V13.5646C17.0288 13.5646 16.9927 13.5718 16.9668 13.5796C16.9538 13.5836 16.9434 13.5876 16.9358 13.591C16.932 13.5926 16.9289 13.5941 16.9266 13.5953C16.9255 13.5958 16.9246 13.5963 16.9241 13.5965C16.9237 13.5967 16.924 13.5966 16.9244 13.5964C16.9244 13.5964 16.9255 13.5958 16.927 13.5951C16.9273 13.595 16.9298 13.5938 16.933 13.5926C16.934 13.5923 16.9389 13.5905 16.9453 13.5892C16.9493 13.5885 16.9601 13.5877 16.9671 13.5879C16.9807 13.5901 17.0152 13.6085 17.0314 13.6284L16.8905 13.7095Z" fill="white"/>
<path d="M21.3142 3.10571C21.3142 3.10571 22.6256 9.00003 21.3142 9.00003C20.0027 9.00003 20.0027 8.48589 20.0027 8.48589C20.0027 8.48589 21.4429 9.14819 21.0446 7.41627C20.6464 5.68435 20.2747 6.87668 20.2747 5.35364C20.2747 3.83061 20.0027 2.80887 20.0027 3.58768C20.0027 4.36648 19.8222 9.07088 19.1107 8.10854C18.3993 7.14621 18.5722 4.16611 18.5722 3.87689" stroke="white" stroke-width="0.8125"/>
</g>
<defs>
<clipPath id="clip0_0_774">
<rect width="26" height="18" rx="2" fill="white"/>
</clipPath>
</defs>
</svg>
