<svg width="26" height="18" viewBox="0 0 26 18" fill="none" xmlns="http://www.w3.org/2000/svg">
<g clip-path="url(#clip0_0_759)">
<rect width="26" height="18" rx="2" fill="white"/>
<path fill-rule="evenodd" clip-rule="evenodd" d="M0 -0.749756V18.7502H26V-0.749756H0Z" fill="#F7FCFF"/>
<mask id="mask0_0_759" style="mask-type:luminance" maskUnits="userSpaceOnUse" x="0" y="-1" width="26" height="20">
<path fill-rule="evenodd" clip-rule="evenodd" d="M0 -0.749756V18.7502H26V-0.749756H0Z" fill="white"/>
</mask>
<g mask="url(#mask0_0_759)">
<path fill-rule="evenodd" clip-rule="evenodd" d="M0 -0.749756V9.00024H26V-0.749756H0Z" fill="#E31D1C"/>
<path fill-rule="evenodd" clip-rule="evenodd" d="M7.20558 7.85422C7.20558 7.85422 4.90971 6.93083 4.90971 4.42908C4.90971 1.92733 7.20558 1.03377 7.20558 1.03377C6.08975 0.751285 3.12891 1.00394 3.12891 4.42908C3.12891 7.85422 6.04501 8.50017 7.20558 7.85422ZM7.79376 7.44069L8.45239 7.04307L9.12554 7.44069L8.96079 6.66478L9.50801 6.05269H8.7666L8.45239 5.32819L8.13818 6.05269L7.39551 6.08409L7.94399 6.66478L7.79376 7.44069ZM10.8462 6.99864L10.1876 7.39625L10.3378 6.62035L9.78937 6.03966L10.532 6.00826L10.8462 5.28375L11.1605 6.00826H11.9019L11.3547 6.62035L11.5194 7.39625L10.8462 6.99864ZM9.1712 3.93837L9.82983 3.54075L10.503 3.93837L10.3382 3.16246L10.8854 2.55037H10.144L9.82983 1.82587L9.51562 2.55037L8.77295 2.58177L9.32143 3.16246L9.1712 3.93837ZM7.61291 5.11854L6.95428 5.51616L7.10451 4.74025L6.55603 4.15956L7.2987 4.12816L7.61291 3.40366L7.92712 4.12816H8.66853L8.12131 4.74025L8.28606 5.51616L7.61291 5.11854ZM11.308 5.48085L11.9666 5.08323L12.6398 5.48085L12.475 4.70494L13.0222 4.09285H12.2808L11.9666 3.36835L11.6524 4.09285L10.9097 4.12425L11.4582 4.70494L11.308 5.48085Z" fill="#F1F9FF"/>
</g>
</g>
<defs>
<clipPath id="clip0_0_759">
<rect width="26" height="18" rx="2" fill="white"/>
</clipPath>
</defs>
</svg>
