<svg width="34" height="28" viewBox="0 0 34 28" fill="none" xmlns="http://www.w3.org/2000/svg">
<path fill-rule="evenodd" clip-rule="evenodd" d="M33.2567 0.193173C33.8716 0.492058 34.0414 0.968835 33.9919 2.25765C33.9028 4.57946 31.9755 16.9239 30.5128 24.5411C30.2029 26.1551 29.8363 27.0394 29.2603 27.5629C28.8774 27.9109 28.6117 28 27.9576 28C27.1225 28 26.26 27.6591 25.1245 26.8802C24.8044 26.6606 23.7153 25.9277 22.7043 25.2516C15.3537 20.3354 15.216 20.2353 14.8969 19.5741C14.7848 19.3418 14.7609 19.2081 14.7814 18.9265C14.8349 18.1909 15.1581 17.8347 19.0894 14.1776C23.2011 10.3529 25.2379 8.36578 25.5917 7.83411C25.7278 7.62959 25.7455 7.55819 25.6994 7.39845C25.6691 7.29342 25.5719 7.15373 25.4835 7.08805C25.2212 6.89335 24.9335 6.98686 23.9811 7.57659C23.2324 8.04015 17.4934 11.844 12.6866 15.0625C11.7599 15.6831 10.7469 16.313 10.4354 16.4625C8.80608 17.2441 7.61174 17.155 3.71721 15.9616C1.34127 15.2335 0.77519 15.017 0.377852 14.6846C0.0315521 14.3949 -0.0860253 13.9867 0.0639033 13.5946C0.156912 13.3514 0.612089 12.9482 1.11255 12.6658C1.50584 12.4439 6.77962 10.1509 15.1987 6.5414C22.6028 3.36704 28.0621 1.15587 30.349 0.405122C31.7539 -0.0561207 32.6148 -0.118871 33.2567 0.193173Z" fill="white"/>
</svg>
