<svg width="34" height="32" viewBox="0 0 34 32" fill="none" xmlns="http://www.w3.org/2000/svg">
<path d="M16.9336 0C7.59621 0 0 6.72853 0 15C0 18.4941 1.3774 21.8799 3.88417 24.5635C4.38029 26.6172 3.77812 28.7929 2.28398 30.2929C1.65923 30.9202 2.10103 32 2.98828 32C5.82675 32 8.56309 30.8838 10.5961 28.9151C12.6078 29.6357 14.7361 30 16.9336 30C26.271 30 34 23.2715 34 15C34 6.72853 26.271 0 16.9336 0ZM9.09766 18C7.44985 18 6.10938 16.6543 6.10938 15C6.10938 13.3457 7.44985 12 9.09766 12C10.7455 12 12.0859 13.3457 12.0859 15C12.0859 16.6543 10.7455 18 9.09766 18ZM17.0664 18C15.4186 18 14.0781 16.6543 14.0781 15C14.0781 13.3457 15.4186 12 17.0664 12C18.7142 12 20.0547 13.3457 20.0547 15C20.0547 16.6543 18.7142 18 17.0664 18ZM25.0352 18C23.3874 18 22.0469 16.6543 22.0469 15C22.0469 13.3457 23.3874 12 25.0352 12C26.683 12 28.0234 13.3457 28.0234 15C28.0234 16.6543 26.683 18 25.0352 18Z" fill="white"/>
</svg>
