<svg width="34" height="34" viewBox="0 0 34 34" fill="none" xmlns="http://www.w3.org/2000/svg">
<path fill-rule="evenodd" clip-rule="evenodd" d="M15.5105 1.10665L14.0588 2.2247L15.5294 2.24538C16.3382 2.25675 17.6651 2.25675 18.4781 2.24538L19.9562 2.2247L18.5031 1.1181C17.704 0.509475 17.0303 0.00631775 17.0061 5.97679e-05C16.9819 -0.00627453 16.3088 0.491693 15.5105 1.10665ZM3.64346 9.30309L3.64407 15.1223L6.96378 17.6502C8.78961 19.0406 11.075 20.7824 12.0423 21.5209L13.8011 22.8636L15.2981 21.7212C16.3819 20.8942 16.8523 20.5789 17.0027 20.5789C17.1528 20.5789 17.6244 20.8944 18.7077 21.7199L20.205 22.8609L22.2276 21.3193C23.34 20.4713 25.6239 18.7301 27.3028 17.4499L30.3556 15.1223L30.3564 9.30309L30.3571 3.48393H17H3.64286L3.64346 9.30309ZM16.0191 6.6146C14.8326 6.86621 14.0303 7.30481 13.165 8.17497C12.4111 8.93311 12.0596 9.5125 11.7514 10.5051C11.6016 10.9875 11.5745 11.2334 11.5787 12.0696C11.5831 12.9205 11.6115 13.145 11.7774 13.6468C12.0789 14.5581 12.4772 15.2048 13.1607 15.8921C13.8448 16.5801 14.4888 16.981 15.3936 17.2824C15.9202 17.4579 16.1209 17.4794 17.508 17.509L19.0405 17.5417L19.2346 17.3467C19.4684 17.1115 19.4883 16.7779 19.2837 16.5235C19.1428 16.3483 19.0972 16.342 17.633 16.2965C16.3693 16.2572 16.056 16.2237 15.6843 16.0885C14.3147 15.59 13.3996 14.6475 12.9312 13.2525C12.7356 12.6701 12.7356 11.3927 12.9312 10.8103C13.4106 9.38269 14.366 8.42201 15.7857 7.93984C16.3649 7.74317 17.6351 7.74317 18.2143 7.93984C19.2353 8.28662 20.147 8.98744 20.6097 9.78137C21.076 10.5815 21.1935 11.0593 21.2323 12.312L21.2681 13.4701L21.0728 13.6666C20.8376 13.9031 20.5065 13.9235 20.2528 13.7173C20.0828 13.579 20.0715 13.5131 20.0321 12.4278C19.9913 11.3003 19.9868 11.276 19.7108 10.7146C19.3732 10.0276 18.9309 9.59332 18.2279 9.25844C17.7695 9.04002 17.652 9.0169 17 9.0169C16.348 9.0169 16.2305 9.04002 15.7721 9.25844C15.1311 9.56379 14.6573 10.0013 14.3596 10.563C13.3705 12.4291 14.4427 14.6328 16.5297 15.0231C17.2987 15.1669 18.2515 14.9186 18.8939 14.4069L19.0801 14.2586L19.4364 14.5806C20.2122 15.2821 21.1579 15.2566 21.8993 14.5143C22.4318 13.9811 22.4943 13.7169 22.4458 12.2027C22.4137 11.1989 22.3762 10.9048 22.2182 10.416C21.9262 9.51281 21.5262 8.86144 20.8393 8.1707C19.7823 7.10783 18.663 6.61696 17.1897 6.57003C16.7306 6.55538 16.2038 6.57545 16.0191 6.6146ZM16.3929 10.2996C16.0204 10.4176 15.3851 11.0791 15.2709 11.4679C15.0606 12.1834 15.2089 12.7539 15.7452 13.2932C16.2815 13.8326 16.8488 13.9816 17.5604 13.7702C17.9773 13.6464 18.606 13.0142 18.7291 12.5949C18.9394 11.8794 18.7911 11.3089 18.2548 10.7696C17.7208 10.2326 17.0992 10.0757 16.3929 10.2996ZM1.44196 11.8496C0.920201 12.2509 0.493304 12.6075 0.493304 12.642C0.493304 12.6764 0.920201 13.033 1.44196 13.4344L2.39062 14.1641L2.41225 13.403C2.42417 12.9845 2.42417 12.2994 2.41225 11.8809L2.39062 11.1198L1.44196 11.8496ZM31.5714 12.642V14.1864L31.856 13.9719C32.9994 13.1102 33.5446 12.6807 33.5446 12.642C33.5446 12.6032 32.9994 12.1737 31.856 11.312L31.5714 11.0975V12.642ZM0 23.6316C0 28.9623 0.0198839 33.3238 0.0442455 33.3238C0.128031 33.3238 12.7121 23.6949 12.7121 23.6308C12.7121 23.5669 0.127348 13.9393 0.043866 13.9393C0.0197321 13.9393 0 18.3009 0 23.6316ZM27.5871 18.7597C24.1225 21.4057 21.2879 23.5975 21.2879 23.6304C21.2879 23.6902 33.8805 33.3238 33.9586 33.3238C33.9813 33.3238 34 28.9623 34 23.6316C34 18.3009 33.9744 13.9415 33.9431 13.944C33.9117 13.9466 31.0516 16.1136 27.5871 18.7597ZM9.10745 27.9703L1.25284 33.9725L9.12035 33.992C13.4475 34.0027 20.5351 34.0027 24.8706 33.992L32.7533 33.9725L24.903 27.9816C20.5854 24.6867 17.0324 21.9857 17.0074 21.9794C16.9825 21.9731 13.4275 24.669 9.10745 27.9703Z" fill="white"/>
</svg>
