<svg width="34" height="34" viewBox="0 0 34 34" fill="none" xmlns="http://www.w3.org/2000/svg">
<path d="M15.6104 0H18.5863C29.4088 1.76375 35.7995 10.2956 33.5515 20.9419C32.1242 27.7206 27.25 32.0733 18.9289 34H15.7174L9.1019 32.0769C8.73794 31.9777 8.37041 31.9706 7.99931 32.0556L0.72009 33.7769C0.199126 33.8973 0.0100091 33.7025 0.152739 33.1925L2.15453 25.9037C2.2473 25.5779 2.21519 25.2627 2.05818 24.9581C-3.72238 13.7487 3.26782 1.72125 15.6104 0ZM18.6719 21.0694C16.1956 20.099 14.3008 18.4592 12.9877 16.15C12.904 16.001 12.8693 15.8297 12.8885 15.6602C12.9077 15.4906 12.9798 15.3312 13.0948 15.2044L14.0582 14.1419C14.308 13.8727 14.3615 13.5681 14.2188 13.2281L12.9021 10.0513C12.7786 9.75444 12.5779 9.49579 12.3202 9.30161C12.0626 9.10743 11.7572 8.98467 11.4353 8.9458C11.1133 8.90693 10.7862 8.95336 10.4873 9.08035C10.1884 9.20734 9.92828 9.41036 9.73348 9.66875C5.2589 15.6719 13.8655 22.8119 18.8646 24.7244C21.4124 25.7019 26.1117 25.0006 25.6407 21.3775C25.5908 20.9879 25.3909 20.7117 25.0413 20.5487L21.9048 19.0931C21.5622 18.9373 21.2661 19.001 21.0163 19.2844L19.7103 20.8144C19.4248 21.1402 19.0787 21.2252 18.6719 21.0694Z" fill="white"/>
</svg>
