<svg width="172" height="188" viewBox="0 0 172 188" fill="none" xmlns="http://www.w3.org/2000/svg">
<path fill-rule="evenodd" clip-rule="evenodd" d="M160.904 132.493C160.625 132.585 160.44 132.769 160.347 133.045C159.014 134.217 157.808 135.505 156.728 136.91C140.825 153.65 124.959 170.444 109.131 187.293C108.532 187.682 107.883 187.912 107.182 187.983C105.79 188.097 104.63 187.637 103.703 186.603C96.2711 178.267 88.8022 169.985 81.2956 161.756C76.6497 156.416 71.8713 151.17 66.9606 146.02C65.5435 144.204 65.3579 142.272 66.4039 140.223C68.8203 137.873 71.1862 135.48 73.5018 133.045C74.6492 132.175 75.9483 131.807 77.3987 131.941C78.3693 132.285 79.2044 132.837 79.9039 133.597C88.0183 141.968 96.1832 150.295 104.399 158.582C106.533 159.706 108.388 159.384 109.966 157.615C121.388 145.367 132.707 133.036 143.924 120.622C148.044 116.305 152.127 111.934 156.172 107.509C158.085 106.539 159.941 106.631 161.739 107.785C164.844 110.088 167.766 112.618 170.507 115.377C172.587 117.839 172.494 120.231 170.228 122.555C167.063 125.832 163.955 129.144 160.904 132.493Z" fill="#1A1918"/>
<path d="M85.3317 40.1484C85.3317 34.7919 84.5971 29.6549 82.2421 25.8673C79.8871 22.0797 76.6931 19.9518 73.3626 19.9518C70.0322 19.9518 66.8381 22.0797 64.4831 25.8673C62.1281 29.6548 61.5327 34.7919 61.5327 40.1484L85.3317 40.1484Z" fill="#1A1918"/>
<path fill-rule="evenodd" clip-rule="evenodd" d="M69.8833 0.25654C73.0669 -0.157611 74.737 -0.00500821 77.3987 0.25654C89.2116 1.41689 98.1188 7.03026 104.12 17.0967C105.68 20.1389 106.608 23.3597 106.904 26.7591C116.461 26.7131 126.018 26.7591 135.574 26.8971C137.56 26.8971 138.548 27.3951 139.65 27.9504C139.774 28.0129 139.899 28.0761 140.027 28.1394C142.425 29.3213 144.281 31.0696 145.594 33.3847C145.683 33.5747 145.774 33.7619 145.865 33.9484L145.865 33.9489L145.865 33.9495C146.362 34.9697 146.847 35.9662 146.847 37.2497C147.033 58.415 147.033 79.5801 146.847 100.745C143.115 104.492 139.543 108.357 136.131 112.34C126.954 122.041 117.815 131.795 108.713 141.604C108.218 142.236 107.615 142.696 106.904 142.984C101.497 136.838 95.9299 130.81 90.2028 124.901C87.6896 122.965 84.9061 121.539 81.8523 120.622C81.3507 120.358 80.794 120.174 80.1822 120.07C77.6362 119.643 75.131 119.828 72.6668 120.622C71.5759 120.979 70.5552 121.485 69.6049 122.141L56.3833 135.254C55.0227 137.033 53.9555 138.966 53.1823 141.051C52.4767 142.815 52.1983 144.656 52.3472 146.573C52.6036 149.383 53.81 151.683 55.9658 153.474C66.6878 164.339 77.5435 175.059 88.5327 185.636C62.7389 185.821 36.9453 185.821 11.1514 185.636C5.28865 185.084 2.36597 181.495 0.574136 176.94C0.405734 176.215 0.266559 175.479 0.156611 174.732C0.017436 170.408 -0.0290484 166.082 0.017436 161.757V45.8078C-0.0287701 43.1377 0.017436 40.4689 0.156611 37.8018C1.20822 31.6055 4.17525 26.8971 11.1514 26.8971C20.8004 26.7591 30.45 26.7131 40.0998 26.7591C42.2531 14.1314 49.4902 5.84933 61.8111 1.91295C64.5106 1.21208 67.2014 0.659947 69.8833 0.25654ZM13.5174 53.1236C13.5174 45.9576 19.3746 40.1484 26.5998 40.1484L52.7647 40.1484C52.7647 31.3623 53.8948 23.5855 57.7576 17.3728C61.6205 11.16 67.8997 9.7809 73.3626 9.7809C78.8255 9.7809 84.6524 11.16 88.5153 17.3728C92.3781 23.5855 93.9605 31.3623 93.9605 40.1484H120.682C127.907 40.1484 133.765 45.9576 133.765 53.1236H13.5174ZM20.1978 73.2766C20.1978 69.6174 23.1887 66.651 26.8782 66.651H33.2802C36.9697 66.651 39.9606 69.6174 39.9606 73.2766C39.9606 76.9359 36.9697 79.9023 33.2802 79.9023H26.8782C23.1887 79.9023 20.1978 76.9359 20.1978 73.2766ZM26.8782 93.1535C23.1887 93.1535 20.1978 96.1199 20.1978 99.7792C20.1978 103.438 23.1887 106.405 26.8782 106.405H33.2802C36.9697 106.405 39.9606 103.438 39.9606 99.7792C39.9606 96.1199 36.9697 93.1535 33.2802 93.1535H26.8782ZM53.3214 73.2766C53.3214 69.6174 56.3123 66.651 60.0018 66.651H120.96C124.65 66.651 127.641 69.6174 127.641 73.2766C127.641 76.9359 124.65 79.9023 120.96 79.9023H60.0018C56.3123 79.9023 53.3214 76.9359 53.3214 73.2766ZM60.0018 93.1535C56.3123 93.1535 53.3214 96.1199 53.3214 99.7792C53.3214 103.438 56.3123 106.405 60.0018 106.405H120.96C124.65 106.405 127.641 103.438 127.641 99.7792C127.641 96.1199 124.65 93.1535 120.96 93.1535H60.0018Z" fill="#1A1918"/>
</svg>
