<svg width="159" height="188" viewBox="0 0 159 188" fill="none" xmlns="http://www.w3.org/2000/svg">
<path fill-rule="evenodd" clip-rule="evenodd" d="M107.485 0C109.94 0 112.393 0 114.847 0C124.584 3.13998 128.327 9.74934 126.074 19.8281C125.532 21.3993 124.796 22.868 123.866 24.2344C115.031 35.4948 106.197 46.7551 97.3626 58.0156C99.1067 69.3099 101.131 80.5701 103.436 91.7969C85.3994 92.0943 67.3624 92.3392 49.3255 92.5312C47.9653 84.2794 46.3704 76.079 44.5402 67.9297C32.0858 60.3102 19.5704 52.7828 6.99388 45.3477C0.330152 40.3374 -1.57171 33.9115 1.28832 26.0703C3.5697 22.085 6.94393 19.4535 11.4111 18.1758C18.887 16.6965 26.3718 15.289 33.8652 13.9531C30.2626 28.0794 34.0666 39.7682 45.2764 49.0195C57.9869 57.206 70.6249 57.0833 83.1907 48.6523C94.7348 38.71 98.1091 26.5316 93.3135 12.1172C92.059 9.24545 90.5255 6.55275 88.7123 4.03906C94.9906 2.64014 101.248 1.29379 107.485 0Z" fill="#1A1918"/>
<path fill-rule="evenodd" clip-rule="evenodd" d="M60.7366 2.93752C73.2244 2.24434 81.1385 7.87454 84.4791 19.8281C85.6732 32.8278 79.9676 40.9671 67.3624 44.2461C54.0125 45.1204 45.9753 39.0618 43.2518 26.0703C42.9021 13.6378 48.7302 5.92683 60.7366 2.93752Z" fill="#1A1918"/>
<path fill-rule="evenodd" clip-rule="evenodd" d="M6.25771 57.2812C16.0021 63.06 25.6953 68.9351 35.3377 74.9062C38.1032 87.6598 40.9869 100.389 43.988 113.094C45.5889 118.431 48.1045 123.265 51.5341 127.598C41.4735 127.781 31.4119 127.843 21.3498 127.781C16.4133 104.261 11.3826 80.7611 6.25771 57.2812Z" fill="#1A1918"/>
<path fill-rule="evenodd" clip-rule="evenodd" d="M149.817 188C147.731 188 145.645 188 143.559 188C139.484 186.814 136.601 184.244 134.909 180.289C128.538 162.813 122.096 145.372 115.584 127.965C100.86 127.843 86.1356 127.72 71.4116 127.598C63.5117 126.195 58.1743 121.727 55.3992 114.195C54.1535 110.63 53.1103 107.02 52.2703 103.363C67.1154 103.044 81.9621 102.86 96.8105 102.812C105.533 102.765 114.245 102.948 122.946 103.363C131.706 105.737 137.289 111.306 139.694 120.07C146.077 137.699 152.457 155.324 158.835 172.945C159.765 180.405 156.758 185.423 149.817 188Z" fill="#1A1918"/>
<path fill-rule="evenodd" clip-rule="evenodd" d="M68.4668 188C67.117 188 65.7675 188 64.4177 188C62.5257 187.148 61.3602 185.68 60.9207 183.594C60.7367 172.334 60.6752 161.073 60.7367 149.812C51.9023 149.812 43.0678 149.812 34.2334 149.812C34.2949 160.951 34.2334 172.089 34.0494 183.227C33.5911 185.377 32.4253 186.969 30.5524 188C29.08 188 27.6076 188 26.1352 188C24.7773 187.071 23.7345 185.848 23.0064 184.328C22.8223 169.029 22.7608 153.73 22.8223 138.43C41.9635 138.43 61.1048 138.43 80.246 138.43C80.246 142.224 80.246 146.018 80.246 149.812C77.5467 149.812 74.8471 149.812 72.1478 149.812C72.2093 161.318 72.1478 172.823 71.9638 184.328C71.2195 185.988 70.0537 187.212 68.4668 188Z" fill="#1A1918"/>
<path fill-rule="evenodd" clip-rule="evenodd" d="M106.749 188C104.663 188 102.578 188 100.492 188C95.234 186.363 92.1051 182.814 91.105 177.352C90.9209 164.378 90.8595 151.404 90.9209 138.43C96.6891 138.368 102.456 138.43 108.222 138.613C110.88 145.343 113.395 152.136 115.768 158.992C116.013 165.479 116.013 171.966 115.768 178.453C114.437 183.267 111.431 186.449 106.749 188Z" fill="#1A1918"/>
</svg>
