<svg width="118" height="16" viewBox="0 0 118 16" fill="none" xmlns="http://www.w3.org/2000/svg">
<path d="M2.036 1.15C1.2 1.15 0.804 1.546 0.804 2.36V14.79C0.804 15.604 1.2 16 2.036 16H7.272C11.628 16 13.96 13.58 13.96 8.586C13.96 3.57 11.606 1.15 7.272 1.15H2.036ZM3.4 4.01C3.4 3.812 3.488 3.746 3.686 3.746H7.272C10.154 3.746 11.364 5.176 11.364 8.564C11.364 11.974 10.154 13.404 7.272 13.404H3.686C3.488 13.404 3.4 13.338 3.4 13.14V4.01ZM16.9147 1.15V11.27C16.9147 14.394 18.5427 16 21.7107 16H24.8347C28.0027 16 29.6527 14.394 29.6527 11.27V1.15H27.1007V11.072C27.1007 12.546 26.3307 13.404 24.6587 13.404H22.0187C20.3027 13.404 19.5547 12.546 19.5547 11.072V1.15H16.9147ZM34.37 1.15C33.534 1.15 33.138 1.546 33.138 2.36V14.79C33.138 15.604 33.534 16 34.37 16H40.97C44.468 16 45.942 14.284 45.942 11.908C45.942 10.192 45.15 9.092 43.742 8.52C45.128 7.97 45.876 6.936 45.876 5.22C45.876 2.8 44.402 1.15 40.904 1.15H34.37ZM35.69 9.576H41.036C42.554 9.576 43.324 10.236 43.324 11.49C43.324 12.7 42.598 13.426 41.036 13.426H35.976C35.8 13.426 35.69 13.36 35.69 13.184V9.576ZM35.69 3.966C35.69 3.79 35.8 3.702 35.976 3.702H40.992C42.576 3.702 43.258 4.472 43.258 5.638C43.258 6.848 42.51 7.42 40.97 7.42H35.69V3.966ZM54.6169 4.054C54.7709 3.702 55.0129 3.548 55.3649 3.548C55.7169 3.548 55.9589 3.702 56.0909 4.054L60.6009 16H63.4829L58.4669 2.8C57.9389 1.414 56.9269 0.885999 55.3869 0.885999C53.8249 0.885999 52.8129 1.414 52.2629 2.8L47.0489 16H49.9089L54.6169 4.054ZM65.6868 1.15V16H68.2828V1.15H65.6868ZM78.0343 1.15C73.7223 1.15 71.3243 3.592 71.3243 8.586C71.3243 13.558 73.7003 16 78.0343 16H83.7763V13.404H78.0343C75.1523 13.404 73.9203 11.974 73.9203 8.586C73.9203 5.176 75.1743 3.746 78.0343 3.746H83.7763V1.15H78.0343ZM93.0524 4.054C93.2064 3.702 93.4484 3.548 93.8004 3.548C94.1524 3.548 94.3944 3.702 94.5264 4.054L99.0364 16H101.918L96.9024 2.8C96.3744 1.414 95.3624 0.885999 93.8224 0.885999C92.2604 0.885999 91.2484 1.414 90.6984 2.8L85.4844 16H88.3444L93.0524 4.054ZM104.078 1.15V3.746H112.218C113.648 3.746 114.286 4.648 114.286 5.704C114.286 6.76 113.692 7.772 112.218 7.772H106.432C104.804 7.772 104.1 8.454 104.1 10.126V16H106.696V10.632C106.696 10.368 106.828 10.258 107.07 10.258H110.942L114.33 16H117.212L113.758 10.06C116.024 9.422 116.904 7.442 116.904 5.594C116.904 3.218 115.474 1.15 112.13 1.15H104.078Z" fill="white"/>
</svg>
