<svg width="33" height="33" viewBox="0 0 33 33" fill="none" xmlns="http://www.w3.org/2000/svg">
<path d="M16.5 19.3875C14.9531 19.3875 13.6125 18.15 13.6125 16.5C13.6125 14.9531 14.85 13.6125 16.5 13.6125C18.0469 13.6125 19.3875 14.85 19.3875 16.5C19.3875 18.0469 18.0469 19.3875 16.5 19.3875Z" fill="#F0AC52"/>
<path fill-rule="evenodd" clip-rule="evenodd" d="M20.0063 9.4875H12.9938C12.1687 9.59062 11.7563 9.69375 11.4469 9.79687C11.0344 9.9 10.725 10.1062 10.4156 10.4156C10.1708 10.6604 10.0552 10.9052 9.91535 11.2011C9.87851 11.2791 9.83988 11.3609 9.79688 11.4469C9.78092 11.4947 9.7625 11.5451 9.74276 11.599C9.63487 11.8937 9.4875 12.2964 9.4875 12.9937V20.0062C9.59062 20.8312 9.69375 21.2437 9.79688 21.5531C9.9 21.9656 10.1062 22.275 10.4156 22.5844C10.6604 22.8292 10.9052 22.9448 11.2011 23.0846C11.2792 23.1215 11.3608 23.1601 11.4469 23.2031C11.4947 23.2191 11.5451 23.2375 11.599 23.2572C11.8937 23.3651 12.2964 23.5125 12.9938 23.5125H20.0063C20.8312 23.4094 21.2437 23.3062 21.5531 23.2031C21.9656 23.1 22.275 22.8937 22.5844 22.5844C22.8292 22.3396 22.9448 22.0948 23.0846 21.7989C23.1215 21.7208 23.1601 21.6392 23.2031 21.5531C23.2191 21.5053 23.2375 21.4549 23.2572 21.401C23.3651 21.1062 23.5125 20.7036 23.5125 20.0062V12.9937C23.4094 12.1687 23.3062 11.7562 23.2031 11.4469C23.1 11.0344 22.8937 10.725 22.5844 10.4156C22.3396 10.1708 22.0948 10.0552 21.7989 9.91535C21.7209 9.87853 21.6391 9.83984 21.5531 9.79687C21.5053 9.78092 21.4549 9.7625 21.401 9.74275C21.1063 9.63487 20.7036 9.4875 20.0063 9.4875ZM16.5 12.0656C14.025 12.0656 12.0656 14.025 12.0656 16.5C12.0656 18.975 14.025 20.9344 16.5 20.9344C18.975 20.9344 20.9344 18.975 20.9344 16.5C20.9344 14.025 18.975 12.0656 16.5 12.0656ZM22.0688 11.9625C22.0688 12.532 21.607 12.9937 21.0375 12.9937C20.468 12.9937 20.0063 12.532 20.0063 11.9625C20.0063 11.393 20.468 10.9312 21.0375 10.9312C21.607 10.9312 22.0688 11.393 22.0688 11.9625Z" fill="#F0AC52"/>
<path fill-rule="evenodd" clip-rule="evenodd" d="M0 5.15625C0 2.30853 2.30853 0 5.15625 0H27.8438C30.6915 0 33 2.30853 33 5.15625V27.8438C33 30.6915 30.6915 33 27.8438 33H5.15625C2.30853 33 0 30.6915 0 27.8438V5.15625ZM12.9938 7.94062H20.0063C20.9344 8.04375 21.5531 8.14687 22.0688 8.35312C22.6875 8.6625 23.1 8.86875 23.6156 9.38437C24.1313 9.9 24.4406 10.4156 24.6469 10.9312C24.8531 11.4469 25.0594 12.0656 25.0594 12.9937V20.0062C24.9562 20.9344 24.8531 21.5531 24.6469 22.0687C24.3375 22.6875 24.1313 23.1 23.6156 23.6156C23.1 24.1312 22.5844 24.4406 22.0688 24.6469C21.5531 24.8531 20.9344 25.0594 20.0063 25.0594H12.9938C12.0656 24.9562 11.4469 24.8531 10.9313 24.6469C10.3125 24.3375 9.9 24.1312 9.38438 23.6156C8.86875 23.1 8.55937 22.5844 8.35313 22.0687C8.14688 21.5531 7.94062 20.9344 7.94062 20.0062V12.9937C8.04375 12.0656 8.14688 11.4469 8.35313 10.9312C8.6625 10.3125 8.86875 9.9 9.38438 9.38437C9.9 8.86875 10.4156 8.55937 10.9313 8.35312C11.4469 8.14687 12.0656 7.94062 12.9938 7.94062Z" fill="#F0AC52"/>
</svg>
