<svg width="33" height="33" viewBox="0 0 33 33" fill="none" xmlns="http://www.w3.org/2000/svg">
<path fill-rule="evenodd" clip-rule="evenodd" d="M5.15625 0H27.8438C30.6915 0 33 2.30853 33 5.15625V27.8438C33 30.6915 30.6915 33 27.8438 33H5.15625C2.30853 33 0 30.6915 0 27.8438V5.15625C0 2.30853 2.30853 0 5.15625 0ZM17.2135 12.3826C15.7357 12.9973 12.7822 14.2695 8.35304 16.1992C7.63381 16.4852 7.25705 16.765 7.22275 17.0386C7.16478 17.501 7.74381 17.683 8.53229 17.931C8.63955 17.9647 8.75068 17.9996 8.8646 18.0367C9.64035 18.2888 10.6839 18.5838 11.2264 18.5956C11.7184 18.6062 12.2677 18.4033 12.874 17.987C17.0123 15.1935 19.1485 13.7815 19.2827 13.7511C19.3773 13.7296 19.5084 13.7026 19.5972 13.7816C19.6861 13.8605 19.6773 14.0101 19.6679 14.0502C19.6106 14.2947 17.3377 16.4078 16.1615 17.5013C15.7948 17.8422 15.5347 18.084 15.4815 18.1393C15.3624 18.263 15.241 18.38 15.1243 18.4925C14.4036 19.1872 13.8632 19.7082 15.1542 20.559C15.7747 20.9679 16.2711 21.306 16.7664 21.6433C17.3074 22.0116 17.8469 22.379 18.5449 22.8366C18.7227 22.9532 18.8926 23.0743 19.058 23.1922C19.6875 23.641 20.2531 24.0441 20.9517 23.9799C21.3577 23.9425 21.7771 23.5607 21.9901 22.4222C22.4934 19.7314 23.4828 13.9013 23.7114 11.4989C23.7314 11.2884 23.7062 11.0191 23.686 10.9008C23.6658 10.7826 23.6235 10.6141 23.4698 10.4893C23.2877 10.3416 23.0067 10.3105 22.881 10.3126C22.3096 10.3228 21.4328 10.6276 17.2135 12.3826Z" fill="#F0AC52"/>
</svg>
