<svg width="76" height="76" viewBox="0 0 76 76" fill="none" xmlns="http://www.w3.org/2000/svg">
<path d="M13.9277 0H16.0108C21.7683 1.44336 26.9954 9.10723 29.7559 14.0568C33.6028 20.9543 26.8932 21.842 24.2157 25.9166C22.2604 28.9055 22.4968 31.6156 24.925 34.0467C30.5611 39.6924 36.2057 45.3382 41.8588 50.9839C46.6578 55.7866 50.8688 51.482 53.9936 47.599C56.1982 44.8592 58.6584 44.3993 61.7384 46.1173C65.8153 48.3909 69.3959 51.0882 72.4802 54.2091C75.8286 57.5939 77.3303 60.9661 74.5442 65.162C73.5686 66.6309 70.9806 69.0599 66.7802 72.4491C64.4627 74.3182 61.3017 75.5019 57.2973 76H54.3578C45.7759 74.8313 38.7532 69.6582 32.7976 63.6867C26.0497 56.9212 19.2996 50.1557 12.5474 43.3903C3.81852 34.6407 -4.85924 22.1805 3.19868 9.73311C5.94643 5.48818 9.52275 2.24381 13.9277 0Z" fill="#F0AC52"/>
</svg>
