<svg width="76" height="76" viewBox="0 0 76 76" fill="none" xmlns="http://www.w3.org/2000/svg">
<path fill-rule="evenodd" clip-rule="evenodd" d="M34.6704 2.4737L31.4257 4.97285L34.7128 5.01908C36.5207 5.0445 39.4868 5.0445 41.304 5.01908L44.6079 4.97285L41.3599 2.49929C39.5736 1.13883 38.0677 0.014122 38.0136 0.000133599C37.9594 -0.0140254 36.4551 1.09908 34.6704 2.4737ZM8.14421 20.7951L8.14557 33.8027L15.5661 39.4533C19.6474 42.5613 24.7558 46.4547 26.9181 48.1055L30.8496 51.1069L34.1958 48.5533C36.6183 46.7046 37.6699 45.9999 38.0059 45.9999C38.3417 45.9999 39.3957 46.7051 41.8171 48.5504L45.1642 51.1007L49.6852 47.6548C52.1718 45.7594 57.2769 41.8674 61.0299 39.0057L67.8536 33.8027L67.8554 20.7951L67.8571 7.7876H38H8.14286L8.14421 20.7951ZM35.8074 14.7856C33.1552 15.348 31.3619 16.3284 29.4276 18.2735C27.7424 19.9681 26.9568 21.2632 26.2678 23.4819C25.933 24.5602 25.8724 25.1101 25.8819 26.9791C25.8917 28.8811 25.955 29.3828 26.326 30.5047C26.9998 32.5417 27.8903 33.9873 29.4181 35.5236C30.9473 37.0613 32.3867 37.9576 34.4092 38.6312C35.5863 39.0234 36.0349 39.0715 39.1356 39.1377L42.5612 39.2109L42.995 38.7749C43.5176 38.2493 43.5621 37.5036 43.1047 36.9349C42.7897 36.5432 42.6879 36.5292 39.415 36.4274C36.5901 36.3397 35.89 36.2648 35.0591 35.9625C31.9975 34.8482 29.9521 32.7414 28.9049 29.6232C28.4678 28.3214 28.4678 25.4661 28.9049 24.1643C29.9767 20.9731 32.1122 18.8257 35.2857 17.7479C36.5803 17.3083 39.4197 17.3083 40.7143 17.7479C42.9967 18.523 45.0344 20.0896 46.0687 21.8642C47.111 23.6527 47.3738 24.7208 47.4605 27.5208L47.5405 30.1097L47.1039 30.5488C46.5782 31.0775 45.838 31.1232 45.2711 30.6623C44.8911 30.3532 44.8658 30.2058 44.7777 27.7798C44.6865 25.2595 44.6763 25.2052 44.0595 23.9502C43.3047 22.4147 42.3161 21.4439 40.7448 20.6953C39.72 20.2071 39.4574 20.1554 38 20.1554C36.5426 20.1554 36.28 20.2071 35.2552 20.6953C33.8224 21.3779 32.7635 22.3559 32.098 23.6114C29.887 27.7827 32.2837 32.7087 36.9487 33.5811C38.6677 33.9025 40.7976 33.3474 42.2334 32.2037L42.6497 31.8721L43.446 32.592C45.1803 34.1599 47.2942 34.1029 48.9513 32.4438C50.1417 31.2518 50.2813 30.6613 50.1731 27.2766C50.1013 25.0328 50.0175 24.3755 49.6643 23.2829C49.0115 21.2639 48.1173 19.8079 46.5819 18.2639C44.2193 15.8881 41.7174 14.7909 38.4241 14.6859C37.3978 14.6532 36.2203 14.6981 35.8074 14.7856ZM36.6429 23.0225C35.8102 23.2864 34.3902 24.7651 34.1349 25.6341C33.6649 27.2336 33.9963 28.5087 35.1951 29.7143C36.394 30.9199 37.6621 31.253 39.2526 30.7805C40.1845 30.5036 41.5898 29.0905 41.8651 28.1534C42.3351 26.5539 42.0037 25.2788 40.8049 24.0732C39.6111 22.8729 38.2217 22.5222 36.6429 23.0225ZM3.22321 26.4872C2.05692 27.3844 1.10268 28.1815 1.10268 28.2585C1.10268 28.3354 2.05692 29.1326 3.22321 30.0297L5.34375 31.6609L5.3921 29.9596C5.41873 29.0241 5.41873 27.4929 5.3921 26.5574L5.34375 24.8561L3.22321 26.4872ZM70.5714 28.2585V31.7107L71.2076 31.2314C73.7633 29.3052 74.9821 28.3451 74.9821 28.2585C74.9821 28.1718 73.7633 27.2117 71.2076 25.2856L70.5714 24.8062V28.2585ZM0 52.8235C0 64.7393 0.0444465 74.4886 0.0989018 74.4886C0.286188 74.4886 28.4152 52.9651 28.4152 52.8218C28.4152 52.6791 0.284661 31.1585 0.0980534 31.1585C0.044107 31.1585 0 40.9078 0 52.8235ZM61.6652 41.9334C53.921 47.8481 47.5848 52.7475 47.5848 52.821C47.5848 52.9546 75.7328 74.4886 75.9074 74.4886C75.9583 74.4886 76 64.7393 76 52.8235C76 40.9078 75.9428 31.1633 75.8728 31.1689C75.8027 31.1747 69.4094 36.0187 61.6652 41.9334ZM20.3578 62.5218L2.80046 75.9386L20.3867 75.9821C30.0592 76.006 45.902 76.006 55.5932 75.9821L73.2133 75.9386L55.6656 62.5472C46.0144 55.182 38.0724 49.1444 38.0166 49.1304C37.9608 49.1164 30.0144 55.1426 20.3578 62.5218Z" fill="#F0AC52"/>
</svg>
