<svg width="53" height="72" viewBox="0 0 53 72" fill="none" xmlns="http://www.w3.org/2000/svg">
<path d="M1.83815 23.4652C2.11047 16.1783 4.42518 10.4624 8.78227 6.31755C13.1394 2.10585 19.0623 0 26.5511 0C33.6313 0 39.35 1.80501 43.7071 5.41504C48.1323 8.95822 50.3449 13.571 50.3449 19.2535C50.3449 22.663 49.4258 25.6379 47.5877 28.1783C45.8176 30.6518 43.4008 32.2897 40.3372 33.0919C44.2858 34.0279 47.3834 35.9331 49.6301 38.8078C51.8767 41.6156 53 45.0919 53 49.2368C53 55.922 50.5151 61.4039 45.5453 65.6824C40.6435 69.8941 34.2781 72 26.4489 72C18.3475 72 11.9139 69.7939 7.14836 65.3816C2.38279 60.9694 0 55.0195 0 47.532V46.5292H13.9904C14.0584 50.8746 15.1137 54.2173 17.1561 56.5571C19.2665 58.8301 22.262 59.9666 26.1426 59.9666C29.6827 59.9666 32.5421 58.9972 34.7206 57.0585C36.8992 55.0529 37.9884 52.4791 37.9884 49.337C37.9884 45.6602 36.763 43.0195 34.3121 41.415C31.9293 39.7437 28.8317 38.9081 25.0193 38.9081C23.5896 38.9081 22.3982 38.9415 21.4451 39.0084V28.9805C22.194 29.0474 23.0109 29.0808 23.896 29.0808C32.2017 29.0808 36.3545 26.1393 36.3545 20.2563C36.3545 17.5822 35.4354 15.4429 33.5973 13.8384C31.8272 12.234 29.4444 11.4318 26.4489 11.4318C23.045 11.4318 20.3899 12.468 18.4836 14.5404C16.6455 16.6128 15.6924 19.5877 15.6243 23.4652H1.83815Z" fill="url(#paint0_linear_32_1238)"/>
<defs>
<linearGradient id="paint0_linear_32_1238" x1="-40.1515" y1="36.0187" x2="53" y2="36" gradientUnits="userSpaceOnUse">
<stop stop-color="#F0AC52"/>
<stop offset="1" stop-color="#F0AC52" stop-opacity="0"/>
</linearGradient>
</defs>
</svg>
