<svg width="53" height="72" viewBox="0 0 53 72" fill="none" xmlns="http://www.w3.org/2000/svg">
<path d="M53 59.4383V72H0C0.0688759 68.8 0.482131 65.8723 1.23977 63.217C2.06628 60.4936 2.9961 58.2128 4.02924 56.3745C5.13125 54.5362 6.78428 52.5957 8.98831 50.5532C11.1923 48.5106 13.1209 46.8766 14.7739 45.6511C16.4958 44.4255 18.9753 42.7234 22.2125 40.5447C22.6257 40.2723 23.7277 39.5575 25.5185 38.4C27.3093 37.2426 28.5491 36.4255 29.2378 35.9489C29.9266 35.4723 30.9597 34.6553 32.3372 33.4979C33.7148 32.2723 34.679 31.217 35.23 30.3319C35.8499 29.4468 36.4353 28.3574 36.9864 27.0638C37.5374 25.7021 37.8129 24.3064 37.8129 22.8766C37.8129 19.7447 36.8486 17.2596 34.9201 15.4213C33.0604 13.5149 30.5809 12.5617 27.4815 12.5617C20.0429 12.5617 16.117 17.7362 15.7037 28.0851H1.65302V26.5532C1.65302 18.4511 4.02924 12.017 8.78168 7.25107C13.5341 2.41702 19.9396 0 27.9981 0C35.2989 0 41.2222 2.04255 45.768 6.12766C50.3138 10.1447 52.5868 15.3872 52.5868 21.8553C52.5868 27.0979 51.3814 31.2851 48.9708 34.417C46.5601 37.5489 42.7719 40.8511 37.6062 44.3234C36.9175 44.8 35.6433 45.6511 33.7836 46.8766C31.924 48.034 30.4431 48.9872 29.3411 49.7362C28.308 50.4851 27.0338 51.4383 25.5185 52.5957C24.0033 53.7532 22.6946 54.9106 21.5926 56.0681C20.4906 57.1574 19.5608 58.2809 18.8031 59.4383H53Z" fill="url(#paint0_linear_32_1234)"/>
<defs>
<linearGradient id="paint0_linear_32_1234" x1="-40.1515" y1="36.0187" x2="53" y2="36" gradientUnits="userSpaceOnUse">
<stop stop-color="#F0AC52"/>
<stop offset="1" stop-color="#F0AC52" stop-opacity="0"/>
</linearGradient>
</defs>
</svg>
