<svg width="230" height="162" viewBox="0 0 230 162" fill="none" xmlns="http://www.w3.org/2000/svg">
<g opacity="0.987">
<path fill-rule="evenodd" clip-rule="evenodd" d="M115 0C136.443 2.05515 148.272 13.8303 150.488 35.325C148.321 56.6963 136.566 68.471 115.224 70.6499C100.119 69.8408 89.3378 62.6408 82.8807 49.05C77.1487 32.3379 80.967 18.3127 94.3358 6.97499C100.617 2.70265 107.505 0.377685 115 0Z" fill="#171717"/>
<path fill-rule="evenodd" clip-rule="evenodd" d="M35.9373 31.9499C48.896 31.6493 58.1049 37.3495 63.5643 49.0499C67.4887 61.6085 64.4192 72.0337 54.3553 80.3249C42.7153 87.4538 31.4848 86.854 20.6639 78.5249C12.2407 69.7886 10.0695 59.6636 14.1502 48.1499C18.5716 38.8543 25.834 33.4543 35.9373 31.9499Z" fill="#171717"/>
<path fill-rule="evenodd" clip-rule="evenodd" d="M188.223 31.95C206.15 31.9855 216.033 40.9104 217.871 58.7249C216.472 75.1265 207.562 84.0514 191.143 85.4999C172.859 83.2135 164.174 72.8635 165.088 54.4499C167.891 41.8162 175.602 34.3161 188.223 31.95Z" fill="#171717"/>
<path fill-rule="evenodd" clip-rule="evenodd" d="M99.2773 82.3499C109.76 82.2748 120.242 82.3499 130.723 82.5749C132.848 83.9848 133.073 85.7096 131.396 87.7499C126.38 94.2749 121.364 100.8 116.348 107.325C114.514 107.907 113.091 107.382 112.08 105.75C107.588 99.7501 103.096 93.7498 98.6035 87.7499C96.963 85.6444 97.1876 83.8444 99.2773 82.3499Z" fill="#171717"/>
<path fill-rule="evenodd" clip-rule="evenodd" d="M75.9179 85.0499C77.2678 84.9388 78.3908 85.3888 79.287 86.3999C88.8702 99.3001 98.4538 112.2 108.037 125.1C112.679 130.5 117.321 130.5 121.963 125.1C131.771 111.975 141.579 98.8501 151.387 85.725C152.224 85.1395 153.123 84.9892 154.082 85.275C161.371 89.2795 165.939 95.3545 167.783 103.5C168.502 120.29 168.652 137.09 168.232 153.9C167.708 158.625 165.088 161.25 160.371 161.775C130.124 162.075 99.876 162.075 69.6288 161.775C64.912 161.25 62.2917 158.625 61.7675 153.9C61.3479 137.09 61.4975 120.29 62.2167 103.5C64.1533 95.3419 68.7205 89.1922 75.9179 85.0499Z" fill="#171717"/>
<path fill-rule="evenodd" clip-rule="evenodd" d="M0 142.65C0 129.9 0 117.15 0 104.4C2.08851 96.8318 6.88019 91.8066 14.375 89.3249C20.8654 88.815 27.379 88.59 33.916 88.6499C39.8307 88.7998 45.7453 88.9501 51.6602 89.0999C48.694 94.7294 47.1217 100.729 46.9434 107.1C46.7188 120.749 46.6437 134.399 46.7188 148.05C33.2413 148.125 19.7648 148.05 6.28906 147.825C3.38299 147.049 1.28663 145.325 0 142.65Z" fill="#171717"/>
<path fill-rule="evenodd" clip-rule="evenodd" d="M230 104.4C230 117.15 230 129.9 230 142.65C228.713 145.325 226.617 147.049 223.711 147.825C210.235 148.05 196.759 148.125 183.281 148.05C183.356 134.399 183.281 120.749 183.057 107.1C182.878 100.729 181.306 94.7294 178.34 89.0999C184.255 88.9501 190.169 88.7998 196.084 88.6499C202.621 88.59 209.135 88.815 215.625 89.3249C223.12 91.8066 227.912 96.8318 230 104.4Z" fill="#171717"/>
</g>
</svg>
