<svg width="191" height="188" viewBox="0 0 191 188" fill="none" xmlns="http://www.w3.org/2000/svg">
<path fill-rule="evenodd" clip-rule="evenodd" d="M191 33.3427C191 34.7157 191 36.0885 191 37.4617C188.933 40.7763 185.887 42.2742 181.86 41.9551C180.425 41.8589 178.995 41.7338 177.57 41.5807C177.633 87.6387 177.57 133.697 177.384 179.755C176.206 183.933 173.532 186.617 169.363 187.806C163.892 188.055 158.421 188.055 152.949 187.806C148.242 186.7 145.444 183.767 144.556 179.006C144.369 133.322 144.307 87.6387 144.369 41.9551C142.127 42.0173 139.889 41.9548 137.654 41.7679C131.024 40.4079 129.345 36.7259 132.618 30.7215C140.266 21.048 147.913 11.3746 155.561 1.70115C160.905 -1.27944 165.444 -0.343304 169.177 4.50957C175.625 13.1044 182.215 21.5921 188.948 29.9726C189.647 31.132 190.33 32.2554 191 33.3427Z" fill="#171717"/>
<path fill-rule="evenodd" clip-rule="evenodd" d="M105.572 61.4268C110.175 61.3643 114.776 61.4268 119.375 61.614C124.297 62.4356 127.468 65.244 128.888 70.0393C129.137 106.611 129.137 143.183 128.888 179.755C127.706 183.936 125.033 186.62 120.867 187.806C114.878 188.157 108.91 188.032 102.961 187.431C99.1261 185.705 96.8259 182.771 96.0597 178.631C95.8109 142.684 95.8109 106.736 96.0597 70.7882C97.2277 65.5586 100.399 62.4382 105.572 61.4268Z" fill="#171717"/>
<path fill-rule="evenodd" clip-rule="evenodd" d="M58.5684 90.2599C62.798 90.1974 67.0261 90.2599 71.252 90.4471C76.2359 91.0845 79.5314 93.7682 81.1377 98.4979C81.751 124.825 81.8752 151.161 81.5108 177.508C81.0374 182.851 78.2395 186.283 73.1172 187.806C67.6457 188.055 62.1746 188.055 56.7032 187.806C52.6974 186.656 50.0241 184.097 48.6826 180.129C48.0694 153.678 47.9451 127.216 48.3096 100.745C49.0598 94.562 52.4795 91.0672 58.5684 90.2599Z" fill="#171717"/>
<path fill-rule="evenodd" clip-rule="evenodd" d="M0 179.38C0 161.157 0 142.933 0 124.71C1.46391 120.308 4.44829 117.5 8.95313 116.285C13.9271 116.035 18.9011 116.035 23.875 116.285C29.3312 117.767 32.3777 121.324 33.0147 126.957C33.2634 143.682 33.2634 160.408 33.0147 177.134C32.3669 182.776 29.3204 186.333 23.875 187.806C18.9011 188.055 13.9271 188.055 8.95313 187.806C4.44512 186.587 1.46074 183.779 0 179.38Z" fill="#171717"/>
</svg>
