<svg width="50" height="16" viewBox="0 0 50 16" fill="none" xmlns="http://www.w3.org/2000/svg">
<path d="M49.9277 11.3096L49.9691 11.3354C49.9944 11.3503 50.0042 11.3727 49.9984 11.4026C49.8685 11.9815 49.5454 12.2933 49.0291 12.3381C48.407 12.3932 47.7855 12.4455 47.1646 12.4949C45.8572 12.6 44.567 12.9411 43.2527 13.1634C43.1906 13.1737 43.1648 13.1479 43.1751 13.0858C43.4005 11.7041 43.1297 10.4878 42.3627 9.43684C41.4693 8.21535 40.0239 7.90868 38.5527 8.04996C35.9275 8.30321 34.8564 10.5016 34.9203 12.917C34.9216 12.9679 34.9129 13.0185 34.8945 13.066C34.8761 13.1135 34.8484 13.1568 34.8131 13.1935C34.7778 13.2302 34.7356 13.2596 34.6888 13.2798C34.6421 13.3001 34.5918 13.3109 34.5408 13.3115L12.1564 13.582C12.0955 13.582 12.0662 13.5516 12.0685 13.4907C12.1599 10.3999 10.8232 7.72089 7.28562 7.94831C4.90195 8.10164 3.61526 9.90373 3.58421 12.1693C3.57616 12.7229 3.56409 13.1588 3.54799 13.4769C3.54454 13.5378 3.51234 13.5694 3.4514 13.5717C2.30499 13.6004 1.19537 13.4172 0.122548 13.0221C0.0959983 13.0124 0.0729394 12.995 0.0563403 12.972C0.0397412 12.9489 0.030362 12.9214 0.0294098 12.8929C0.00353791 11.997 -0.0999496 10.9306 0.334698 10.1191C0.359995 10.0709 0.373794 10.0197 0.376093 9.96576L0.455434 7.76224C0.456584 7.70481 0.474981 7.6537 0.510627 7.60891C1.44547 6.44426 3.07539 6.02044 4.47938 5.65348C5.18424 5.46971 6.05354 5.30144 7.08726 5.14868C9.66411 4.76851 12.2542 4.50893 14.8575 4.36996C15.1139 4.35618 15.3536 4.28669 15.5767 4.16149C17.2894 3.20704 19.5851 1.9976 20.8649 1.43251C22.1194 0.877754 23.4423 0.521126 24.8337 0.362624C28.2269 -0.0244417 31.519 -0.0365028 34.7098 0.326443C35.6654 0.434982 36.6916 0.702024 37.6765 1.04315C39.6646 1.72999 41.5912 2.5604 43.4563 3.53438C43.8254 3.72734 44.1933 3.8577 44.5601 3.92547C45.8112 4.15748 47.072 4.31425 48.3426 4.3958C48.4012 4.39925 48.4449 4.42624 48.4737 4.47678C49.0153 5.3985 49.0411 6.42876 49.1843 7.46247C49.1889 7.50152 49.182 7.50554 49.1636 7.47452C49.1578 7.46534 49.1538 7.45328 49.1515 7.43835C49.0526 6.83765 48.8227 6.29438 48.4616 5.80853C48.4452 5.78667 48.4247 5.76826 48.4013 5.75437C48.3779 5.74047 48.3521 5.73136 48.3254 5.72756C47.5791 5.62189 46.8489 5.68334 46.1349 5.91191C46.1066 5.92137 46.0813 5.93814 46.0616 5.96051C46.042 5.98287 46.0286 6.01004 46.0228 6.03925C46.017 6.06847 46.0191 6.09869 46.0287 6.12686C46.0384 6.15502 46.0554 6.18012 46.0779 6.19962C46.9633 6.95652 47.9608 7.47969 49.0705 7.76913C49.1027 7.77717 49.1458 7.76626 49.1998 7.7364C49.2078 7.73164 49.2168 7.72885 49.2261 7.72824C49.2354 7.72763 49.2448 7.72923 49.2534 7.7329C49.2621 7.73657 49.2699 7.74221 49.2761 7.74939C49.2824 7.75657 49.287 7.7651 49.2895 7.7743C49.3987 8.17974 49.5867 8.54498 49.8535 8.87003C49.8961 8.92171 49.9168 8.98029 49.9156 9.04576L49.8966 11.2544C49.8966 11.2786 49.907 11.2969 49.9277 11.3096ZM34.6443 1.39633C32.7309 0.974808 30.7951 0.787592 28.8369 0.834683C28.7702 0.835831 28.7323 0.869713 28.7231 0.93633C28.5667 2.08949 28.4954 3.24839 28.5092 4.41303C28.5103 4.46127 28.5345 4.48482 28.5816 4.48367L34.4925 4.40097C34.5397 4.39982 34.5638 4.37628 34.5649 4.33033L34.6753 1.43596C34.6752 1.42663 34.6721 1.41764 34.6665 1.41045C34.6609 1.40325 34.653 1.39828 34.6443 1.39633ZM20.8166 2.37663C20.0543 2.73843 19.1499 3.23173 18.1035 3.85655C18.0644 3.87952 18.0547 3.91111 18.0742 3.95131L18.5347 4.90059C18.5445 4.92056 18.5599 4.93723 18.5793 4.94856C18.5986 4.95989 18.6209 4.96537 18.6434 4.96434L26.267 4.5767C26.2918 4.57519 26.3155 4.56581 26.3344 4.54998C26.3534 4.53415 26.3666 4.5127 26.3722 4.48884L27.2053 1.01558C27.2156 0.971935 27.1989 0.950688 27.1552 0.951836C24.89 0.970213 22.7771 1.44514 20.8166 2.37663ZM38.8217 4.32517C38.168 2.76082 36.4657 2.20951 35.1238 1.53416C35.0329 1.48821 34.9852 1.51635 34.9806 1.61858L34.8426 4.32689C34.8392 4.38317 34.8662 4.41131 34.9237 4.41131L38.7614 4.4182C38.8281 4.4182 38.8482 4.38719 38.8217 4.32517ZM26.2942 5.80388C26.2925 5.72992 26.2561 5.65747 26.1869 5.59067C26.1178 5.52386 26.0173 5.46402 25.8912 5.41455C25.7651 5.36508 25.6159 5.32695 25.4521 5.30235C25.2883 5.27774 25.1131 5.26714 24.9364 5.27114C24.7598 5.27515 24.5852 5.29368 24.4227 5.32569C24.2601 5.35769 24.1128 5.40254 23.9891 5.45767C23.8654 5.5128 23.7677 5.57714 23.7017 5.64701C23.6357 5.71688 23.6025 5.79091 23.6042 5.86487C23.6059 5.93884 23.6424 6.01129 23.7115 6.07809C23.7807 6.14489 23.8811 6.20473 24.0072 6.2542C24.1333 6.30367 24.2825 6.3418 24.4463 6.3664C24.6102 6.39101 24.7854 6.40161 24.962 6.39761C25.1387 6.39361 25.3132 6.37507 25.4758 6.34307C25.6383 6.31106 25.7856 6.26621 25.9093 6.21108C26.033 6.15595 26.1307 6.09161 26.1967 6.02174C26.2628 5.95188 26.2959 5.87785 26.2942 5.80388ZM37.1624 5.90083C37.1633 5.82798 37.1292 5.75542 37.0622 5.68729C36.9952 5.61916 36.8964 5.55679 36.7717 5.50375C36.6469 5.45071 36.4985 5.40803 36.335 5.37815C36.1715 5.34827 35.9961 5.33178 35.8188 5.32962C35.4606 5.32525 35.1164 5.3795 34.8619 5.48044C34.6074 5.58138 34.4634 5.72073 34.4616 5.86785C34.4607 5.9407 34.4947 6.01326 34.5618 6.08139C34.6288 6.14952 34.7275 6.21189 34.8523 6.26493C34.9771 6.31797 35.1254 6.36065 35.2889 6.39053C35.4524 6.4204 35.6279 6.4369 35.8052 6.43906C36.1633 6.44343 36.5075 6.38918 36.7621 6.28824C37.0166 6.1873 37.1606 6.04795 37.1624 5.90083ZM1.1557 9.33864C2.14688 8.96421 3.07367 8.47665 3.93607 7.87595C4.09935 7.76339 4.12637 7.62441 4.01713 7.45902C3.6601 6.92321 2.93051 6.97662 2.27164 7.25055C1.96118 7.37977 1.49721 7.49692 1.38337 7.857C1.22699 8.34628 1.12983 8.82409 1.09188 9.2904C1.08728 9.34094 1.10856 9.35702 1.1557 9.33864Z" fill="white"/>
<path d="M24.962 6.18729C25.5916 6.17521 26.0989 6.00739 26.0951 5.81244C26.0914 5.61749 25.578 5.46924 24.9485 5.48131C24.3189 5.49339 23.8116 5.66121 23.8154 5.85616C23.8191 6.05111 24.3325 6.19936 24.962 6.18729Z" fill="white"/>
<path d="M35.8137 6.23717C36.4433 6.24595 36.9559 6.09579 36.9586 5.90177C36.9614 5.70776 36.4532 5.54336 35.8236 5.53458C35.194 5.5258 34.6814 5.67596 34.6787 5.86997C34.676 6.06399 35.1842 6.22839 35.8137 6.23717Z" fill="white"/>
<path d="M11.4404 12.1246C11.4404 12.6137 11.344 13.0981 11.1566 13.55C10.9692 14.0019 10.6945 14.4125 10.3482 14.7584C10.002 15.1043 9.59088 15.3786 9.13845 15.5658C8.68603 15.753 8.20113 15.8494 7.71143 15.8494C7.22173 15.8494 6.73682 15.753 6.2844 15.5658C5.83197 15.3786 5.42089 15.1043 5.07462 14.7584C4.72835 14.4125 4.45368 14.0019 4.26628 13.55C4.07888 13.0981 3.98242 12.6137 3.98242 12.1246C3.98242 11.1367 4.3753 10.1893 5.07462 9.49075C5.77395 8.79221 6.72243 8.39978 7.71143 8.39978C8.70042 8.39978 9.64891 8.79221 10.3482 9.49075C11.0476 10.1893 11.4404 11.1367 11.4404 12.1246ZM10.7988 12.1246C10.7988 11.3067 10.4735 10.5223 9.89453 9.94393C9.31554 9.36559 8.53025 9.04068 7.71143 9.04068C6.8926 9.04068 6.10731 9.36559 5.52832 9.94393C4.94932 10.5223 4.62405 11.3067 4.62405 12.1246C4.62405 12.5296 4.7039 12.9306 4.85906 13.3047C5.01421 13.6789 5.24163 14.0188 5.52832 14.3052C5.81501 14.5916 6.15536 14.8187 6.52994 14.9737C6.90451 15.1287 7.30599 15.2085 7.71143 15.2085C8.11687 15.2085 8.51834 15.1287 8.89291 14.9737C9.26749 14.8187 9.60784 14.5916 9.89453 14.3052C10.1812 14.0188 10.4086 13.6789 10.5638 13.3047C10.7189 12.9306 10.7988 12.5296 10.7988 12.1246Z" fill="white"/>
<path d="M42.8096 12.1796C42.8096 13.1675 42.4167 14.1149 41.7174 14.8134C41.018 15.512 40.0696 15.9044 39.0806 15.9044C38.0916 15.9044 37.1431 15.512 36.4438 14.8134C35.7444 14.1149 35.3516 13.1675 35.3516 12.1796C35.3516 11.6905 35.448 11.2061 35.6354 10.7542C35.8228 10.3023 36.0975 9.89168 36.4438 9.5458C36.79 9.19992 37.2011 8.92555 37.6535 8.73837C38.106 8.55118 38.5909 8.45483 39.0806 8.45483C39.5703 8.45483 40.0552 8.55118 40.5076 8.73837C40.96 8.92555 41.3711 9.19992 41.7174 9.5458C42.0636 9.89168 42.3383 10.3023 42.5257 10.7542C42.7131 11.2061 42.8096 11.6905 42.8096 12.1796ZM42.1714 12.1796C42.1714 11.3608 41.8458 10.5755 41.2661 9.99655C40.6865 9.41756 39.9003 9.09229 39.0806 9.09229C38.2608 9.09229 37.4747 9.41756 36.895 9.99655C36.3154 10.5755 35.9897 11.3608 35.9897 12.1796C35.9897 12.9984 36.3154 13.7837 36.895 14.3627C37.4747 14.9417 38.2608 15.267 39.0806 15.267C39.9003 15.267 40.6865 14.9417 41.2661 14.3627C41.8458 13.7837 42.1714 12.9984 42.1714 12.1796Z" fill="white"/>
<path d="M7.71165 15.0223C9.31388 15.0223 10.6128 13.7249 10.6128 12.1245C10.6128 10.5241 9.31388 9.22668 7.71165 9.22668C6.10941 9.22668 4.81055 10.5241 4.81055 12.1245C4.81055 13.7249 6.10941 15.0223 7.71165 15.0223Z" fill="white"/>
<path d="M39.0808 15.079C40.683 15.079 41.9819 13.7816 41.9819 12.1812C41.9819 10.5807 40.683 9.28333 39.0808 9.28333C37.4786 9.28333 36.1797 10.5807 36.1797 12.1812C36.1797 13.7816 37.4786 15.079 39.0808 15.079Z" fill="white"/>
</svg>
